<svg width="72" height="70" viewBox="0 0 72 70" fill="none" xmlns="http://www.w3.org/2000/svg">
<g clip-path="url(#clip0_18_605)">
<path d="M6.05908 20.4476L69.1611 27.9812C69.1611 27.9812 71.6144 15.6304 65.2459 13.0794C58.8875 10.5281 14.1759 7.19289 11.2865 8.24388C8.39716 9.29486 5.16225 10.429 6.05908 20.4476Z" fill="#7DB3B4"/>
<path d="M63.1237 63.3934C62.3547 63.6129 61.5408 63.6937 60.7111 63.6146L7.6588 58.8007C3.99069 58.4674 1.28076 55.1896 1.61422 51.5065L5.04966 13.3477C5.38311 9.66459 8.63035 6.93492 12.2981 7.25827L65.3504 12.0721C67.1296 12.2358 68.7343 13.0781 69.8707 14.4594C71.017 15.8404 71.549 17.5855 71.395 19.3664L67.9592 57.5151C67.7047 60.3629 65.7062 62.6444 63.1233 63.3834L63.1237 63.3934ZM60.8873 61.6222C63.456 61.8565 65.7466 59.9351 65.9807 57.3489L69.4165 19.2001C69.5299 17.9422 69.1466 16.7231 68.3539 15.75C67.5516 14.7874 66.424 14.1879 65.1746 14.0745L12.1223 9.26063C9.5536 9.02631 7.26299 10.9478 7.02887 13.534L3.59307 51.6827C3.35895 54.269 5.26625 56.5741 7.83495 56.8084L60.8873 61.6222Z" fill="#2D7172"/>
<path d="M69.4356 28.9296C69.3173 28.9641 69.1784 28.9793 69.0484 28.9642L5.94561 21.4468C5.39526 21.3773 5.00857 20.8808 5.0783 20.3371C5.14767 19.7834 5.64138 19.3942 6.18178 19.464L69.2842 26.9714C69.8345 27.0409 70.2212 27.5374 70.1515 28.0811C70.1068 28.4935 69.8099 28.8153 69.4356 28.9296Z" fill="#2D7172"/>
<path d="M57.8788 53.7486C57.2874 53.9213 56.6622 53.985 56.0226 53.9288L40.6836 52.6304C39.2946 52.5121 38.0354 51.8575 37.1296 50.7883C36.2338 49.7188 35.7952 48.3513 35.9134 46.9528L36.9683 34.3967C37.2113 31.5091 39.7423 29.3479 42.6106 29.601L57.9495 30.8995C59.3385 31.0177 60.5977 31.6724 61.5035 32.7415C62.3994 33.811 62.8379 35.1786 62.7197 36.5771L61.6648 49.1332C61.478 51.3767 59.9098 53.1708 57.8788 53.7486ZM41.3029 31.7062C40.0409 32.0646 39.0753 33.1741 38.9568 34.5625L37.9019 47.1187C37.8339 47.9837 38.0939 48.8264 38.656 49.4873C39.2082 50.1485 39.9903 50.5604 40.8495 50.6283L56.1884 51.9267C57.9672 52.0805 59.5323 50.7479 59.686 48.9569L60.7408 36.4008C60.8945 34.6098 59.5717 33.0348 57.7929 32.8811L42.4539 31.5827C42.0542 31.5476 41.6673 31.5922 41.3025 31.6962L41.3029 31.7062Z" fill="#2D7172"/>
<path d="M31.6682 38.6555C31.5499 38.69 31.421 38.7049 31.3009 38.6894L8.8866 36.454C8.62651 36.4237 8.38265 36.2925 8.2158 36.0882C8.04895 35.8839 7.96942 35.6161 7.99969 35.3543L8.9448 25.7925C8.97506 25.5307 9.09558 25.2855 9.30856 25.117C9.51159 24.949 9.77761 24.8688 10.0377 24.8991L32.452 27.1344C33.002 27.1939 33.3983 27.6804 33.3389 28.2342L32.3938 37.7959C32.3635 38.0578 32.243 38.303 32.03 38.4714C31.9235 38.5556 31.7964 38.6206 31.6686 38.6655L31.6682 38.6555ZM10.0722 34.5543L30.507 36.5934L31.2561 29.0245L10.8213 26.9854L10.0722 34.5543Z" fill="#2D7172"/>
<path d="M30.4223 44.0304C30.304 44.0649 30.185 44.0794 30.055 44.0642L8.96596 42.0612C8.41635 42.0117 8.02007 41.5256 8.06955 40.9726C8.11902 40.4195 8.60242 40.0206 9.15204 40.0701L30.2411 42.0731C30.7907 42.1226 31.1869 42.6087 31.1375 43.1617C31.0932 43.5843 30.7969 43.9261 30.4223 44.0304Z" fill="#2D7172"/>
<path d="M28.6955 49.061C28.5772 49.0955 28.4582 49.11 28.3282 49.0948L7.23916 47.0918C6.68954 47.0423 6.29326 46.5562 6.34274 46.0031C6.39222 45.4501 6.87561 45.0512 7.42523 45.1006L28.5142 47.1037C29.0639 47.1531 29.4601 47.6393 29.4107 48.1923C29.3664 48.6148 29.0701 48.9567 28.6955 49.061Z" fill="#2D7172"/>
<path d="M48.482 22.774C48.3538 22.8089 48.2255 22.8438 48.087 22.8691C45.8309 23.2849 43.6635 21.7718 43.2517 19.5006C42.8399 17.2293 44.3436 15.0365 46.6001 14.6307C47.6886 14.4292 48.7932 14.6685 49.7131 15.3059C50.623 15.9436 51.2356 16.8934 51.4354 17.9992C51.8222 20.1309 50.513 22.1961 48.482 22.774ZM46.7537 16.6508C45.6988 16.9513 45.011 18.0303 45.2109 19.136C45.4236 20.3215 46.5579 21.1013 47.7256 20.8868C48.8929 20.6624 49.6783 19.5296 49.4659 18.3541C49.3655 17.7862 49.0483 17.2866 48.5679 16.9537C48.0975 16.6203 47.5154 16.5018 46.9512 16.6033C46.882 16.6159 46.8127 16.6286 46.7438 16.6512L46.7537 16.6508Z" fill="#2D7172"/>
<path d="M56.8084 23.5961C56.6802 23.631 56.5519 23.6659 56.4134 23.6912C55.3249 23.8926 54.2203 23.6533 53.3004 23.016C52.3905 22.3782 51.7779 21.4284 51.5781 20.3227C51.1663 18.0514 52.67 15.8586 54.9265 15.4528C57.1827 15.0369 59.35 16.5501 59.7618 18.8213C60.1486 20.953 58.8394 23.0182 56.8084 23.5961ZM55.0801 17.4729C54.0252 17.7734 53.3374 18.8524 53.5373 19.9581C53.6377 20.526 53.9549 21.0256 54.4353 21.3585C54.9057 21.6919 55.4878 21.8104 56.052 21.7089C57.2296 21.4941 58.0047 20.3517 57.7923 19.1762C57.5796 17.9907 56.4453 17.211 55.2776 17.4254C55.2084 17.438 55.1391 17.4507 55.0702 17.4733L55.0801 17.4729Z" fill="#2D7172"/>
<path d="M65.7494 24.6057C65.6211 24.6406 65.4929 24.6755 65.3544 24.7008C64.2659 24.9022 63.1613 24.6629 62.2414 24.0255C61.3315 23.3878 60.7189 22.438 60.5191 21.3322C60.1072 19.061 61.601 16.8686 63.8675 16.4623C66.1236 16.0465 68.291 17.5596 68.7028 19.8309C69.0896 21.9626 67.7804 24.0278 65.7494 24.6057ZM64.0211 18.4825C62.9661 18.783 62.2784 19.8619 62.4782 20.9677C62.5787 21.5356 62.8958 22.0352 63.3762 22.3681C63.8467 22.7014 64.4288 22.82 64.993 22.7185C66.1706 22.5037 66.9457 21.3613 66.7333 20.1858C66.5206 19.0003 65.3863 18.2205 64.2186 18.435C64.1493 18.4476 64.0801 18.4602 64.0111 18.4829L64.0211 18.4825Z" fill="#2D7172"/>
<path d="M44.9755 13.7999C44.9161 13.8121 44.8568 13.8244 44.7968 13.8166C32.1352 12.6596 12.9403 10.9668 11.9969 11.0424C11.7298 11.0925 11.4841 10.9114 11.4345 10.6428C11.3848 10.3742 11.5845 10.1162 11.8512 10.0561C12.7217 9.89317 39.5234 12.3319 44.8898 12.8214C45.1598 12.8513 45.3679 13.0939 45.338 13.3655C45.3159 13.5767 45.1726 13.7424 44.9755 13.7999Z" fill="#2D7172"/>
<path d="M5.46674 53.2535C5.20004 53.3237 4.93522 53.1732 4.85597 52.9154C3.71881 49.0959 8.54746 14.0044 8.75212 12.512C8.79202 12.2396 9.04436 12.0496 9.31473 12.0795C9.58547 12.1195 9.77428 12.3732 9.74434 12.6452C8.34906 22.7494 4.92489 49.6224 5.81286 52.6286C5.89248 52.8965 5.74304 53.1729 5.4767 53.2532L5.46674 53.2535Z" fill="#2D7172"/>
</g>
<defs>
<clipPath id="clip0_18_605">
<rect width="72" height="70" fill="white"/>
</clipPath>
</defs>
</svg>
