<svg width="72" height="71" viewBox="0 0 72 71" fill="none" xmlns="http://www.w3.org/2000/svg">
<path d="M10.892 36.7436L17.7936 52.3026C17.7936 52.3026 7.83824 60.6242 4.10498 49.3481C0.180868 37.4765 10.8997 36.7436 10.8997 36.7436H10.892Z" fill="#7DB3B4"/>
<path d="M50.0721 48.8671C47.3695 48.4396 44.018 44.1337 39.1243 34.9953C32.1464 21.9785 31.8715 14.6647 33.9328 12.1606C34.5665 11.3895 35.4063 11.0612 36.3453 11.2063C41.0482 11.9926 47.8505 25.4598 49.9041 30.9414L50.2248 31.8041C53.1793 39.6905 55.7292 46.5004 51.8433 48.5617C51.2783 48.8595 50.6981 48.9663 50.0721 48.8671ZM35.1085 13.1302C33.7649 14.7639 33.3755 21.0471 40.4679 34.27C45.6136 43.8742 49.2018 48.2258 51.1257 47.2104C53.8283 45.7751 51.3852 39.2477 48.7971 32.3385L48.4765 31.4758C45.7968 24.307 39.4297 13.2752 36.1239 12.7179C35.704 12.6492 35.4063 12.779 35.1162 13.1302H35.1085Z" fill="#2D7172"/>
<path d="M49.3392 50.2413C48.6903 50.1421 47.9879 49.8978 47.2244 49.5313C40.3611 46.1721 31.757 25.4827 31.2989 18.2605C31.1234 15.5579 31.6501 13.5806 32.8487 12.3667C34.0703 11.1376 35.5284 11.2139 35.5971 11.2139C36.017 11.2445 36.3377 11.6033 36.3148 12.0232C36.2919 12.4431 35.9331 12.7637 35.5132 12.7408C35.4597 12.7408 34.6276 12.7255 33.9099 13.4661C33.0549 14.3441 32.6808 15.9702 32.8182 18.1613C33.2534 24.9407 41.5597 45.0575 47.8963 48.1571C49.2857 48.8366 50.3469 48.9511 51.0493 48.5007C52.1334 47.7983 52.309 45.7675 52.2861 45.0422C52.2708 44.6223 52.5991 44.2712 53.019 44.2559C53.4465 44.2406 53.7901 44.5689 53.8053 44.9888C53.8053 45.1262 53.9046 48.4548 51.8738 49.7756C51.1638 50.2413 50.3088 50.394 49.3239 50.2337L49.3392 50.2413Z" fill="#2D7172"/>
<path d="M8.57877 56.1657C7.96038 56.0664 7.21984 55.7458 6.44112 54.9823C3.56293 52.1576 1.5856 44.7674 2.07421 42.0877C2.44066 40.0569 5.66241 38.385 11.3119 35.606C14.6634 33.957 18.4654 32.0866 21.4123 30.0023C28.1612 25.2155 31.1692 15.8633 31.1997 15.7717C31.3295 15.3671 31.757 15.1533 32.154 15.2755C32.5586 15.4052 32.78 15.8328 32.6502 16.2298C32.5205 16.6344 29.459 26.1698 22.2903 31.2468C19.2441 33.4073 15.3887 35.3007 11.9837 36.9803C7.97565 38.9499 3.8225 40.996 3.5782 42.3626C3.20411 44.4086 4.96004 51.3941 7.50995 53.8982C8.13597 54.5166 8.73146 54.7686 9.27351 54.654C11.1058 54.2876 14.6482 52.776 18.3967 51.1727C22.443 49.4397 26.6343 47.6532 29.4056 46.9814C34.7955 45.6759 48.8277 48.6762 49.4155 48.806C49.8278 48.8976 50.0874 49.3023 50.0034 49.7145C49.9118 50.1268 49.5072 50.3864 49.0949 50.3024C48.9498 50.2719 34.8184 47.2486 29.7644 48.4701C27.1153 49.1114 22.9926 50.875 18.9998 52.5775C15.175 54.2112 11.5638 55.7534 9.57889 56.1504C9.29641 56.2038 8.9605 56.2267 8.58641 56.1657H8.57877Z" fill="#2D7172"/>
<path d="M21.0153 69.7244C19.3968 69.4649 17.847 67.8235 16.8851 65.3117C15.3047 61.1815 11.2203 55.2571 11.1821 55.1961C10.9455 54.8525 11.0294 54.3715 11.373 54.1349C11.7165 53.8906 12.1975 53.9822 12.4342 54.3257C12.6021 54.5777 16.6637 60.4562 18.3051 64.762C19.2289 67.1669 20.5496 68.2281 21.4581 68.2281C22.2826 68.2281 22.756 67.289 22.9545 66.7317C23.779 64.4872 20.7328 56.4863 18.6257 51.9667C18.4501 51.5849 18.6105 51.1269 18.9922 50.9513C19.3739 50.7757 19.832 50.936 20.0076 51.3177C20.5954 52.5698 25.6952 63.6779 24.3898 67.2509C23.8095 68.8312 22.7483 69.7397 21.4657 69.7473C21.3131 69.7473 21.1604 69.7397 21.0077 69.7092L21.0153 69.7244Z" fill="#2D7172"/>
<path d="M17.6714 53.0584C17.4271 53.0202 17.1981 52.8599 17.0912 52.6156L10.1897 37.0566C10.0217 36.6672 10.1897 36.2168 10.579 36.0488C10.9684 35.8808 11.4188 36.0488 11.5868 36.4382L18.4883 51.9972C18.6563 52.3866 18.4883 52.837 18.099 53.0049C17.9615 53.066 17.8089 53.0813 17.6714 53.0584Z" fill="#2D7172"/>
<path d="M39.3533 34.1936C39.0098 34.1402 38.7426 33.8577 38.712 33.4989C38.6815 33.079 38.9945 32.7126 39.4144 32.6744C41.5368 32.5064 43.3461 31.7277 43.9187 30.7429C44.1325 30.3688 44.1401 30.0023 43.9493 29.6053C43.7279 29.1473 43.4301 28.8877 43.0026 28.7961C41.4833 28.4525 38.8418 30.2313 37.9715 30.949C37.6432 31.2162 37.1622 31.1704 36.895 30.8421C36.6278 30.5138 36.6736 30.0329 37.0019 29.7657C37.3836 29.4526 40.7657 26.75 43.3309 27.3074C44.2088 27.5058 44.8959 28.0708 45.3235 28.9488C45.7357 29.7962 45.7052 30.7123 45.2395 31.5139C44.4073 32.9645 42.2239 33.9951 39.5365 34.2089C39.4755 34.2089 39.4144 34.2089 39.3533 34.2089V34.1936Z" fill="#2D7172"/>
<path d="M20.4733 69.5718C20.1068 69.5107 19.8243 69.19 19.832 68.8083C19.832 68.8083 19.8014 68.1975 19.2212 65.2201C18.6257 62.1663 13.7702 54.7838 13.7244 54.7075C13.4954 54.3563 13.587 53.8829 13.9382 53.6463C14.2894 53.4172 14.7627 53.5088 14.9994 53.86C15.2055 54.173 20.0686 61.5708 20.7252 64.9147C21.3207 67.9914 21.3665 68.6785 21.3589 68.8159C21.3589 69.2358 21.0077 69.5718 20.5878 69.5718C20.5496 69.5718 20.5114 69.5718 20.4809 69.5641L20.4733 69.5718Z" fill="#2D7172"/>
<path d="M50.408 48.0731C50.408 48.0731 50.3775 48.0731 50.3622 48.0655C50.1561 48.012 50.0416 47.7983 50.095 47.5998C50.1103 47.5463 51.599 41.8128 46.8046 30.6513C41.9872 19.4362 34.3527 13.6875 34.2764 13.634C34.1084 13.5119 34.0703 13.2676 34.2 13.0996C34.3222 12.9317 34.5665 12.8935 34.7345 13.0233C34.8108 13.0844 42.598 18.94 47.5069 30.3535C52.4235 41.7976 50.8966 47.5692 50.8279 47.8135C50.7745 48.0044 50.5912 48.1189 50.4004 48.0884L50.408 48.0731Z" fill="#2D7172"/>
<path d="M43.7431 28.277C43.621 28.2541 43.5065 28.1777 43.453 28.0556C39.7732 19.5584 33.4977 15.5427 33.4366 15.5045C33.261 15.39 33.2076 15.1609 33.3144 14.9777C33.429 14.8021 33.658 14.7411 33.8412 14.8556C34.1084 15.0235 40.3763 19.024 44.1554 27.7502C44.2394 27.9411 44.1554 28.1701 43.9569 28.2541C43.8882 28.2846 43.8118 28.2922 43.7431 28.2846V28.277Z" fill="#2D7172"/>
<path d="M3.23465 45.4927C3.05142 45.4621 2.90637 45.3018 2.914 45.111C2.96744 41.8052 9.45674 38.6904 15.7399 35.6824C17.8012 34.6975 19.7404 33.7661 21.4658 32.8347C28.291 29.1396 31.7952 21.696 31.8334 21.6197C31.925 21.4288 32.1464 21.3449 32.3372 21.4365C32.5281 21.5281 32.6121 21.7495 32.5205 21.9404C32.3754 22.2534 28.8712 29.6893 21.8246 33.5066C20.0839 34.4456 18.1295 35.3846 16.0682 36.3771C10.2813 39.1484 3.71562 42.2938 3.67745 45.1262C3.67745 45.34 3.50185 45.508 3.28809 45.5003C3.27282 45.5003 3.24992 45.5003 3.23465 45.5003V45.4927Z" fill="#2D7172"/>
<path d="M48.6292 18.1689C48.5223 18.1536 48.4154 18.1078 48.3238 18.0315C48.0795 17.833 48.0108 17.4971 48.1559 17.2146C50.0034 13.6569 52.5762 1.64026 52.5991 1.51811C52.6526 1.26617 52.8511 1.06768 53.103 1.01424C53.3549 0.960799 53.6145 1.06004 53.7672 1.27381L59.2106 8.77086C59.4091 9.0457 59.3633 9.43506 59.1037 9.65646L49.156 18.0238C49.0033 18.146 48.8124 18.1994 48.6292 18.1689ZM53.5687 3.22823C52.9732 5.86976 51.6372 11.5651 50.3393 15.3212L57.7906 9.05333L53.5611 3.23587L53.5687 3.22823Z" fill="#2D7172"/>
<path d="M68.6697 33.9417C68.6697 33.9417 68.5933 33.9264 68.5551 33.9111L57.8669 30.2237C57.5844 30.1244 57.4012 29.8496 57.4317 29.5519C57.4546 29.2541 57.6837 29.0098 57.9738 28.964L70.2347 26.9332C70.4561 26.8951 70.6775 26.9714 70.8302 27.1394C70.9829 27.3073 71.0363 27.5364 70.9753 27.7501L69.4026 33.4683C69.3568 33.6439 69.2346 33.789 69.0743 33.873C68.9445 33.9417 68.8071 33.9646 68.6697 33.9417ZM60.7451 29.8343L68.3261 32.453L69.4407 28.3914L60.7451 29.8343Z" fill="#2D7172"/>
</svg>
