<svg width="72" height="71" viewBox="0 0 72 71" fill="none" xmlns="http://www.w3.org/2000/svg">
<path d="M10.892 36.7437L17.7936 52.3027C17.7936 52.3027 7.83824 60.6243 4.10498 49.3482C0.180868 37.4766 10.8997 36.7437 10.8997 36.7437H10.892Z" fill="#4AB2C2"/>
<path d="M50.0721 48.8671C47.3695 48.4396 44.018 44.1338 39.1243 34.9953C32.1464 21.9785 31.8715 14.6647 33.9328 12.1606C34.5665 11.3895 35.4063 11.0612 36.3453 11.2063C41.0482 11.9927 47.8505 25.4599 49.9041 30.9414L50.2248 31.8041C53.1793 39.6905 55.7292 46.5004 51.8433 48.5617C51.2783 48.8595 50.6981 48.9664 50.0721 48.8671ZM35.1085 13.1302C33.7649 14.764 33.3755 21.0471 40.4679 34.27C45.6136 43.8742 49.2018 48.2258 51.1257 47.2104C53.8283 45.7752 51.3852 39.2477 48.7971 32.3385L48.4765 31.4758C45.7968 24.307 39.4297 13.2752 36.1239 12.7179C35.704 12.6492 35.4063 12.779 35.1162 13.1302H35.1085Z" fill="#008297"/>
<path d="M49.3392 50.2412C48.6903 50.142 47.9879 49.8977 47.2244 49.5312C40.3611 46.172 31.757 25.4826 31.2989 18.2604C31.1234 15.5578 31.6501 13.5805 32.8487 12.3666C34.0703 11.1375 35.5284 11.2138 35.5971 11.2138C36.017 11.2444 36.3377 11.6032 36.3148 12.0231C36.2919 12.443 35.9331 12.7636 35.5132 12.7407C35.4597 12.7407 34.6276 12.7254 33.9099 13.466C33.0549 14.344 32.6808 15.9701 32.8182 18.1612C33.2534 24.9406 41.5597 45.0574 47.8963 48.157C49.2857 48.8365 50.3469 48.951 51.0493 48.5006C52.1334 47.7982 52.309 45.7674 52.2861 45.0421C52.2708 44.6222 52.5991 44.2711 53.019 44.2558C53.4465 44.2405 53.7901 44.5688 53.8053 44.9887C53.8053 45.1261 53.9046 48.4547 51.8738 49.7755C51.1638 50.2412 50.3088 50.3939 49.3239 50.2336L49.3392 50.2412Z" fill="#008297"/>
<path d="M8.57877 56.1657C7.96038 56.0664 7.21984 55.7458 6.44112 54.9823C3.56293 52.1576 1.5856 44.7674 2.07421 42.0877C2.44066 40.0569 5.66241 38.385 11.3119 35.606C14.6634 33.957 18.4654 32.0866 21.4123 30.0023C28.1612 25.2155 31.1692 15.8633 31.1997 15.7717C31.3295 15.3671 31.757 15.1533 32.154 15.2755C32.5586 15.4052 32.78 15.8328 32.6502 16.2298C32.5205 16.6344 29.459 26.1698 22.2903 31.2468C19.2441 33.4073 15.3887 35.3007 11.9837 36.9802C7.97565 38.9499 3.8225 40.996 3.5782 42.3625C3.20411 44.4086 4.96004 51.3941 7.50995 53.8982C8.13597 54.5166 8.73146 54.7686 9.27351 54.654C11.1058 54.2876 14.6482 52.776 18.3967 51.1727C22.443 49.4397 26.6343 47.6532 29.4056 46.9814C34.7955 45.6759 48.8277 48.6762 49.4155 48.806C49.8278 48.8976 50.0874 49.3023 50.0034 49.7145C49.9118 50.1268 49.5072 50.3864 49.0949 50.3024C48.9498 50.2719 34.8184 47.2486 29.7644 48.4701C27.1153 49.1114 22.9926 50.875 18.9998 52.5775C15.175 54.2112 11.5638 55.7534 9.57889 56.1504C9.29641 56.2038 8.9605 56.2267 8.58641 56.1657H8.57877Z" fill="#008297"/>
<path d="M21.0153 69.7246C19.3968 69.465 17.847 67.8236 16.8851 65.3118C15.3047 61.1816 11.2203 55.2572 11.1821 55.1962C10.9455 54.8526 11.0294 54.3716 11.373 54.135C11.7165 53.8907 12.1975 53.9823 12.4342 54.3258C12.6021 54.5778 16.6637 60.4563 18.3051 64.7622C19.2289 67.167 20.5496 68.2282 21.4581 68.2282C22.2826 68.2282 22.756 67.2892 22.9545 66.7318C23.779 64.4873 20.7328 56.4864 18.6257 51.9668C18.4501 51.5851 18.6105 51.127 18.9922 50.9514C19.3739 50.7758 19.832 50.9361 20.0076 51.3179C20.5954 52.5699 25.6952 63.6781 24.3898 67.251C23.8095 68.8313 22.7483 69.7398 21.4657 69.7475C21.3131 69.7475 21.1604 69.7398 21.0077 69.7093L21.0153 69.7246Z" fill="#008297"/>
<path d="M17.6714 53.0584C17.4271 53.0202 17.1981 52.8599 17.0912 52.6156L10.1897 37.0565C10.0217 36.6672 10.1897 36.2167 10.579 36.0488C10.9684 35.8808 11.4188 36.0488 11.5868 36.4381L18.4883 51.9972C18.6563 52.3865 18.4883 52.837 18.099 53.0049C17.9615 53.066 17.8089 53.0813 17.6714 53.0584Z" fill="#008297"/>
<path d="M39.3533 34.1937C39.0098 34.1402 38.7426 33.8578 38.712 33.4989C38.6815 33.079 38.9945 32.7126 39.4144 32.6744C41.5368 32.5065 43.3461 31.7277 43.9187 30.7429C44.1325 30.3688 44.1401 30.0023 43.9493 29.6054C43.7279 29.1473 43.4301 28.8877 43.0026 28.7961C41.4833 28.4526 38.8418 30.2314 37.9715 30.949C37.6432 31.2162 37.1622 31.1704 36.895 30.8421C36.6278 30.5139 36.6736 30.0329 37.0019 29.7657C37.3836 29.4527 40.7657 26.7501 43.3309 27.3074C44.2088 27.5059 44.8959 28.0708 45.3235 28.9488C45.7357 29.7962 45.7052 30.7124 45.2395 31.514C44.4073 32.9645 42.2239 33.9952 39.5365 34.2089C39.4755 34.2089 39.4144 34.2089 39.3533 34.2089V34.1937Z" fill="#008297"/>
<path d="M20.4733 69.5716C20.1068 69.5106 19.8243 69.1899 19.832 68.8082C19.832 68.8082 19.8014 68.1974 19.2212 65.22C18.6257 62.1662 13.7702 54.7837 13.7244 54.7073C13.4954 54.3561 13.587 53.8828 13.9382 53.6461C14.2894 53.4171 14.7627 53.5087 14.9994 53.8599C15.2055 54.1729 20.0686 61.5707 20.7252 64.9146C21.3207 67.9913 21.3665 68.6784 21.3589 68.8158C21.3589 69.2357 21.0077 69.5716 20.5878 69.5716C20.5496 69.5716 20.5114 69.5716 20.4809 69.564L20.4733 69.5716Z" fill="#008297"/>
<path d="M50.408 48.0732C50.408 48.0732 50.3775 48.0732 50.3622 48.0656C50.1561 48.0121 50.0416 47.7984 50.095 47.5999C50.1103 47.5464 51.599 41.8129 46.8046 30.6514C41.9872 19.4363 34.3527 13.6876 34.2764 13.6341C34.1084 13.512 34.0703 13.2677 34.2 13.0997C34.3222 12.9318 34.5665 12.8936 34.7345 13.0234C34.8108 13.0845 42.598 18.9401 47.5069 30.3536C52.4235 41.7977 50.8966 47.5693 50.8279 47.8136C50.7745 48.0045 50.5912 48.119 50.4004 48.0885L50.408 48.0732Z" fill="#008297"/>
<path d="M43.7431 28.2771C43.621 28.2542 43.5065 28.1778 43.453 28.0557C39.7732 19.5585 33.4977 15.5428 33.4366 15.5046C33.261 15.3901 33.2076 15.1611 33.3144 14.9778C33.429 14.8023 33.658 14.7412 33.8412 14.8557C34.1084 15.0237 40.3763 19.0241 44.1554 27.7503C44.2394 27.9412 44.1554 28.1702 43.9569 28.2542C43.8882 28.2847 43.8118 28.2924 43.7431 28.2847V28.2771Z" fill="#008297"/>
<path d="M3.23465 45.4928C3.05142 45.4623 2.90637 45.3019 2.914 45.1111C2.96744 41.8053 9.45674 38.6905 15.7399 35.6825C17.8012 34.6977 19.7404 33.7662 21.4658 32.8348C28.291 29.1398 31.7952 21.6962 31.8334 21.6198C31.925 21.4289 32.1464 21.345 32.3372 21.4366C32.5281 21.5282 32.6121 21.7496 32.5205 21.9405C32.3754 22.2535 28.8712 29.6894 21.8246 33.5067C20.0839 34.4457 18.1295 35.3848 16.0682 36.3772C10.2813 39.1485 3.71562 42.294 3.67745 45.1263C3.67745 45.3401 3.50185 45.5081 3.28809 45.5004C3.27282 45.5004 3.24992 45.5004 3.23465 45.5004V45.4928Z" fill="#008297"/>
<path d="M48.6292 18.1689C48.5223 18.1536 48.4154 18.1078 48.3238 18.0315C48.0795 17.833 48.0108 17.4971 48.1559 17.2146C50.0034 13.6569 52.5762 1.64026 52.5991 1.51811C52.6526 1.26617 52.8511 1.06768 53.103 1.01424C53.3549 0.960799 53.6145 1.06004 53.7672 1.27381L59.2106 8.77086C59.4091 9.0457 59.3633 9.43506 59.1037 9.65646L49.156 18.0238C49.0033 18.146 48.8124 18.1994 48.6292 18.1689ZM53.5687 3.22823C52.9732 5.86976 51.6372 11.5651 50.3393 15.3212L57.7906 9.05333L53.5611 3.23587L53.5687 3.22823Z" fill="#008297"/>
<path d="M68.6697 33.9419C68.6697 33.9419 68.5933 33.9267 68.5551 33.9114L57.8669 30.2239C57.5844 30.1247 57.4012 29.8499 57.4317 29.5521C57.4546 29.2544 57.6837 29.0101 57.9738 28.9643L70.2347 26.9335C70.4561 26.8953 70.6775 26.9717 70.8302 27.1396C70.9829 27.3076 71.0363 27.5366 70.9753 27.7504L69.4026 33.4686C69.3568 33.6442 69.2346 33.7892 69.0743 33.8732C68.9445 33.9419 68.8071 33.9648 68.6697 33.9419ZM60.7451 29.8346L68.3261 32.4532L69.4407 28.3917L60.7451 29.8346Z" fill="#008297"/>
</svg>
