<svg width="36" height="34" viewBox="0 0 36 34" fill="none" xmlns="http://www.w3.org/2000/svg">
<path d="M29.6602 14.97C29.6598 15.2138 29.5626 15.4475 29.39 15.6197C29.2174 15.792 28.9836 15.8887 28.7397 15.8887H26.1812V17.5302H28.7397C28.8637 17.5248 28.9874 17.5445 29.1035 17.5882C29.2195 17.6319 29.3256 17.6987 29.4152 17.7844C29.5048 17.8702 29.5761 17.9732 29.6248 18.0873C29.6735 18.2013 29.6986 18.3241 29.6986 18.4481C29.6986 18.5721 29.6735 18.6949 29.6248 18.8089C29.5761 18.923 29.5048 19.026 29.4152 19.1118C29.3256 19.1975 29.2195 19.2643 29.1035 19.308C28.9874 19.3517 28.8637 19.3714 28.7397 19.366H25.2625C25.0202 19.3641 24.7884 19.2668 24.6174 19.0951C24.4463 18.9235 24.3499 18.6913 24.349 18.449V11.491C24.349 10.9887 24.7603 10.5722 25.2677 10.5722H28.7468C28.9904 10.5729 29.2238 10.6704 29.3956 10.8432C29.5674 11.016 29.6636 11.2499 29.6629 11.4936C29.6622 11.7373 29.5647 11.9707 29.3919 12.1425C29.2191 12.3143 28.9852 12.4104 28.7415 12.4097H26.183V14.0512H28.7415C29.2508 14.0512 29.662 14.466 29.662 14.97H29.6602ZM22.4887 19.3187C22.3948 19.3484 22.2968 19.3632 22.1982 19.3625C22.0542 19.3657 21.9115 19.3343 21.7821 19.2709C21.6527 19.2076 21.5403 19.1142 21.4545 18.9985L17.8915 14.1615V18.449C17.874 18.68 17.7699 18.8958 17.6 19.0533C17.4301 19.2108 17.207 19.2983 16.9754 19.2983C16.7437 19.2983 16.5206 19.2108 16.3507 19.0533C16.1809 18.8958 16.0767 18.68 16.0592 18.449V11.491C16.0588 11.249 16.1543 11.0167 16.325 10.8451C16.4956 10.6735 16.7273 10.5767 16.9692 10.5757C17.2528 10.5757 17.5152 10.7262 17.6903 10.945L21.2812 15.8012V11.491C21.2812 10.9887 21.6925 10.5722 22.2 10.5722C22.7022 10.5722 23.1187 10.9887 23.1187 11.491V18.449C23.1185 18.6418 23.0575 18.8296 22.9444 18.9857C22.8313 19.1419 22.6719 19.2584 22.4887 19.3187ZM13.8263 19.366C13.5836 19.3646 13.3514 19.2675 13.18 19.0958C13.0086 18.924 12.9119 18.6916 12.911 18.449V11.491C12.911 10.9887 13.324 10.5722 13.8297 10.5722C14.3355 10.5722 14.7467 10.9887 14.7467 11.491V18.449C14.7454 18.6924 14.6478 18.9253 14.4754 19.0971C14.303 19.2689 14.0696 19.3655 13.8263 19.366ZM11.1488 19.366H7.6715C7.42856 19.3646 7.19593 19.2676 7.02398 19.096C6.85203 18.9244 6.75459 18.6919 6.75275 18.449V11.491C6.77283 11.2612 6.87832 11.0472 7.0484 10.8913C7.21848 10.7355 7.4408 10.649 7.6715 10.649C7.9022 10.649 8.12452 10.7355 8.2946 10.8913C8.46468 11.0472 8.57017 11.2612 8.59025 11.491V17.5285H11.1523C11.3959 17.5285 11.6296 17.6253 11.8019 17.7976C11.9742 17.9699 12.071 18.2036 12.071 18.4472C12.071 18.6909 11.9742 18.9246 11.8019 19.0969C11.6296 19.2692 11.3959 19.366 11.1523 19.366H11.1488ZM18 0.500977C8.35225 0.500977 0.5 6.87623 0.5 14.7075C0.5 21.725 6.7265 27.6032 15.1353 28.7197C15.704 28.8387 16.481 29.096 16.677 29.5807C16.852 30.0182 16.7925 30.6972 16.733 31.1557L16.4932 32.6432C16.4285 33.0807 16.1432 34.3722 18.0227 33.583C19.9057 32.7972 28.1098 27.6365 31.7848 23.412C34.2978 20.6557 35.5 17.8347 35.5 14.7075C35.5 6.87623 27.646 0.500977 18 0.500977Z" fill="white"/>
</svg>
