<svg width="63" height="62" viewBox="0 0 63 62" fill="none" xmlns="http://www.w3.org/2000/svg">
<path d="M35.4956 52.0138C35.4956 52.0138 40.0208 51.6792 29.9314 43.333C19.8421 34.9868 20.8281 13.5138 33.5499 13.1177C46.2717 12.7303 51.7126 25.0647 49.0273 33.8423C46.3421 42.6287 45.0127 44.7593 45.7346 50.7548C45.7346 50.7548 38.2688 53.4048 35.4956 52.005V52.0138Z" fill="#4AB2C2"/>
<path d="M35.7157 52.9206C35.3723 52.815 35.117 52.498 35.0994 52.1106C35.0114 49.6279 34.8529 48.0432 32.7399 46.8194C26.63 43.2714 20.4143 31.3772 21.8582 22.5468C22.4745 18.7787 24.7723 13.9717 32.1853 12.4662C38.4097 11.1984 43.1199 12.4662 46.1837 16.2343C51.4837 22.7405 50.3832 35.4887 46.6591 44.187C44.9511 48.1752 46.3686 50.1473 46.4302 50.2266C46.7207 50.614 46.6503 51.1598 46.2629 51.4591C45.8843 51.7497 45.3385 51.688 45.0391 51.3183C44.9511 51.2038 42.8822 48.5186 45.0391 43.5003C48.6048 35.1629 49.5028 23.1102 44.8102 17.3524C42.1866 14.1302 38.0576 13.0737 32.5287 14.1918C27.3695 15.2395 24.3585 18.1448 23.5926 22.8285C22.272 30.8666 28.1002 42.0917 33.6204 45.2963C36.6841 47.0748 36.7722 49.716 36.8602 52.049C36.8778 52.5332 36.4993 52.947 36.015 52.9646C35.9094 52.9646 35.8125 52.9558 35.7157 52.9206Z" fill="#008297"/>
<path d="M36.4201 55.9048C34.5537 55.3149 34.4304 53.0171 34.6241 51.855C34.6681 51.5996 34.8266 51.3707 35.0467 51.2475C35.2668 51.1154 35.5485 51.0978 35.7862 51.1771C35.839 51.2035 41.2711 53.0787 45.9989 49.9269C46.2014 49.7948 46.4391 49.7508 46.6768 49.7948C46.9057 49.8477 47.117 49.9885 47.2402 50.191C47.8125 51.1154 48.4376 53.0259 47.1698 54.3377C45.6819 55.8696 37.8816 56.2658 36.5962 55.9488C36.5346 55.9312 36.4729 55.9136 36.4201 55.896V55.9048ZM36.3409 53.158C36.3937 53.6422 36.5698 54.1528 37.0188 54.2409C38.2249 54.5402 45.0745 53.9151 45.9108 53.1139C46.2102 52.8058 46.1838 52.3392 46.0869 51.943C42.222 54.0736 38.2513 53.5894 36.3497 53.158H36.3409Z" fill="#008297"/>
<path d="M37.6966 58.4935C35.9622 57.9477 35.3547 56.1517 35.2755 55.2184C35.2315 54.7342 35.5924 54.3116 36.0767 54.2676C36.5609 54.2324 36.9835 54.5845 37.0275 55.0688C37.0275 55.1392 37.2036 56.6271 38.4185 56.8648C40.3378 57.2169 45.224 56.6271 45.9107 56.0812C46.1925 55.8611 46.0428 54.8223 45.7259 54.0827C45.5322 53.6337 45.7435 53.1231 46.1925 52.9294C46.6415 52.7357 47.1521 52.947 47.3458 53.3872C47.4691 53.6777 48.5167 56.2485 47.02 57.4547C45.6378 58.5552 39.968 58.9425 38.1104 58.5992C37.9695 58.5728 37.8287 58.5375 37.7054 58.4935H37.6966Z" fill="#008297"/>
<path d="M41.7376 60.3252C40.5227 59.9379 39.6159 58.7845 39.4926 58.6173C39.2021 58.2299 39.2813 57.6752 39.6687 57.3847C40.0561 57.0942 40.6107 57.1734 40.9012 57.5608C41.2886 58.0626 42.0898 58.7669 42.5916 58.6877C42.9438 58.6349 43.3223 58.1066 43.6217 57.2438C43.7802 56.786 44.2732 56.5307 44.7398 56.698C45.1976 56.8565 45.4441 57.3583 45.2856 57.8161C44.7398 59.3744 43.9298 60.2548 42.8645 60.4221C42.4684 60.4837 42.0986 60.4397 41.7464 60.3252H41.7376Z" fill="#008297"/>
<path d="M38.4978 53.3784C38.216 53.2904 37.9783 53.0527 37.9079 52.7445C36.1911 45.6397 33.8845 37.9626 32.0884 33.7455C31.1464 33.7631 30.2308 33.5782 29.4208 33.2437C27.9242 32.6274 27.079 31.6237 27.211 30.6201C27.3079 29.9334 27.8625 29.053 30.0019 28.7976C30.8207 28.7008 31.7803 29.141 33.1273 31.8438C33.8316 31.6677 34.58 31.3068 35.2403 30.5849C34.7473 30.1359 34.5007 29.634 34.5007 29.0794C34.5007 28.2782 35.0818 27.5475 35.9534 27.2657C36.7105 27.0192 37.4501 27.2217 37.8463 27.7676C38.3305 28.4455 38.1104 29.2995 37.7582 30.0126C37.9343 30.0742 38.1192 30.1447 38.3305 30.2151C39.3518 30.5408 40.2586 30.6641 41.0069 30.5937C41.2446 27.9613 41.632 26.0244 42.125 25.4873C42.4243 25.1528 42.8469 25.0383 43.2431 25.1616C44.731 25.637 45.4793 27.6267 44.8719 29.5196C44.5197 30.6377 43.7361 31.5093 42.6621 31.9759C42.2835 38.0242 42.4772 47.4357 44.1587 51.3623C44.3524 51.8113 44.1411 52.3308 43.6921 52.5156C43.2431 52.7093 42.7237 52.498 42.5388 52.049C40.8748 48.14 40.4787 38.887 40.866 32.3633C39.9504 32.4073 38.9204 32.2488 37.7934 31.8878C37.4149 31.7646 37.0715 31.6413 36.7634 31.5093C35.9358 32.5129 34.9233 33.138 33.8669 33.4638C34.5976 35.1982 35.4428 37.54 36.42 40.7007C38.1896 46.4233 39.6071 52.2691 39.6159 52.3219C39.7303 52.7974 39.4398 53.2728 38.9644 53.3872C38.8059 53.4224 38.6386 53.4136 38.489 53.3696L38.4978 53.3784ZM28.9982 30.8842C29.1743 31.1395 29.861 31.6677 31.0408 31.8967C31.1024 31.9055 31.164 31.9231 31.2345 31.9319C30.8207 31.1747 30.4597 30.6905 30.1516 30.5584C29.4384 30.6465 29.1215 30.805 28.9982 30.8842ZM43.1991 27.4242C43.0758 27.9701 42.9614 28.736 42.8645 29.6604C43.0406 29.4315 43.1463 29.185 43.2079 28.9825C43.3928 28.4015 43.3488 27.8292 43.1991 27.4242Z" fill="#008297"/>
<path d="M33.4795 43.9405C33.4267 43.9229 33.3738 43.8965 33.3298 43.8613C28.5404 39.8114 25.1949 33.05 24.7899 26.6318C24.2793 18.3473 31.9828 15.4508 32.062 15.4155C32.2909 15.3363 32.5463 15.4508 32.6255 15.6797C32.7047 15.9086 32.5903 16.1639 32.3614 16.2431C32.0708 16.3488 25.1949 18.9547 25.6703 26.5702C26.0577 32.7594 29.28 39.2832 33.8933 43.1834C34.0782 43.3418 34.1046 43.6148 33.9461 43.7997C33.8316 43.9405 33.638 43.9845 33.4795 43.9317V43.9405Z" fill="#008297"/>
<path d="M45.5234 38.0859C45.2945 38.0154 45.1624 37.7689 45.2328 37.54C45.2592 37.4432 48.0765 27.6091 45.4177 22.1154C42.8646 16.8418 39.0084 16.5337 37.4765 16.6481C37.2388 16.6657 37.0187 16.4808 37.0011 16.2431C36.9835 15.9966 37.1684 15.7941 37.4061 15.7677C39.1228 15.6444 43.4192 15.9702 46.2101 21.728C49.0186 27.5299 46.2013 37.3639 46.078 37.7865C46.0076 38.0242 45.7611 38.1563 45.5322 38.0859H45.5234Z" fill="#008297"/>
<path d="M17.4914 19.7559L8.56415 16.4632C8.10634 16.2959 7.87744 15.7853 8.04471 15.3363C8.21199 14.8785 8.74023 14.676 9.17162 14.8168L18.0637 18.1007C18.5215 18.268 18.7504 18.7786 18.5831 19.2276C18.4158 19.6678 17.9404 19.9056 17.4914 19.7647V19.7559Z" fill="#008297"/>
<path d="M26.63 11.3393C26.4187 11.2688 26.2338 11.128 26.1193 10.9167L21.7614 2.8434C21.5324 2.41201 21.6909 1.88376 22.1135 1.65486C22.5361 1.42596 23.0731 1.58443 23.3021 2.00702L27.6688 10.0891C27.8977 10.5205 27.7393 11.0487 27.3167 11.2776C27.0966 11.3921 26.8501 11.4097 26.63 11.3393Z" fill="#008297"/>
<path d="M30.7856 9.88628C30.3278 9.73661 30.0725 9.25239 30.2045 8.79458C30.3014 8.30156 29.9492 5.88926 29.553 3.94357C29.4562 3.46816 29.7643 3.00154 30.2397 2.9047C30.7151 2.80786 31.1818 3.116 31.2786 3.59141C31.6308 5.33461 32.1766 8.3984 31.8861 9.31402C31.7364 9.78063 31.2434 10.0359 30.7768 9.88628H30.7856Z" fill="#008297"/>
<path d="M48.684 15.3363C48.6048 15.3099 48.5255 15.2747 48.4551 15.2219C48.0501 14.9489 47.9533 14.4031 48.2262 13.9981L53.403 6.40906C53.6759 6.00407 54.2305 5.90723 54.6267 6.18015C55.0317 6.45307 55.1285 6.99892 54.8556 7.40391L49.6789 14.993C49.45 15.3187 49.045 15.4508 48.684 15.3363Z" fill="#008297"/>
</svg>
