<svg width="63" height="62" viewBox="0 0 63 62" fill="none" xmlns="http://www.w3.org/2000/svg">
<path d="M31.3975 50.2148C48.8118 30.6963 42.1207 11.486 42.1207 11.486C22.0036 -4.21157 14.5642 14.0391 16.6067 27.1043C18.6493 40.1782 31.3975 50.2148 31.3975 50.2148ZM20.366 22.3149C19.8466 16.5571 28.2897 13.1323 28.2897 13.1323C28.2897 13.1323 35.5882 14.0391 34.1971 21.3641C32.8061 28.689 21.2464 32.0081 20.366 22.3149Z" fill="#7DB3B4"/>
<path d="M31.0189 50.8575C30.878 50.7782 17.1438 42.4673 15.4622 24.1461C14.7667 16.5571 17.1174 10.5527 22.074 7.26004C26.5288 4.29309 32.5068 4.03778 37.3049 6.59094C41.8654 9.02084 44.4978 13.5549 44.533 19.0222C44.6299 37.449 32.0578 50.6022 31.9345 50.7342C31.8553 50.8135 31.7584 50.8751 31.6616 50.9103C31.4591 50.9895 31.2214 50.9719 31.0189 50.8575ZM22.9016 8.50141C18.4115 11.486 16.2986 16.9885 16.9501 24.0141C18.3851 39.5707 28.8443 47.5824 31.283 49.2463C33.4224 46.8341 43.1332 34.9751 43.0452 19.031C43.0187 14.1272 40.6769 10.0685 36.6094 7.90273C33.1583 6.0627 29.038 5.8426 25.4812 7.18081C24.5832 7.51536 23.7116 7.95556 22.9016 8.4926V8.50141Z" fill="#2D7172"/>
<path d="M31.6616 50.9191C31.6616 50.9191 31.7056 50.9015 31.7232 50.8927C37.1641 48.2779 42.2264 41.2787 45.255 32.1666C48.0106 23.8732 48.4332 15.9056 46.329 11.8645C41.9535 3.48312 30.4818 4.81252 29.9976 4.87415C29.5926 4.92698 29.3021 5.29674 29.3549 5.70173C29.4077 6.10671 29.7775 6.39724 30.1825 6.35322C30.2881 6.33562 41.1171 5.09425 45.0084 12.56C46.9101 16.2049 46.4435 23.8996 43.8463 31.7088C40.941 40.4423 36.1692 47.1158 31.0805 49.5633C30.7107 49.7394 30.5523 50.1884 30.7283 50.5581C30.8956 50.9103 31.3006 51.0688 31.6616 50.9367V50.9191Z" fill="#2D7172"/>
<path d="M26.5729 29.9303C25.5076 29.9743 23.8788 29.5253 22.479 28.1431C21.2993 26.9722 19.917 24.736 20.0491 20.7037C20.3132 12.6481 28.3777 12.4016 28.4745 12.4016C28.6066 12.4016 31.8024 12.4368 33.8274 14.7258C35.1216 16.1961 35.6234 18.221 35.3064 20.7477C34.6285 26.2414 31.7496 28.4601 29.3813 29.3493C28.2104 29.7895 27.1627 29.9039 26.5729 29.9303ZM21.537 20.7566C21.4225 24.2429 22.5582 26.1182 23.5267 27.0778C24.5215 28.0639 25.7453 28.4689 26.5112 28.4336C28.0079 28.372 32.9558 27.6061 33.8362 20.5629C34.0915 18.4851 33.7217 16.8564 32.7269 15.7207C31.195 13.9775 28.633 13.8982 28.4833 13.8894C28.0783 13.8982 21.7571 14.1624 21.5458 20.7477L21.537 20.7566Z" fill="#2D7172"/>
<path d="M31.1068 28.2659C31.3357 28.1779 31.5118 27.9842 31.5734 27.7289C31.6615 27.3239 31.415 26.9277 31.01 26.8397C30.7811 26.7869 25.4458 25.5191 25.3578 20.9146C25.261 16.1516 28.7297 13.8714 28.8794 13.7833C29.2228 13.5632 29.3284 13.0966 29.1083 12.7533C28.8882 12.4099 28.4304 12.3043 28.0782 12.5244C27.9022 12.6388 23.7555 15.324 23.8699 20.9498C23.9668 25.5807 28.3688 27.7817 30.693 28.3011C30.8427 28.3364 30.9836 28.3188 31.1156 28.2747L31.1068 28.2659Z" fill="#2D7172"/>
<path d="M25.7806 29.6483C25.851 29.6219 25.9214 29.5867 25.9831 29.5338L28.862 27.2272C29.1877 26.9719 29.2318 26.4965 28.9764 26.1795C28.7211 25.8626 28.2457 25.8009 27.9288 26.0651L25.0498 28.3717C24.7241 28.627 24.6801 29.1024 24.9354 29.4194C25.1379 29.6747 25.4812 29.7627 25.7806 29.6483Z" fill="#2D7172"/>
<path d="M22.162 18.1502L26.2294 16.4158C26.608 16.2573 26.7841 15.8171 26.6256 15.4386C26.4672 15.06 26.0446 14.8751 25.6484 15.0424L21.6161 16.7592C21.2376 16.9176 21.0615 17.3578 21.22 17.7364C21.3784 18.1062 21.7922 18.2822 22.1708 18.1414L22.162 18.1502Z" fill="#2D7172"/>
<path d="M44.9116 11.442C45.2726 11.3099 45.4751 10.9137 45.3606 10.5352C45.2462 10.139 44.8324 9.91887 44.4362 10.0333L41.9094 10.7817C41.5221 10.8961 41.2932 11.3099 41.4076 11.7061C41.5221 12.1023 41.9359 12.3224 42.332 12.2079L44.8588 11.4596C44.8588 11.4596 44.894 11.4508 44.9116 11.442Z" fill="#2D7172"/>
<path d="M46.0561 13.8721C46.3994 13.74 46.6107 13.3703 46.5139 13.0005C46.417 12.5955 46.012 12.349 45.6159 12.4458L42.6137 13.1678C42.2175 13.2646 41.9622 13.6696 42.0591 14.0658C42.1559 14.4708 42.5609 14.7173 42.9571 14.6204L45.9592 13.8985C45.9592 13.8985 46.0209 13.8809 46.0473 13.8721H46.0561Z" fill="#2D7172"/>
<path d="M19.063 54.9689C18.0242 54.4055 17.4959 53.7452 17.4695 52.9792C17.3991 50.6021 22.4614 48.63 25.0762 48.2779C25.3579 48.2427 25.6132 48.4363 25.6485 48.7181C25.6837 48.9998 25.49 49.2551 25.2083 49.2903C22.3998 49.6601 18.4468 51.6146 18.4908 52.944C18.5084 53.4898 19.4064 55.3123 30.2794 56.087C40.043 56.7825 42.3937 54.4847 42.9571 53.4546C43.5558 52.3629 43.0011 51.3505 42.6226 50.8398C41.7598 49.6777 39.8757 48.63 37.8068 49.079C37.5339 49.1407 37.2609 48.9646 37.1993 48.6829C37.1377 48.4099 37.3138 48.137 37.5955 48.0754C39.7525 47.6088 42.156 48.498 43.4501 50.2236C44.3481 51.4297 44.4978 52.7855 43.8639 53.9476C43.054 55.4355 40.2015 57.8214 30.2177 57.1083C24.6976 56.7121 20.9999 56.0078 19.0719 54.9601L19.063 54.9689Z" fill="#2D7172"/>
</svg>
