<svg width="63" height="62" viewBox="0 0 63 62" fill="none" xmlns="http://www.w3.org/2000/svg">
<g clip-path="url(#clip0_18_693)">
<path d="M31.5393 34.7833C31.5393 34.7833 39.6918 45.0311 44.578 33.6211C49.4643 22.2111 34.6119 19.9573 31.5393 28.0306C29.6729 32.9168 31.5393 34.7833 31.5393 34.7833Z" fill="#7DB3B4"/>
<path d="M39.5159 55.5162C38.6443 55.613 52.7923 54.8206 57.5025 47.1347C62.2214 39.4488 63.093 20.2385 52.7836 15.0001C52.7836 15.0001 62.5648 27.7483 58.198 38.5773C53.8313 49.4062 45.7932 54.8206 39.5071 55.5162H39.5159Z" fill="#7DB3B4"/>
<path d="M38.1512 55.6045C35.5012 55.6045 32.8864 55.041 30.4301 53.9053C20.1294 49.1512 15.6306 35.8131 20.3936 24.1654C22.8411 18.1787 27.4455 13.4861 33.0273 11.2939C37.9135 9.37466 43.1607 9.48911 47.8004 11.6373C58.1011 16.3915 62.5999 29.7295 57.837 41.3772C55.3894 47.3639 50.785 52.0565 45.2032 54.2487C42.8966 55.1555 40.5195 55.6045 38.1512 55.6045ZM40.0793 11.3291C37.8871 11.3291 35.6773 11.7517 33.5467 12.5881C28.3172 14.6483 24.0032 19.0591 21.6965 24.6936C17.2065 35.6546 21.3884 48.1915 31.02 52.6375C35.3163 54.6184 40.1673 54.7241 44.6926 52.9457C49.9222 50.8855 54.2361 46.4747 56.5428 40.8402C61.0328 29.8792 56.8509 17.3423 47.2193 12.8963C44.9567 11.8486 42.5356 11.3291 40.0793 11.3291Z" fill="#2D7172"/>
<path d="M38.1512 50.5601C35.9678 50.5601 33.802 50.0935 31.7771 49.1602C23.2812 45.2425 19.5747 34.2463 23.5013 24.6499C25.5174 19.7196 29.312 15.8459 33.9165 14.0411C37.9487 12.4563 42.2714 12.5532 46.11 14.3228C54.6059 18.2406 58.3124 29.2368 54.3858 38.8331C52.3697 43.7634 48.5751 47.6371 43.9706 49.442C42.069 50.1903 40.1057 50.5601 38.1512 50.5601ZM39.7271 14.314C37.9487 14.314 36.1527 14.6573 34.4183 15.3352C30.1748 17.008 26.662 20.5912 24.7867 25.1781C21.1419 34.0966 24.5314 44.2828 32.3581 47.8925C35.8445 49.5036 39.7799 49.5916 43.4512 48.139C47.6947 46.4662 51.2075 42.883 53.0828 38.2961C56.7365 29.3776 53.3381 19.1914 45.5113 15.5818C43.6713 14.7366 41.708 14.3052 39.7183 14.3052L39.7271 14.314Z" fill="#2D7172"/>
<path d="M37.6054 44.6787C36.0206 44.6787 34.4447 44.3354 32.9744 43.6574C26.8204 40.8138 24.1264 32.8549 26.9701 25.9086C28.4316 22.3429 31.1784 19.5433 34.5151 18.2315C37.4381 17.0782 40.5899 17.1486 43.372 18.434C49.526 21.2777 52.22 29.2365 49.3763 36.1828C47.9148 39.7485 45.168 42.5481 41.8313 43.8599C40.449 44.4058 39.0228 44.6699 37.6054 44.6699V44.6787ZM38.7323 18.8213C37.4909 18.8213 36.2319 19.0591 35.0258 19.5345C32.05 20.7054 29.5849 23.2233 28.2643 26.4456C25.7024 32.7053 28.0794 39.8629 33.5643 42.3897C36.003 43.5166 38.7587 43.5782 41.3207 42.5658C44.2964 41.3948 46.7615 38.8769 48.0821 35.6546C50.6441 29.395 48.267 22.2373 42.7821 19.7106C41.4967 19.1207 40.1233 18.8213 38.7323 18.8213Z" fill="#2D7172"/>
<path d="M37.6142 39.5641C36.5929 39.5641 35.5805 39.344 34.6296 38.9038C30.6854 37.0813 28.951 31.9926 30.7647 27.5554C31.6979 25.2752 33.4587 23.4879 35.5893 22.6428C37.4733 21.9032 39.4982 21.9472 41.2943 22.7748C45.2385 24.5972 46.9729 29.686 45.1592 34.1232C44.226 36.4034 42.4652 38.1906 40.3346 39.0358C39.4454 39.388 38.5298 39.5553 37.6142 39.5553V39.5641ZM38.3097 23.5232C37.5702 23.5232 36.8218 23.664 36.1087 23.9457C34.3303 24.6501 32.8512 26.1556 32.0677 28.0836C30.527 31.8341 31.9444 36.1217 35.2195 37.636C36.6633 38.3051 38.3009 38.3403 39.824 37.7416C41.6024 37.0373 43.0815 35.5318 43.865 33.6037C45.4057 29.8532 43.9883 25.5657 40.7132 24.0514C39.9561 23.6992 39.1373 23.5232 38.3185 23.5232H38.3097Z" fill="#2D7172"/>
<path d="M40.0706 28.4356C41.2767 29.8179 41.2239 32.0013 39.9649 33.2955C38.7059 34.5896 36.6986 34.528 35.4925 33.1458C34.2863 31.7636 34.3392 29.5802 35.5982 28.286C36.8571 26.9918 38.8644 27.0534 40.0706 28.4356Z" fill="#2D7172"/>
<path d="M38.1952 31.3494C38.0719 31.3494 37.9399 31.3142 37.8254 31.2438C37.6582 31.1381 25.1917 23.373 15.6393 17.3687C14.2835 17.4567 13.0246 18.6893 13.0158 18.7069C12.7957 18.927 12.4435 18.971 12.1706 18.8213C7.19632 15.9688 1.53533 15.8896 1.4737 15.8896C1.2624 15.8896 1.06873 15.7928 0.936666 15.6343C0.804606 15.4758 0.751778 15.2557 0.795798 15.0532C1.05992 13.7766 4.3086 12.4032 6.82655 11.5228C5.4091 9.69158 5.39149 6.71582 5.39149 6.56616C5.39149 6.31084 5.52355 6.08194 5.74365 5.95868C5.96375 5.83542 6.23669 5.83542 6.44798 5.96748L15.0759 11.1971C15.2696 11.3203 15.4017 11.5228 15.4105 11.7517C15.5073 13.5125 16.8455 16.3826 16.8543 16.409C16.8719 16.4443 16.8807 16.4795 16.8895 16.5147C26.3714 22.475 38.3977 29.9672 38.5562 30.0729C38.8819 30.2753 38.9876 30.7067 38.7763 31.0325C38.6442 31.2438 38.4153 31.3582 38.1864 31.3582L38.1952 31.3494ZM3.17289 14.5954C5.25064 14.8155 8.91308 15.4582 12.4259 17.3511C12.778 17.0605 13.3503 16.6555 14.037 16.3562C11.7216 14.8947 9.64382 13.5829 8.05029 12.5705C6.087 13.222 4.26459 13.9967 3.17289 14.5954ZM8.52571 11.2147C10.1633 12.2623 12.3731 13.6622 14.8558 15.2205C14.5124 14.3049 14.1603 13.1692 14.0458 12.1919L6.89697 7.86034C7.08185 9.06649 7.53966 10.5808 8.5169 11.2059L8.52571 11.2147Z" fill="#2D7172"/>
<path d="M40.8716 56.1151C36.989 56.1151 34.1541 55.2083 34.0837 55.1907C33.7139 55.0675 33.5202 54.6713 33.6435 54.3103C33.7668 53.9405 34.1629 53.7469 34.5239 53.8701C35.2018 54.0902 51.2515 59.1613 58.418 43.05C62.1597 34.6334 60.8567 28.0392 59.0959 23.9893C57.0357 19.2351 53.0563 15.2469 48.9449 13.8207C48.5839 13.6974 48.3902 13.2924 48.5135 12.9315C48.6367 12.5705 49.0417 12.3768 49.4027 12.5001C53.928 14.076 58.1362 18.2579 60.3725 23.4347C62.2389 27.7398 63.6388 34.739 59.6858 43.6222C55.0461 54.0462 46.7527 56.1327 40.8628 56.1327L40.8716 56.1151Z" fill="#2D7172"/>
<path d="M59.2368 23.6632C59.1135 23.6632 58.9815 23.628 58.867 23.5576L56.4459 22.0433C56.1202 21.8408 56.0233 21.4094 56.2258 21.0837C56.4283 20.7579 56.8597 20.6523 57.1854 20.8636L59.6065 22.3779C59.9323 22.5803 60.0291 23.0117 59.8266 23.3375C59.6946 23.5488 59.4657 23.6632 59.2368 23.6632Z" fill="#2D7172"/>
<path d="M60.4518 26.5336C60.3725 26.5336 60.2933 26.516 60.214 26.4896L58.1011 25.7325C57.7401 25.6004 57.5464 25.2042 57.6785 24.8433C57.8105 24.4823 58.2067 24.2886 58.5677 24.4207L60.6807 25.1778C61.0416 25.3099 61.2353 25.7061 61.1033 26.067C60.9976 26.3487 60.7335 26.5336 60.443 26.5336H60.4518Z" fill="#2D7172"/>
</g>
<defs>
<clipPath id="clip0_18_693">
<rect width="62" height="62" fill="white" transform="translate(0.5)"/>
</clipPath>
</defs>
</svg>
