<svg width="39" height="19" viewBox="0 0 39 19" fill="none" xmlns="http://www.w3.org/2000/svg">
<path d="M38.5074 8.56083C38.5234 8.63633 38.5393 8.71184 38.5341 8.79968C38.5462 9.14885 38.382 9.47686 38.1118 9.69156C36.7797 10.72 30.0861 15.8536 28.8204 16.3965C28.5017 16.5378 28.1278 16.5078 27.8209 16.3312C27.5139 16.1546 27.329 15.8387 27.2944 15.4801L26.2437 1.87838C26.2157 1.4537 26.4192 1.05748 26.7882 0.847205C27.1571 0.636934 27.6071 0.661919 27.9511 0.901707L38.0621 7.94494C38.2798 8.09463 38.4372 8.32485 38.498 8.58332L38.5074 8.56083ZM29.34 13.4968C30.8245 12.4582 33.2329 10.6697 35.5963 8.86231L28.603 3.98662L29.3393 13.4859L29.34 13.4968Z" fill="white"/>
<path d="M28.9008 10.3206C28.916 10.3852 28.9319 10.4607 28.9369 10.5369C28.9655 11.1366 28.4962 11.6488 27.8966 11.6774L3.32612 12.741C2.96677 12.7648 2.62715 12.5903 2.41174 12.3092C2.01646 11.7885 0.100364 9.10414 0.686125 7.04217C0.845486 6.47388 1.26558 5.71339 2.35331 5.29163C5.15901 4.2206 23.46 5.93305 27.1032 6.28322C27.7086 6.3417 28.1372 6.87119 28.0787 7.47658C28.0195 8.07107 27.4908 8.51063 26.8854 8.45215C16.5604 7.44922 4.73268 6.70952 3.13304 7.32911C2.84477 7.43563 2.80912 7.55829 2.78148 7.63667C2.59448 8.28334 3.21717 9.59842 3.83648 10.5309L27.8066 9.48504C28.33 9.46143 28.7908 9.81382 28.9109 10.309L28.9008 10.3206Z" fill="white"/>
</svg>
