<svg width="39" height="17" viewBox="0 0 39 17" fill="none" xmlns="http://www.w3.org/2000/svg">
<path d="M12.2445 1.70098C12.2772 1.82103 12.2881 1.94107 12.2772 2.07203L11.2296 15.6807C11.1968 16.0299 11.0113 16.3464 10.7057 16.5319C10.4002 16.7174 10.0291 16.7392 9.71265 16.5974C8.44673 16.0517 1.74609 10.9225 0.425611 9.89672C0.152783 9.67845 0 9.35106 0 9.00184C0 8.65262 0.185523 8.33614 0.469263 8.12879L10.5748 1.08985C10.924 0.84976 11.3714 0.827934 11.7425 1.03528C11.9935 1.17715 12.179 1.41724 12.2554 1.70098H12.2445ZM9.19974 13.6945L9.93091 4.18917L2.93562 9.06732C5.30376 10.868 7.70464 12.6577 9.19974 13.6945Z" fill="white"/>
<path d="M37.9884 7.2882C38.545 9.35078 36.5916 12.0136 36.1878 12.5265C35.9695 12.8102 35.6203 12.963 35.2602 12.9412L10.7057 11.5552C10.1055 11.5225 9.64713 11.0096 9.67987 10.4093C9.71261 9.80913 10.2255 9.35078 10.8257 9.38352L34.78 10.7367C35.402 9.80913 36.0459 8.49956 35.8713 7.85569C35.8495 7.77929 35.8167 7.65925 35.533 7.53921C33.9397 6.90625 22.099 7.48464 11.7643 8.35769C11.1641 8.41225 10.6293 7.96482 10.5857 7.3646C10.5311 6.76438 10.9785 6.24055 11.5788 6.18598C15.2237 5.88042 33.5468 4.40715 36.3296 5.52028C37.41 5.94589 37.8138 6.72072 37.9666 7.2882H37.9884Z" fill="white"/>
</svg>
