<svg width="301" height="227" viewBox="0 0 301 227" fill="none" xmlns="http://www.w3.org/2000/svg">
<g clip-path="url(#clip0_135_102)">
<path d="M127.146 119.741C132.983 119.715 156.335 120.655 167.281 121.128L177.823 147.715L189.451 184.219L147.752 182.839L145.107 173.973L147.701 171.35L148.208 168.214L148.199 166.125L148.711 164.034L148.18 161.948C148.348 160.554 148.371 157.873 147.122 158.297C145.873 158.72 141.39 158.496 139.305 158.332C136.309 148.771 129.683 127.667 127.146 119.741Z" fill="#4AB2C2"/>
<path d="M213.652 95.0982C213.652 95.0982 206.854 101.055 196.875 99.9164C186.897 98.7776 182.399 80.1782 193.373 72.8473C204.346 65.5164 224.468 75.1764 213.652 95.0982Z" fill="#4AB2C2"/>
<path d="M210.391 134.55L212.416 134.57L211.743 201.62L209.718 201.6L210.391 134.55Z" fill="#008297"/>
<path d="M235.176 158.131C235.51 158.13 235.843 157.957 236.034 157.652C241.413 149.021 243.325 137.261 243.404 136.765C243.492 136.218 243.115 135.694 242.558 135.605C242.011 135.507 241.486 135.893 241.397 136.45C241.378 136.572 239.466 148.312 234.308 156.588C234.017 157.065 234.161 157.681 234.628 157.982C234.801 158.083 234.983 158.132 235.166 158.131L235.176 158.131Z" fill="#008297"/>
<path d="M130.49 162.745C131.037 162.742 131.481 162.305 131.499 161.759C131.687 154.041 136.942 151.763 137.164 151.671C137.68 151.456 137.92 150.868 137.715 150.353C137.5 149.838 136.912 149.588 136.397 149.803C136.124 149.915 129.686 152.624 129.463 161.718C129.445 162.274 129.893 162.737 130.45 162.755L130.48 162.755L130.49 162.745Z" fill="#008297"/>
<path d="M201.875 101.744C210.836 101.704 218.094 94.3896 218.054 85.4391C218.014 76.4886 210.691 69.2393 201.73 69.2793C192.77 69.3192 185.512 76.6335 185.552 85.5841C185.592 94.5346 192.914 101.784 201.875 101.744ZM201.739 71.302C209.586 71.267 215.994 77.6101 216.029 85.4481C216.064 93.2862 209.713 99.6862 201.866 99.7212C194.019 99.7562 187.612 93.4131 187.577 85.575C187.542 77.737 193.892 71.337 201.739 71.302Z" fill="#008297"/>
<path d="M201.896 106.477C213.469 106.426 222.844 96.9782 222.792 85.4184C222.74 73.8585 213.282 64.4949 201.709 64.5465C190.136 64.5981 180.762 74.0458 180.813 85.6056C180.865 97.1654 190.323 106.529 201.896 106.477ZM201.718 66.5793C212.177 66.5327 220.72 74.9902 220.767 85.4375C220.814 95.8848 212.346 104.418 201.887 104.465C191.428 104.511 182.885 96.054 182.838 85.6067C182.792 75.1593 191.259 66.626 201.718 66.5793Z" fill="#008297"/>
<path d="M215.978 121.727C216.13 121.727 216.292 121.686 216.433 121.614C216.777 121.441 216.988 121.086 216.986 120.712L216.961 115.028C216.96 114.886 216.929 114.745 216.878 114.624L212.03 103.753C211.805 103.248 211.206 103.018 210.691 103.243C210.186 103.468 209.956 104.065 210.181 104.58L214.947 115.249L214.962 118.698L212.676 116.999L207.236 105.028C207.001 104.523 206.403 104.294 205.897 104.528C205.392 104.763 205.162 105.361 205.397 105.866L210.95 118.068C211.021 118.22 211.133 118.361 211.265 118.461L215.39 121.528C215.573 121.658 215.786 121.728 215.998 121.727L215.978 121.727Z" fill="#008297"/>
<path d="M231.797 131.527C232.141 131.526 232.484 131.342 232.665 131.028C232.947 130.541 232.782 129.925 232.305 129.644C232.244 129.614 226.417 126.171 225.529 122.382C224.951 119.927 223.151 118.104 221.564 116.493C220.211 115.124 218.929 113.835 218.782 112.501C218.603 110.924 217.858 109.744 216.793 109.344C216.063 109.064 215.294 109.209 214.729 109.717C213.923 110.439 213.685 111.734 214.087 113.28C214.231 113.826 214.779 114.147 215.315 114.003C215.862 113.859 216.183 113.311 216.049 112.776C215.792 111.786 215.982 111.289 216.083 111.218C216.174 111.238 216.641 111.62 216.778 112.732C217.01 114.754 218.525 116.284 220.132 117.916C221.607 119.406 223.123 120.936 223.567 122.836C224.65 127.483 231.026 131.237 231.3 131.388C231.462 131.478 231.635 131.528 231.817 131.527L231.797 131.527Z" fill="#008297"/>
<path d="M213.786 125.256C214.039 125.255 214.292 125.163 214.494 124.97C214.897 124.584 214.904 123.936 214.508 123.544C213.379 122.396 210.296 119.031 209.549 117.285C208.965 115.922 210.147 115.28 210.38 115.168C210.885 114.923 211.095 114.325 210.86 113.82C210.614 113.316 210.006 113.106 209.511 113.341C208.228 113.953 206.686 115.72 207.689 118.072C208.743 120.535 212.893 124.785 213.066 124.956C213.269 125.157 213.533 125.257 213.796 125.256L213.786 125.256Z" fill="#008297"/>
<path d="M211.349 128.2C211.612 128.199 211.885 128.096 212.087 127.883C212.47 127.477 212.447 126.84 212.04 126.457C212.02 126.437 209.854 124.384 208.85 121.718C208.009 119.497 209.24 118.47 209.25 118.46C209.684 118.104 209.752 117.476 209.406 117.033C209.049 116.599 208.421 116.531 207.977 116.877C207.877 116.959 205.597 118.85 206.949 122.424C208.138 125.534 210.547 127.819 210.649 127.92C210.842 128.101 211.096 128.191 211.349 128.19L211.349 128.2Z" fill="#008297"/>
<path d="M210.256 130.52C210.812 130.518 211.266 130.061 211.264 129.504C211.261 129.029 210.926 128.626 210.469 128.527C210.317 128.447 209.586 127.944 208.148 125.685C206.588 123.234 207.85 122.298 207.86 122.288C208.314 121.962 208.422 121.335 208.096 120.881C207.77 120.428 207.142 120.319 206.688 120.645C205.699 121.347 204.382 123.538 206.442 126.775C208.033 129.276 209.314 130.534 210.256 130.53L210.256 130.52Z" fill="#008297"/>
<path d="M227.97 147.524C228.203 147.523 228.425 147.441 228.617 147.288C229.041 146.933 229.098 146.295 228.742 145.862C228.528 145.61 223.429 139.564 219.735 137.831C213.221 134.765 208.035 129.691 206.821 127.775C205.944 126.393 206.929 124.7 206.939 124.68C207.23 124.203 207.076 123.577 206.599 123.296C206.121 123.004 205.494 123.159 205.203 123.636C205.132 123.747 203.565 126.404 205.105 128.855C206.461 131.003 211.902 136.39 218.873 139.666C222.16 141.209 227.138 147.103 227.189 147.163C227.392 147.405 227.676 147.525 227.97 147.524Z" fill="#008297"/>
<path d="M218.786 122.614C219.323 122.612 219.767 122.195 219.795 121.649C219.823 121.092 219.395 120.619 218.838 120.591C218.788 120.591 216.853 120.448 215.46 119.069C215.063 118.676 214.425 118.679 214.032 119.075C213.639 119.471 213.642 120.108 214.038 120.501C216.011 122.454 218.624 122.594 218.736 122.604C218.756 122.604 218.776 122.604 218.786 122.604L218.786 122.614Z" fill="#008297"/>
<path d="M283.03 160.77C283.303 160.768 283.576 160.656 283.778 160.443C284.15 160.026 284.127 159.389 283.71 159.017C279.43 155.102 234.534 129.947 232.615 128.873C232.331 128.712 231.997 128.704 231.704 128.837C231.411 128.969 231.199 129.233 231.13 129.547C229.672 136.482 227.772 143.974 226.481 147.469C226.65 146.69 226.889 145.789 227.179 144.928C227.348 144.401 227.062 143.826 226.535 143.656C225.998 143.487 225.432 143.772 225.262 144.299C223.464 149.768 224.45 150.674 224.776 150.976C224.979 151.167 225.548 151.569 226.437 151.191C228.357 150.384 230.924 140.228 232.839 131.309C249.242 140.511 279.137 157.571 282.35 160.499C282.543 160.681 282.797 160.771 283.04 160.769L283.03 160.77Z" fill="#008297"/>
<path d="M283.732 184.231C288.045 184.212 291.773 182.284 294.409 178.641C300.014 170.899 299.5 157.653 293.128 145.666C287.012 134.164 264.699 96.4071 234.25 93.7111C233.683 93.663 233.199 94.0697 233.151 94.6262C233.103 95.1827 233.51 95.6764 234.067 95.7245C257.466 97.8047 278.995 123.378 291.34 146.615C298.284 159.691 297.061 171.53 292.764 177.455C290.026 181.24 286.074 182.825 281.342 182.007C266.933 179.543 227.038 149.743 226.632 149.452C226.185 149.12 225.547 149.204 225.215 149.65C224.883 150.097 224.967 150.734 225.414 151.065C227.07 152.302 266.111 181.458 280.997 184.001C281.929 184.158 282.841 184.235 283.732 184.231Z" fill="#008297"/>
<path d="M239.365 39.55C239.811 39.548 240.214 39.2529 240.334 38.8074C240.424 38.4732 242.616 30.5039 241.093 20.498C240.258 14.9998 236.763 9.96864 231.738 7.03783C228.448 5.12076 225.175 4.54876 222.739 5.46987C222.679 5.49037 222.628 5.52093 222.578 5.5515C220.396 6.87602 215.44 10.2357 216.677 12.88C216.759 13.0414 216.881 13.1926 217.033 13.2931C217.226 13.4237 221.755 16.4477 225.903 17.9159C229.503 19.1945 238.93 30.5507 238.348 38.442C238.31 38.958 238.666 39.4216 239.183 39.5103C239.244 39.5202 239.304 39.53 239.365 39.5298L239.365 39.55ZM225.227 7.07698C226.847 7.06975 228.784 7.66794 230.723 8.79204C234.195 10.8195 238.213 15.0292 239.089 20.8104C239.757 25.217 239.674 29.2528 239.373 32.3287C236.84 24.9671 230.234 17.3201 226.583 16.0317C223.298 14.8631 219.622 12.5735 218.505 11.8503C218.653 11.0709 220.781 9.03866 223.548 7.34743C224.043 7.17328 224.61 7.07973 225.217 7.07702L225.227 7.07698Z" fill="#008297"/>
<path d="M207.674 16.9648C208.706 16.9602 209.769 16.8341 210.861 16.5662C216.839 15.1135 218.049 13.9451 218.45 13.1948C218.641 12.8299 218.68 12.4353 218.557 12.1021C218.362 11.577 217.774 11.3167 217.248 11.5213C216.894 11.6544 216.663 11.9588 216.604 12.303C216.352 12.5468 215.171 13.432 210.377 14.5962C205.866 15.6985 201.726 13.8965 200.127 11.6381C199.536 10.8114 199.014 9.54954 199.879 8.21067C200.18 7.74409 200.046 7.11763 199.579 6.8163C199.112 6.51497 198.484 6.64925 198.183 7.11583C197.046 8.87058 197.147 10.9435 198.481 12.8086C200.112 15.0971 203.573 16.973 207.674 16.9547L207.674 16.9648Z" fill="#008297"/>
<path d="M202.461 10.616C202.775 10.6146 203.078 10.4717 203.269 10.2079C203.3 10.1673 206.39 6.08776 212.418 4.69551C218.346 3.33405 223.253 7.02393 223.303 7.05404C223.75 7.39592 224.378 7.31221 224.72 6.86567C225.062 6.41914 224.979 5.79246 224.542 5.45054C224.308 5.26953 218.862 1.13705 211.964 2.71523C205.177 4.27269 201.775 8.80873 201.634 9.00152C201.302 9.44801 201.396 10.0848 201.853 10.4165C202.036 10.5471 202.249 10.617 202.451 10.6161L202.461 10.616Z" fill="#008297"/>
<path d="M199.312 22.0997C199.768 22.0977 200.234 22.0653 200.709 21.9924C207.873 20.9086 209.546 16.7848 209.616 16.6024C209.816 16.0857 209.56 15.5003 209.033 15.2903C208.516 15.0903 207.929 15.3457 207.729 15.8624C207.669 16.0144 206.306 19.0951 200.407 19.9811C197.786 20.3771 195.544 19.3959 194.665 17.4782C193.714 15.399 194.654 12.8057 197.125 10.7112C197.549 10.3453 197.607 9.70783 197.24 9.28469C196.884 8.8615 196.236 8.80371 195.812 9.16969C192.009 12.4028 191.772 16.0145 192.825 18.3158C193.909 20.6978 196.376 22.1027 199.312 22.0896L199.312 22.0997Z" fill="#008297"/>
<path d="M196.563 27.7143C201.403 27.6927 203.945 23.292 204.623 20.9325C204.773 20.3958 204.466 19.8409 203.929 19.6815C203.392 19.5322 202.836 19.8381 202.677 20.3748C202.617 20.5976 201.09 25.6714 196.564 25.6916C196.504 25.6918 196.443 25.6921 196.382 25.6924C191.886 25.581 191.651 20.5656 191.65 20.3532C191.627 19.797 191.149 19.3643 190.603 19.3768C190.046 19.3995 189.603 19.8566 189.625 20.4128C189.697 22.8802 191.206 27.5764 196.34 27.7052C196.421 27.7049 196.502 27.7045 196.583 27.7041L196.563 27.7143Z" fill="#008297"/>
<path d="M204.341 66.5275C204.604 66.5263 204.856 66.4241 205.058 66.231C205.451 65.8348 205.448 65.1976 205.052 64.805C204.309 64.07 202.808 61.1133 201.878 54.6649C200.896 47.8323 200.792 26.8973 200.791 26.695C200.789 26.1387 200.331 25.6857 199.774 25.6881C199.217 25.6906 198.764 26.1478 198.766 26.704C198.77 27.5738 198.871 47.983 199.874 54.957C201.055 63.154 203.051 65.6635 203.631 66.2475C203.834 66.4488 204.087 66.5387 204.351 66.5376L204.341 66.5275Z" fill="#008297"/>
<path d="M219.203 70.789C226.078 70.7583 234.411 68.3748 237.808 58.0436C241.534 46.7197 239.765 33.9033 239.692 33.3575C239.609 32.8016 239.101 32.4196 238.544 32.503C237.988 32.5864 237.605 33.0938 237.689 33.6496C237.709 33.781 239.457 46.5469 235.881 57.415C232.175 68.6983 221.993 69.6034 214.11 68.3743C213.552 68.2858 213.038 68.6623 212.949 69.2189C212.86 69.7655 213.237 70.2897 213.795 70.3782C215.375 70.624 217.229 70.8079 219.203 70.7991L219.203 70.789Z" fill="#008297"/>
<path d="M227.853 85.1125C227.924 85.1121 228.005 85.1118 228.076 85.0912C228.622 84.9674 228.964 84.4198 228.83 83.8742C227.23 76.9838 228.277 68.8779 228.287 68.797C228.365 68.2404 227.968 67.7365 227.421 67.658C226.874 67.5795 226.359 67.9762 226.281 68.5227C226.232 68.8668 225.175 77.0839 226.858 84.3179C226.971 84.7826 227.388 85.1044 227.843 85.1024L227.853 85.1125Z" fill="#008297"/>
<path d="M220.774 109.72C221.139 109.718 221.482 109.585 221.664 109.504C224.14 108.491 234.739 100.99 235.257 96.8717C235.677 93.4918 230.291 82.1782 229.123 81.5362C228.758 81.3355 228.292 81.378 227.97 81.6526C227.606 81.9576 227.517 82.403 227.702 82.9584C227.706 83.7979 224.602 87.129 221.061 90.007C220.627 90.3629 220.559 91.0004 220.915 91.4337C221.272 91.867 221.91 91.935 222.344 91.5791C224.866 89.5248 227.639 86.9941 228.946 84.9048C230.61 88.0529 233.534 94.3711 233.251 96.6278C232.899 99.3904 223.655 106.329 221.149 107.534C220.545 106.04 219.371 101.676 218.484 97.8972C218.36 97.3516 217.811 97.0203 217.265 97.1441C216.719 97.2679 216.387 97.8155 216.511 98.3611C218.916 108.606 219.739 109.259 220.003 109.471C220.247 109.662 220.511 109.721 220.764 109.72L220.774 109.72Z" fill="#008297"/>
<path d="M209.955 83.5232C210.481 83.5208 210.915 83.1144 210.963 82.5882C211.174 79.806 211.605 74.3022 211.732 73.4217C211.811 72.8651 211.424 72.3611 210.867 72.2827C210.309 72.2043 209.805 72.5909 209.726 73.1475C209.57 74.3011 208.977 82.1015 208.948 82.4354C208.91 82.9918 209.327 83.4754 209.884 83.5235C209.914 83.5234 209.935 83.5233 209.965 83.5232L209.955 83.5232Z" fill="#008297"/>
<path d="M205.801 101.139C205.984 101.138 206.176 101.087 206.337 100.985C206.812 100.69 206.951 100.062 206.645 99.588L201.322 91.2274C203.199 85.3328 207.159 83.2216 208.999 82.5459C210.423 88.5067 215.084 91.5403 215.297 91.6708C215.764 91.9721 216.391 91.8379 216.693 91.3612C216.995 90.8946 216.86 90.2681 216.383 89.9668C216.332 89.9266 211.691 86.8727 210.775 81.0917C210.733 80.8188 210.58 80.5768 210.356 80.4261C210.133 80.2653 209.849 80.2058 209.586 80.2576C209.273 80.3197 201.948 81.8087 199.246 91.085C199.166 91.3685 199.208 91.6617 199.361 91.9138L204.928 100.668C205.122 100.97 205.447 101.141 205.791 101.139L205.801 101.139Z" fill="#008297"/>
<path d="M148.609 120.57C148.902 120.569 149.195 120.446 149.387 120.193C162.125 104.55 174.242 99.2574 184.424 96.1475C184.96 95.9833 185.261 95.4156 185.097 94.8803C184.933 94.345 184.374 94.044 183.828 94.2083C173.363 97.4105 160.893 102.847 147.811 118.915C147.459 119.352 147.523 119.988 147.96 120.34C148.153 120.491 148.376 120.571 148.598 120.57L148.609 120.57Z" fill="#008297"/>
<path d="M188.883 94.5917C188.964 94.5913 189.045 94.5909 189.126 94.5602C194.83 93.1391 199.363 92.3907 200.082 92.3774C200.558 92.4561 201.033 92.1607 201.182 91.6948C201.362 91.1681 201.066 90.5929 200.539 90.4132C199.586 90.104 192.323 91.6838 188.641 92.6003C188.095 92.7342 187.763 93.2819 187.908 93.8274C188.021 94.2921 188.437 94.5936 188.893 94.5916L188.883 94.5917Z" fill="#008297"/>
<path d="M198.887 46.8904C199.332 46.8884 199.788 46.8358 200.243 46.7327C200.789 46.6089 201.131 46.0612 201.007 45.5156C200.883 44.97 200.335 44.6286 199.788 44.7524C197.391 45.2991 195.885 43.6472 195.345 42.9113C194.265 41.4294 193.698 39.0754 194.864 37.1485C195.407 36.246 196.022 35.7376 196.7 35.6435C197.732 35.4973 198.819 36.2915 199.155 36.6035C199.561 36.986 200.199 36.9629 200.582 36.5668C200.965 36.1605 200.952 35.5234 200.545 35.1409C200.464 35.0705 198.644 33.339 196.438 33.6422C195.112 33.82 194.002 34.6543 193.128 36.1146C191.711 38.4673 191.948 41.6824 193.71 44.112C195.025 45.9165 196.892 46.9094 198.887 46.9005L198.887 46.8904Z" fill="#008297"/>
<path d="M240.307 48.5362C242.473 48.5265 244.594 47.3641 246.064 45.3044C247.835 42.8288 248.094 39.7935 246.738 37.5745C245.85 36.122 244.723 35.2977 243.406 35.1317C241.207 34.8583 239.382 36.5959 239.312 36.667C238.909 37.0531 238.901 37.7005 239.288 38.0932C239.674 38.496 240.312 38.5033 240.716 38.1171C241.048 37.8021 242.138 36.9983 243.162 37.1353C243.84 37.2233 244.46 37.7262 245.011 38.6239C245.949 40.1469 245.716 42.3123 244.418 44.1284C243.412 45.5387 241.565 46.882 239.406 46.4062C238.859 46.2873 238.324 46.6335 238.194 47.1802C238.075 47.7269 238.422 48.2614 238.969 48.3904C239.415 48.4896 239.861 48.5382 240.317 48.5361L240.307 48.5362Z" fill="#008297"/>
<path d="M189.429 185.319C189.925 185.317 190.349 184.981 190.488 184.465C191.026 182.44 184.266 162.859 180.195 151.368C169.264 120.559 167.976 120.009 167.56 119.839C165.805 119.098 136.003 118.422 126.91 118.23C126.576 118.221 126.272 118.374 126.071 118.648C125.88 118.912 125.821 119.256 125.933 119.569C130.848 134.091 138.217 156.238 138.499 158.168C138.491 158.633 138.797 159.067 139.273 159.176C139.82 159.305 140.366 158.979 140.495 158.432C140.574 158.088 140.803 157.197 128.306 120.287C142.483 120.598 163.85 121.2 166.616 121.674C169.379 125.879 186.966 175.681 188.428 183.23C186.655 183.157 182.979 183.072 177.531 182.945C167.577 182.706 151.243 182.324 148.396 181.932C148.006 180.781 147.048 176.932 146.252 173.466C146.128 172.92 145.58 172.579 145.044 172.703C144.498 172.827 144.156 173.364 144.28 173.91C145.013 177.102 146.303 182.568 146.823 183.335C147.302 184.04 147.445 184.252 177.48 184.958C183.242 185.094 188.679 185.221 189.287 185.299C189.338 185.299 189.378 185.299 189.429 185.299L189.429 185.319Z" fill="#008297"/>
<path d="M138.681 164.802C142.032 164.788 146.341 163.656 148.159 162.616C149.502 161.852 150.012 160.555 149.47 159.313C148.826 157.839 146.694 156.716 144.005 157.537C142.266 158.071 140.158 157.817 138.77 157.652C138.659 157.642 138.558 157.622 138.456 157.613C138.699 157.531 138.952 157.469 139.215 157.407C139.761 157.283 140.103 156.746 139.979 156.2C139.855 155.654 139.317 155.313 138.771 155.437C135.16 156.242 133.641 158.504 133.416 160.366C133.211 162.035 133.997 163.559 135.398 164.251C136.21 164.652 137.365 164.818 138.671 164.813L138.681 164.802ZM145.764 159.289C146.736 159.285 147.427 159.696 147.611 160.12C147.652 160.211 147.774 160.504 147.148 160.871C144.896 162.165 138.351 163.449 136.311 162.436C135.672 162.126 135.345 161.419 135.442 160.599C135.511 160.023 135.811 159.374 136.406 158.795C136.52 159.229 136.916 159.551 137.392 159.549C137.625 159.548 138.05 159.597 138.526 159.655C140.086 159.84 142.437 160.133 144.601 159.466C145.015 159.343 145.41 159.281 145.764 159.279L145.764 159.289Z" fill="#008297"/>
<path d="M138.85 168.726C143.983 168.703 148.403 167.459 149.691 165.663C150.103 165.085 150.212 164.437 149.996 163.842C149.361 162.044 147.323 161.507 146.219 161.472C145.703 161.433 145.188 161.891 145.181 162.447C145.163 163.003 145.6 163.467 146.157 163.484C146.188 163.484 147.768 163.578 148.096 164.507C147.886 165.065 144.613 166.748 138.416 166.695C137.12 166.68 136.207 166.33 135.708 165.665C134.923 164.617 135.199 162.836 135.368 162.238C135.518 161.701 135.212 161.146 134.684 160.987C134.147 160.828 133.591 161.133 133.432 161.67C133.392 161.792 132.534 164.779 134.083 166.866C134.979 168.075 136.43 168.696 138.404 168.718C138.556 168.717 138.708 168.716 138.87 168.715L138.85 168.726Z" fill="#008297"/>
<path d="M140.739 172.166C143.685 172.153 146.759 171.269 147.919 170.333C148.817 169.611 149.29 168.78 149.306 167.88C149.341 166.615 148.446 165.79 148.344 165.699C147.927 165.327 147.29 165.36 146.917 165.777C146.544 166.193 146.577 166.82 146.984 167.192C147.004 167.212 147.289 167.504 147.281 167.838C147.262 168.182 146.929 168.528 146.647 168.751C145.476 169.697 140.044 170.884 137.385 169.511C136.482 169.039 136.094 168.343 136.16 167.301C136.199 166.745 135.771 166.261 135.214 166.223C134.647 166.175 134.173 166.602 134.135 167.169C134.011 169 134.828 170.473 136.442 171.305C137.629 171.917 139.159 172.163 140.739 172.156L140.739 172.166Z" fill="#008297"/>
<path d="M141.835 175.053C146.502 175.032 148.213 172.658 148.284 172.557C148.917 171.583 149.106 170.702 148.859 169.935C148.633 169.228 148.074 168.775 147.658 168.605C147.141 168.395 146.545 168.64 146.335 169.157C146.124 169.664 146.36 170.239 146.857 170.459C146.877 170.459 146.918 170.5 146.928 170.54C146.959 170.661 146.889 170.965 146.598 171.421C146.578 171.452 145.269 173.126 141.39 173.022C137.724 172.907 137.718 171.481 137.715 170.713C137.712 170.156 137.255 169.703 136.698 169.706C136.141 169.708 135.687 170.165 135.69 170.722C135.702 173.473 137.602 174.92 141.318 175.035C141.49 175.035 141.663 175.034 141.825 175.033L141.835 175.053Z" fill="#008297"/>
<path d="M135.281 169.833C135.706 169.832 136.1 169.567 136.24 169.141C136.409 168.635 136.154 168.1 135.677 167.9C134.976 167.418 131.657 163.286 130.738 157.04C129.694 149.954 134.566 141.174 134.616 141.083C134.887 140.596 134.712 139.98 134.225 139.709C133.738 139.438 133.121 139.613 132.85 140.1C132.639 140.485 127.596 149.579 128.735 157.342C129.737 164.144 133.557 169.325 134.967 169.794C135.078 169.834 135.18 169.844 135.291 169.844L135.281 169.833Z" fill="#008297"/>
<path d="M215.93 111.006C215.93 111.006 215.991 111.006 216.021 111.006C216.578 110.952 216.991 110.455 216.938 109.899C216.608 106.492 217.523 100.46 217.533 100.4C217.622 99.8429 217.235 99.3288 216.688 99.2503C216.14 99.1617 215.616 99.5484 215.537 100.095C215.498 100.348 214.573 106.441 214.924 110.1C214.976 110.626 215.414 111.018 215.94 111.016L215.93 111.006Z" fill="#008297"/>
<path d="M216.337 202.342C216.924 202.319 217.368 201.852 217.345 201.296C216.977 191.356 217.388 138.165 217.385 137.629C217.383 137.073 216.935 136.62 216.378 136.612C215.781 136.585 215.358 137.062 215.36 137.618C215.362 138.154 214.952 191.395 215.32 201.376C215.343 201.922 215.791 202.355 216.337 202.352L216.337 202.342Z" fill="#008297"/>
<path d="M260.022 146.561C260.255 146.56 260.478 146.479 260.669 146.326C261.093 145.97 261.151 145.333 260.795 144.899L249.343 131.297C248.987 130.874 248.349 130.816 247.915 131.172C247.491 131.528 247.433 132.165 247.789 132.598L259.241 146.201C259.445 146.443 259.729 146.563 260.022 146.561Z" fill="#008297"/>
<path d="M172.341 133.795C172.898 133.793 173.351 133.335 173.349 132.779C173.347 132.415 173.153 132.102 172.869 131.922C172.866 131.325 173.356 129.846 174.65 129.325C175.165 129.11 175.416 128.522 175.211 128.007C174.996 127.492 174.408 127.242 173.892 127.447C171.608 128.377 170.607 131.001 170.907 132.476C171.104 133.447 171.804 133.797 172.351 133.795L172.341 133.795Z" fill="#008297"/>
<path d="M174.989 198.633C175.536 198.631 175.99 198.194 175.997 197.648L176.263 184.64C176.271 184.084 175.834 183.621 175.277 183.603C174.699 183.605 174.256 184.042 174.238 184.588L173.972 197.596C173.964 198.152 174.402 198.616 174.959 198.633L174.989 198.633Z" fill="#008297"/>
<path d="M207.32 42.0892C207.327 43.7074 207.809 45.0099 208.386 45.0073C208.963 45.0048 209.433 43.6879 209.426 42.0798C209.419 40.4718 208.937 39.1591 208.36 39.1617C207.783 39.1643 207.313 40.4811 207.32 42.0892Z" fill="#008297"/>
<path d="M208.398 45.5229C209.472 45.5181 209.95 43.736 209.942 42.0874C209.935 40.4389 209.441 38.6611 208.368 38.6659C207.294 38.6707 206.816 40.4528 206.824 42.1014C206.831 43.7499 207.325 45.5277 208.398 45.5229ZM208.413 39.667C208.514 39.7575 208.933 40.5749 208.94 42.0919C208.947 43.609 208.535 44.43 208.363 44.5218C208.262 44.4312 207.843 43.6139 207.836 42.0968C207.829 40.5798 208.241 39.7587 208.413 39.667Z" fill="#008297"/>
<path d="M205.755 36.1996C206.018 36.1984 206.27 36.0962 206.472 35.9031C207.077 35.2936 207.724 34.9873 208.402 35.0045C209.131 35.0215 209.73 35.4132 209.913 35.5844C210.138 35.9677 210.594 36.178 211.039 36.0547C211.586 35.9208 211.907 35.3631 211.773 34.8276C211.588 34.1003 210.46 33.3973 209.477 33.1287C207.896 32.7008 206.318 33.1731 205.028 34.4734C204.635 34.8696 204.638 35.5068 205.034 35.8994C205.238 36.1008 205.491 36.1907 205.755 36.1895L205.755 36.1996Z" fill="#008297"/>
<path d="M216.241 53.6802C217.588 53.6742 218.807 52.3236 219.039 52.0394C219.401 51.613 219.348 50.976 218.921 50.6138C218.494 50.2517 217.856 50.3051 217.494 50.7315C217.101 51.1984 216.495 51.636 216.232 51.6574C215.947 51.2137 216.147 50.6262 216.658 49.4912C217.119 48.4575 217.64 47.282 217.452 45.968C217.369 45.4122 216.851 45.0302 216.304 45.1135C215.748 45.1969 215.365 45.7043 215.449 46.2602C215.553 46.998 215.193 47.8087 214.812 48.6701C214.27 49.8862 213.588 51.3962 214.597 52.8076C214.984 53.352 215.532 53.653 216.15 53.6806C216.181 53.6804 216.211 53.6803 216.241 53.6802Z" fill="#008297"/>
<path d="M217.51 61.2194C219.586 61.2102 221.285 60.7677 221.689 60.6041C222.205 60.3995 222.455 59.8017 222.25 59.2868C222.036 58.7719 221.447 58.5217 220.932 58.7263C220.457 58.9206 216.35 59.8896 213.316 58.3153C212.818 58.0545 212.212 58.2494 211.951 58.7461C211.69 59.2429 211.885 59.8488 212.382 60.1096C214.036 60.9619 215.89 61.2166 217.51 61.2093L217.51 61.2194Z" fill="#008297"/>
<path d="M224.774 41.6673C224.781 43.2855 225.263 44.588 225.84 44.5855C226.417 44.5829 226.887 43.266 226.88 41.6579C226.873 40.0499 226.391 38.7372 225.814 38.7398C225.237 38.7424 224.767 40.0593 224.774 41.6673Z" fill="#008297"/>
<path d="M225.842 45.102C226.916 45.0972 227.394 43.3151 227.386 41.6665C227.379 40.018 226.885 38.2402 225.812 38.245C224.739 38.2498 224.26 40.0319 224.268 41.6805C224.275 43.329 224.769 45.1068 225.842 45.102ZM225.857 39.2461C225.958 39.3366 226.377 40.154 226.384 41.671C226.391 43.1881 225.979 44.0091 225.808 44.1009C225.706 44.0103 225.287 43.193 225.28 41.6759C225.274 40.1589 225.685 39.3378 225.857 39.2461Z" fill="#008297"/>
<path d="M223.199 35.7777C223.462 35.7766 223.715 35.6743 223.916 35.4812C224.521 34.8717 225.178 34.5654 225.846 34.5826C226.575 34.5996 227.174 34.9913 227.357 35.1625C227.582 35.5458 228.038 35.7561 228.483 35.6429C229.03 35.509 229.351 34.9513 229.217 34.4159C229.032 33.6986 227.905 32.9856 226.921 32.7169C225.34 32.2789 223.762 32.7613 222.472 34.0616C222.079 34.4578 222.082 35.095 222.478 35.4876C222.682 35.689 222.935 35.7789 223.199 35.7777Z" fill="#008297"/>
<path d="M197.805 42.7984C198.301 42.7962 198.725 42.4403 198.804 41.9343C198.882 41.3777 198.505 40.8636 197.948 40.7851C196.935 40.6379 196.436 40.1244 196.354 39.8112C196.323 39.6799 196.353 39.6089 196.464 39.5174C196.636 39.5065 197.083 39.8484 197.358 40.2517C197.664 40.7156 198.293 40.8443 198.757 40.5287C199.221 40.2232 199.35 39.5956 199.044 39.1317C198.881 38.8897 198.036 37.6899 196.83 37.493C196.252 37.4046 195.686 37.5487 195.212 37.9351C194.465 38.5251 194.165 39.4265 194.412 40.3357C194.752 41.5883 196.022 42.5434 197.663 42.7889C197.714 42.7887 197.765 42.7986 197.815 42.7984L197.805 42.7984Z" fill="#008297"/>
<path d="M241.858 44.6055C241.909 44.6053 241.96 44.605 242.01 44.5947C243.649 44.3346 244.911 43.3681 245.239 42.1125C245.478 41.2012 245.17 40.3025 244.418 39.7192C243.941 39.3472 243.373 39.198 242.797 39.2916C241.593 39.4992 240.747 40.7065 240.597 40.9499C240.295 41.4165 240.429 42.043 240.896 42.3443C241.364 42.6456 241.991 42.5114 242.292 42.0448C242.554 41.6391 242.988 41.2831 243.14 41.2825C243.282 41.3931 243.313 41.4739 243.283 41.5954C243.203 41.9092 242.719 42.4272 241.697 42.5835C241.141 42.6669 240.769 43.1843 240.852 43.7402C240.935 44.2455 241.362 44.5976 241.858 44.5954L241.858 44.6055Z" fill="#008297"/>
<path d="M209.563 13.6691C211.638 13.6598 213.237 13.3493 213.409 13.3182C213.955 13.2045 214.307 12.677 214.203 12.1313C214.089 11.5857 213.561 11.2239 213.015 11.3376C212.914 11.3583 203.172 13.2323 201.475 7.39414C201.321 6.85879 200.752 6.5478 200.216 6.7019C199.68 6.856 199.369 7.42376 199.523 7.9591C200.932 12.7973 205.958 13.6953 209.563 13.6792L209.563 13.6691Z" fill="#008297"/>
<path d="M259.771 199.225C260.308 199.223 260.762 198.796 260.779 198.25L261.645 174.357C261.663 173.801 261.225 173.327 260.668 173.31C260.111 173.262 259.637 173.729 259.62 174.285L258.754 198.178C258.736 198.734 259.174 199.208 259.731 199.225C259.741 199.225 259.761 199.225 259.771 199.225Z" fill="#008297"/>
<path d="M153.972 119.96C154.215 119.959 154.427 119.787 154.467 119.534C154.467 119.523 155.263 116.536 165.939 108.347C176.908 99.934 185.608 98.1354 185.699 98.1148C185.972 98.063 186.153 97.7891 186.101 97.5163C186.049 97.2434 185.775 97.0626 185.502 97.1144C185.138 97.1868 176.479 98.9852 165.328 107.541C154.299 116.005 153.523 119.052 153.474 119.376C153.424 119.649 153.618 119.912 153.891 119.961C153.922 119.961 153.952 119.961 153.972 119.96Z" fill="#008297"/>
<path d="M271.87 121.873C271.971 121.872 272.072 121.841 272.163 121.78C272.385 121.617 272.445 121.304 272.272 121.072C258.559 102.17 234.493 98.1606 234.25 98.1212C233.976 98.082 233.714 98.2652 233.675 98.5385C233.635 98.8117 233.819 99.0739 234.092 99.1131C234.325 99.1525 257.986 103.103 271.454 121.662C271.556 121.803 271.708 121.873 271.87 121.873Z" fill="#008297"/>
<path d="M252.68 141.699C252.872 141.698 253.054 141.586 253.144 141.394L254.107 139.195C254.217 138.941 254.104 138.638 253.851 138.528C253.597 138.418 253.294 138.531 253.183 138.784L252.221 140.983C252.111 141.236 252.224 141.539 252.477 141.649C252.548 141.679 252.619 141.689 252.68 141.689L252.68 141.699Z" fill="#008297"/>
<path d="M251.693 140.491C251.885 140.49 252.067 140.378 252.157 140.196L253.37 137.51C253.48 137.257 253.368 136.954 253.114 136.844C252.86 136.734 252.557 136.846 252.447 137.1L251.234 139.785C251.124 140.038 251.236 140.341 251.49 140.451C251.561 140.481 251.632 140.491 251.703 140.491L251.693 140.491Z" fill="#008297"/>
<path d="M287.351 144.477C287.412 144.477 287.463 144.477 287.523 144.446C287.786 144.354 287.917 144.06 287.824 143.798C285.6 137.709 275.632 125.222 275.214 124.698C275.041 124.476 274.717 124.448 274.505 124.62C274.283 124.793 274.254 125.117 274.427 125.329C274.529 125.46 284.711 138.208 286.884 144.146C286.956 144.348 287.159 144.478 287.362 144.477L287.351 144.477Z" fill="#008297"/>
<path d="M232.722 100.595C233.015 100.594 233.237 100.35 233.226 100.067C232.951 92.9281 228.152 86.2036 227.948 85.9213C227.785 85.6996 227.471 85.6403 227.239 85.8031C227.017 85.966 226.957 86.2797 227.12 86.5116C227.171 86.5822 231.95 93.2765 232.213 100.112C232.215 100.385 232.448 100.597 232.722 100.595Z" fill="#008297"/>
<path d="M239.498 33.0255C239.822 32.9937 240.023 32.7501 240.002 32.4771C239.949 31.9008 238.613 18.4352 232.208 17.1895C231.924 17.1301 231.672 17.3132 231.612 17.5866C231.563 17.8599 231.736 18.122 232.01 18.1815C237.685 19.2889 238.979 32.4412 238.99 32.5726C239.011 32.8355 239.235 33.0368 239.498 33.0356L239.498 33.0255Z" fill="#008297"/>
<path d="M240.696 26.9313C240.99 26.93 241.211 26.6863 241.2 26.4032C241.188 26.0593 240.829 18.0407 233.823 13.8343C233.58 13.6938 233.276 13.7659 233.126 14.0093C232.985 14.2527 233.057 14.5558 233.301 14.7064C239.829 18.6216 240.187 26.3672 240.188 26.4481C240.189 26.7212 240.423 26.9325 240.696 26.9313Z" fill="#008297"/>
<path d="M206.215 12.2082C206.316 12.2078 206.427 12.1769 206.508 12.1058C212.533 7.66928 218.414 9.6658 218.475 9.68576C218.739 9.77561 219.032 9.64282 219.122 9.37946C219.212 9.1161 219.079 8.8234 218.815 8.73355C218.552 8.6437 212.376 6.52712 205.907 11.2993C205.685 11.4622 205.636 11.786 205.799 12.0078C205.9 12.1388 206.053 12.2089 206.204 12.2083L206.215 12.2082Z" fill="#008297"/>
<path d="M203.285 11.4919C203.407 11.4914 203.528 11.4504 203.619 11.3691C213.18 2.90162 221.212 8.10474 221.293 8.15495C221.527 8.31573 221.841 8.24353 221.991 8.02035C222.142 7.78706 222.08 7.47381 221.857 7.3231C221.775 7.26278 213.093 1.63779 202.947 10.6135C202.735 10.7965 202.716 11.1202 202.9 11.3318C203.001 11.4426 203.143 11.5027 203.285 11.502L203.285 11.4919Z" fill="#008297"/>
<path d="M231.492 151.796C232.717 151.79 233.705 150.795 233.7 149.571C233.694 148.347 232.698 147.361 231.473 147.366C230.247 147.372 229.26 148.367 229.265 149.591C229.271 150.815 230.267 151.801 231.492 151.796ZM231.477 148.388C232.135 148.385 232.684 148.918 232.687 149.586C232.69 150.253 232.156 150.792 231.488 150.795C230.82 150.798 230.281 150.264 230.278 149.596C230.275 148.929 230.809 148.391 231.477 148.388Z" fill="#008297"/>
<path d="M285.26 179.47C286.971 179.462 287.982 179.205 288.397 179.062C288.66 178.969 288.8 178.686 288.718 178.423C288.626 178.16 288.341 178.02 288.078 178.102C287.29 178.369 279.847 180.414 261.606 170.21C243.345 159.996 238.043 153.911 237.992 153.85C237.808 153.639 237.494 153.61 237.283 153.793C237.071 153.976 237.042 154.289 237.225 154.501C237.439 154.753 242.65 160.757 261.114 171.092C273.782 178.176 281.372 179.487 285.27 179.47L285.26 179.47Z" fill="#008297"/>
<path d="M256.337 196.541C256.6 196.539 256.822 196.326 256.841 196.063L257.961 172.412C257.969 172.129 257.756 171.897 257.482 171.888C257.219 171.849 256.967 172.093 256.948 172.366L255.828 196.017C255.819 196.3 256.033 196.532 256.306 196.541C256.306 196.541 256.327 196.541 256.337 196.541Z" fill="#008297"/>
<path d="M141.942 158.285C141.942 158.285 142.044 158.284 142.094 158.264C142.357 158.182 142.508 157.898 142.425 157.635C141.953 156.1 130.786 120.124 130.54 119.397C130.447 119.135 130.163 118.984 129.9 119.077C129.638 119.169 129.497 119.453 129.579 119.715C129.826 120.432 141.342 157.549 141.465 157.923C141.537 158.145 141.73 158.275 141.952 158.274L141.942 158.285Z" fill="#008297"/>
<path d="M144.386 158.992C144.679 158.981 144.891 158.767 144.89 158.494C144.886 157.746 141.271 146.262 140.162 142.758C140.08 142.495 139.796 142.345 139.523 142.427C139.26 142.509 139.109 142.793 139.191 143.066C141.04 148.883 143.803 157.801 143.877 158.519C143.899 158.782 144.122 158.993 144.386 158.992Z" fill="#008297"/>
<path d="M269.508 45.9464C269.681 45.9457 269.852 45.8943 270.014 45.7925C270.276 45.6194 271.054 45.1102 272.277 37.8127C274.403 37.8235 278.159 37.6752 279.075 36.5283C279.327 36.2136 279.416 35.8289 279.313 35.445C278.87 33.7176 275.081 33.1479 272.913 32.9654C272.828 31.9948 272.773 31.0241 272.719 30.1546C272.532 26.9999 272.423 25.099 271.276 24.649C271.013 24.5491 270.729 24.5604 270.477 24.693C269.76 25.0704 269.38 26.3262 268.517 30.1531C268.298 31.1149 268.02 32.3601 267.83 32.9274C261.431 32.8952 260.474 34.0221 260.357 35.0138C260.328 35.287 260.41 35.5698 260.593 35.8016C261.347 36.7489 264.812 37.2796 267.172 37.5523C268.029 45.6092 268.829 45.7977 269.306 45.917C269.377 45.9369 269.448 45.9467 269.519 45.9464L269.508 45.9464ZM271.622 36.2884C271.247 36.2901 270.935 36.5545 270.876 36.9289C270.501 39.2264 269.976 41.8179 269.557 43.3368C269.216 41.7808 268.85 39.1327 268.607 36.7874C268.575 36.4335 268.29 36.1415 267.925 36.1128C265.707 35.89 263.143 35.4464 262.129 35.0463C262.665 34.8113 264.141 34.4103 268.04 34.4435L268.242 34.4426C269.103 34.4387 269.291 33.5985 269.986 30.4803C270.224 29.3971 270.582 27.7975 270.901 26.8049C271.037 27.6741 271.114 29.0998 271.19 30.2322C271.256 31.3141 271.322 32.5376 271.449 33.7405C271.491 34.1045 271.786 34.3964 272.16 34.415C274.642 34.5657 277.176 35.1512 277.735 35.6645C276.998 36.0521 274.326 36.3371 271.642 36.2681C271.642 36.2681 271.632 36.2682 271.622 36.2682L271.622 36.2884Z" fill="#008297"/>
<path d="M135.257 102.827C135.43 102.826 135.591 102.774 135.743 102.673C136.005 102.5 136.682 102.052 137.757 95.6649C139.873 95.6757 142.93 95.5002 143.736 94.4954C143.977 94.1909 144.057 93.8265 143.964 93.4628C143.572 91.9373 140.502 91.4049 138.324 91.2224C138.25 90.4137 138.206 89.6048 138.162 88.8262C137.997 86.0153 137.889 84.3167 136.834 83.8966C136.58 83.7966 136.307 83.818 136.054 83.9405C135.387 84.2975 135.048 85.4115 134.284 88.8131C134.105 89.623 133.867 90.6658 133.707 91.1823C129.232 91.172 127.26 91.7471 127.094 93.1031C127.064 93.3662 127.147 93.6389 127.32 93.8606C128.002 94.7072 131.011 95.1893 133.108 95.4227C133.869 102.509 134.548 102.678 135.045 102.797C135.116 102.817 135.187 102.827 135.257 102.827ZM137.112 94.1406C136.738 94.1423 136.425 94.4066 136.366 94.7811C136.07 96.6231 135.654 98.6882 135.306 100.045C135.036 98.6505 134.743 96.538 134.553 94.6577C134.521 94.3039 134.236 94.022 133.871 93.9831C132.068 93.799 129.981 93.4543 128.997 93.125C129.574 92.9404 130.909 92.6714 133.957 92.6983L134.139 92.6975C134.969 92.6938 135.138 91.9446 135.763 89.1403C135.942 88.3304 136.2 87.1965 136.44 86.3459C136.534 87.104 136.599 88.0948 136.643 88.9139C136.698 89.8643 136.764 90.9361 136.88 92.0076C136.922 92.3817 137.217 92.6635 137.592 92.6821C139.617 92.8045 141.675 93.2505 142.325 93.6724C141.536 93.9793 139.32 94.1813 137.143 94.1304L137.122 94.1304L137.112 94.1406Z" fill="#4AB2C2"/>
<g clip-path="url(#clip1_135_102)">
<path d="M200.067 36.4613C201.455 34.7086 203.394 33.6654 205.521 33.5272C208.93 33.2992 211.992 35.5033 213.318 38.7692C213.818 38.3317 214.498 38.0358 215.16 37.9077C216.897 37.5823 218.783 38.0358 220.162 39.0774C221.302 36.1863 223.833 34.0888 226.885 33.8882C228.995 33.7492 231.043 34.521 232.646 36.0701C233.036 36.4524 233.397 36.8688 233.705 37.3093L239.261 37.8047C239.447 37.8135 239.62 37.9105 239.738 38.0491C239.863 38.206 239.917 38.3859 239.908 38.5718C239.899 38.7577 239.802 38.9305 239.663 39.0481C239.525 39.1657 239.354 39.2197 239.177 39.2113C239.168 39.2108 239.159 39.2104 239.15 39.21L234.565 38.8053C235.023 39.8119 235.298 40.9162 235.368 42.064C235.515 44.3689 234.85 46.5995 233.481 48.3353C232.093 50.0879 230.163 51.1316 228.035 51.2786C227.759 51.301 227.476 51.2963 227.201 51.2833C226.714 51.2601 226.23 51.1838 225.757 51.0636C224.468 50.7361 223.259 50.0486 222.25 49.069C220.664 47.5296 219.709 45.4081 219.553 43.1029C219.497 42.2219 219.565 41.3645 219.728 40.5472C218.643 39.493 216.963 38.996 215.423 39.2864C214.707 39.4209 213.949 39.8639 213.934 40.3689C213.93 40.4662 213.908 40.5539 213.868 40.6407C213.931 40.9897 213.977 41.3379 214.004 41.6941C214.317 46.4821 211.024 50.6103 206.663 50.8994C206.387 50.9218 206.113 50.9176 205.838 50.9045C205.351 50.8813 204.876 50.8054 204.402 50.6853C200.992 49.822 198.433 46.5506 198.19 42.7241C198.042 40.4193 198.708 38.1886 200.077 36.4528L200.067 36.4613ZM206.562 49.4929C208.297 49.3803 209.873 48.515 211.016 47.0612C212.159 45.5986 212.719 43.7266 212.589 41.7864C212.379 38.5648 210.257 35.811 207.434 35.0999C207.048 35.0016 206.66 34.9477 206.271 34.9291C206.05 34.9186 205.828 34.9169 205.605 34.9329C203.879 35.0459 202.303 35.9024 201.17 37.3389C200.018 38.8011 199.449 40.6814 199.578 42.6394C199.707 44.5885 200.5 46.374 201.831 47.6706C203.154 48.9668 204.826 49.6142 206.57 49.5021L206.562 49.4929ZM232.704 38.3795C231.779 36.9426 230.411 35.866 228.807 35.4613C228.211 35.3088 227.592 35.2527 226.978 35.2944C223.391 35.5317 220.689 38.9872 220.95 43.0097C221.079 44.9677 221.889 46.7629 223.221 48.0595C224.535 49.3375 226.208 49.9761 227.934 49.8632C229.661 49.7502 231.236 48.8938 232.37 47.4572C233.522 45.995 234.09 44.1147 233.962 42.1567C233.868 40.7683 233.415 39.4869 232.712 38.3977C232.712 38.3977 232.712 38.3977 232.704 38.3884L232.704 38.3795Z" fill="#008297"/>
</g>
<path d="M30.3018 94.8514C31.5205 93.4595 33.2588 91.123 34.1644 89.6589L35.8131 86.9958L38.9285 88.0156C46.5903 90.5277 50.2705 90.9585 55.329 89.9369C59.6113 89.0705 62.2495 87.8016 66.3516 84.6313C70.1578 81.6899 72.7739 78.8366 75.4682 74.6909C76.3094 73.3976 77.0274 72.3154 77.0653 72.2857C77.1033 72.256 78.9816 72.9278 81.2441 73.7778C83.5053 74.6259 86.7386 75.5505 88.4335 75.828C92.8912 76.5669 100.146 76.7352 103.385 76.1774C104.925 75.9117 106.421 75.517 106.707 75.3018C107.764 74.5005 106.554 74.2019 104.191 74.6826C102.853 74.9542 101.731 75.1415 101.699 75.0996C101.475 74.8135 96.7933 54.664 96.8154 54.0854C96.8184 54.0184 98.053 53.5367 99.5583 53.0136C101.224 52.4384 102.321 51.8736 102.355 51.5823C102.462 50.6728 101.541 50.7769 98.0552 52.054C89.6049 55.1577 83.4291 59.7075 79.1766 65.9693C77.8489 67.9256 76.6236 69.7781 76.4616 70.0812C76.2389 70.4966 75.095 70.2901 71.9501 69.2699C65.1023 67.0491 59.6663 66.6912 53.5681 68.0564C49.5056 68.9653 46.8461 70.1921 43.8645 72.5263C40.8828 74.8606 39.2774 76.8902 36.8891 81.1402C35.9672 82.7846 35.0527 84.338 34.8634 84.595C34.6378 84.8951 33.01 84.6178 30.2201 83.8016C21.4801 81.2373 13.0394 80.7309 7.10638 82.4076C5.2159 82.9413 4.70499 83.212 4.75678 83.6504C4.84857 84.4602 5.80794 84.5613 7.97945 83.9956C9.02721 83.7219 9.91186 83.5378 9.9461 83.5815C9.98033 83.6252 10.3744 85.171 10.8204 87.014C11.265 88.8552 12.3575 93.0132 13.2464 96.2521C14.1371 99.4896 14.8647 102.217 14.8629 102.315C14.863 102.412 13.6702 102.761 12.2136 103.094C10.0275 103.588 9.59645 103.794 9.74153 104.262C10.011 105.124 10.929 105.172 13.9183 104.474C20.0218 103.049 26.4088 99.2978 30.3018 94.8514ZM93.9156 55.3329C94.8145 54.9025 95.597 54.6102 95.6526 54.6812C95.7083 54.7523 96.1355 56.6718 96.6031 58.9445C97.069 61.2187 98.0862 65.5149 98.8632 68.4918C99.6398 71.4718 100.358 74.2129 100.462 74.5841C100.624 75.1711 100.333 75.2609 98.1914 75.2769L95.7333 75.2941L95.2004 73.2135C94.5916 70.8425 92.4082 58.5524 92.3329 57.0862C92.2876 56.2019 92.427 56.0486 93.9203 55.3351L93.9156 55.3329ZM88.5258 58.5708C91.0981 56.5365 91.2645 56.6149 91.756 60.0797C91.9905 61.7269 92.7434 65.8011 93.4292 69.1343C94.1136 72.4657 94.6374 75.2234 94.5905 75.2602C94.5435 75.297 93.5216 75.183 92.3196 75.0103L90.1338 74.6939L89.0863 70.2509C88.5108 67.8069 87.7554 64.4928 87.4063 62.8854L86.7725 59.9611L88.5254 58.5741L88.5258 58.5708ZM78.0352 70.9446C78.1133 70.1694 82.8804 63.3959 84.3597 61.9646L85.9095 60.4633L86.6786 64.4278C87.1016 66.6062 87.8013 69.6817 88.2372 71.2623C88.6702 72.8393 89.0116 74.3029 88.9933 74.5141C88.975 74.7253 87.9147 74.618 86.6354 74.2795C83.1016 73.3433 77.9954 71.3666 78.0362 70.9496L78.0352 70.9446ZM73.7372 71.9584C73.5929 71.1487 73.6204 71.1242 74.3995 71.3488C74.8456 71.4756 75.2271 71.706 75.2433 71.8608C75.3001 72.354 74.3463 73.3917 74.1123 73.0929C73.9883 72.9344 73.8201 72.4254 73.7368 71.9617L73.7372 71.9584ZM70.6789 70.174C71.6332 70.4436 72.258 70.8508 72.4315 71.3144C73.1683 73.2795 73.3766 74.6475 73.0109 75.1483C72.0773 76.4316 70.9952 77.5697 70.8654 77.4039C70.7898 77.3073 70.3835 75.5449 69.9622 73.4915L69.1973 69.7558L70.6789 70.174ZM65.1519 69.0409C66.2846 69.0769 67.3608 69.3011 67.5448 69.5361C67.7288 69.7712 68.1528 71.2994 68.4855 72.9343C68.8182 74.5692 69.2939 76.4948 69.5427 77.211C69.8352 78.0575 69.801 78.7807 69.4433 79.2694C69.1404 79.6829 68.3543 80.4658 67.6935 81.0066L66.4961 81.9939L64.8911 76.0979C62.7488 68.2275 62.7214 68.963 65.1533 69.0427L65.1519 69.0409ZM57.8218 69.2606C58.6601 69.1363 59.8505 69.0301 60.4637 69.0203L61.5809 69.0066L63.3526 75.2012C64.3285 78.6071 65.2292 81.6898 65.3559 82.049C65.5398 82.578 65.2548 82.9511 63.8604 83.9956C61.9185 85.4541 60.8976 85.9742 60.7888 85.5598C60.7463 85.405 59.719 81.7249 58.5022 77.3821L56.2944 69.4837L57.8204 69.2588L57.8218 69.2606ZM51.2503 70.9259C52.4955 70.3273 54.9235 69.7282 55.1118 69.9687C55.2316 70.1218 56.0668 72.9384 56.968 76.2265C57.8673 79.516 58.8713 83.0732 59.1949 84.1306C59.5817 85.4028 59.6116 86.2228 59.2812 86.5491C58.8838 86.9424 55.3142 88.1794 54.7761 88.11C54.7064 88.1029 53.7882 84.2756 52.7353 79.6135C51.6018 74.5767 50.9968 71.045 51.2489 70.9241L51.2503 70.9259ZM44.7217 74.1239L46.635 72.9492C48.7748 71.6356 49.6317 71.2968 49.7576 71.7183C49.8048 71.8754 50.6973 75.6551 51.7422 80.1207C52.787 84.5863 53.5613 88.297 53.4677 88.3673C53.0057 88.6967 48.854 88.5646 48.5758 88.2093C48.2092 87.741 45.6064 78.5973 45.0802 75.9296L44.7231 74.1257L44.7217 74.1239ZM41.1446 77.8234C41.2875 77.5852 41.9346 76.8259 42.5849 76.1375L43.7656 74.887L44.8675 79.2022C45.4744 81.5746 46.3044 84.5893 46.7172 85.9059C47.1271 87.2188 47.3959 88.3513 47.3102 88.4243C47.2234 88.4922 46.1526 88.3343 44.9257 88.0665L42.6975 87.5805L41.792 82.9205C41.2942 80.3599 41.0028 78.0667 41.1461 77.8252L41.1446 77.8234ZM36.682 85.3135C36.7884 84.6601 39.4713 80.1796 39.8114 80.0779C39.9796 80.0284 40.4655 81.6022 40.8931 83.5743L41.6704 87.1621L39.1391 86.4491C37.748 86.0571 36.6399 85.5463 36.6806 85.3117L36.682 85.3135ZM28.6539 84.9542C31.4999 85.7118 33.8032 86.4946 33.7735 86.6913C33.7438 86.8879 32.8743 88.2827 31.8425 89.7868C30.8108 91.291 29.1994 93.246 28.2649 94.1333L26.5644 95.7437L25.2813 90.5977C24.5753 87.7711 23.8801 85.0328 23.7393 84.5142C23.4927 83.6259 23.7558 83.6491 28.6539 84.9542ZM16.8278 83.1985C16.9398 83.1108 18.2258 83.1414 19.6866 83.2614L22.3445 83.4845L23.8959 89.5019C24.7469 92.8116 25.5439 95.6464 25.6665 95.8031C25.9989 96.2276 25.7631 96.4886 23.6262 98.0292C19.8687 100.739 20.3478 101.31 18.3679 91.7666C17.4089 87.1427 16.7172 83.2881 16.8292 83.2004L16.8278 83.1985ZM15.3051 99.8535C14.8127 97.6236 12.1486 86.9645 11.5296 84.7368L11.1319 83.3055L13.1804 83.1858C14.3052 83.1222 15.3141 83.1787 15.4183 83.3117C15.5224 83.4447 16.1013 86.3621 16.7052 89.7917C17.3088 93.2246 18.1052 97.0267 18.4769 98.2461C18.993 99.9403 19.0115 100.563 18.5469 100.901C18.0169 101.292 16.2937 101.924 15.8974 101.876C15.8184 101.864 15.5528 100.955 15.3083 99.8539L15.3051 99.8535Z" fill="#4AB2C2"/>
</g>
<defs>
<clipPath id="clip0_135_102">
<rect width="298.513" height="224.567" fill="white" transform="matrix(-0.99999 0.00446025 0.00446025 0.99999 299.132 0.938965)"/>
</clipPath>
<clipPath id="clip1_135_102">
<rect width="41.5442" height="18.0427" fill="white" transform="matrix(-0.998868 -0.0475769 -0.0475769 0.998868 240.103 34.4727)"/>
</clipPath>
</defs>
</svg>
