<svg width="112" height="93" viewBox="0 0 112 93" fill="none" xmlns="http://www.w3.org/2000/svg">
<g clip-path="url(#clip0_135_86)">
<path d="M103.727 60.744C103.87 59.3809 103.996 58.0201 104.119 56.6547C104.141 56.4163 104.103 56.1711 104.089 55.9327C103.893 55.8861 103.759 55.838 103.621 55.8227C100.999 55.5649 98.4217 55.0504 95.8398 54.5396C94.6892 54.3122 93.5371 54.0971 92.386 53.8738C91.0946 53.6225 89.8082 53.3634 88.5168 53.1121C87.6827 52.9489 86.844 52.7894 86.0045 52.6381C85.8116 52.6042 85.611 52.6027 85.3799 52.5812C85.5317 53.3914 85.7371 54.1245 85.7977 54.8705C85.8875 55.9812 85.886 57.1025 85.8975 58.217C85.9186 60.2047 85.6515 62.1688 85.445 64.1396C85.2887 65.6217 84.9782 67.0535 84.3287 68.4019C84.2435 68.5794 84.2207 68.7845 84.1565 69.0308C84.7141 69.1384 85.2056 69.2137 85.6849 69.325C86.4394 69.5043 86.6939 69.8316 86.6506 70.6284C86.6077 71.3838 86.5041 72.1324 86.4406 72.8896C86.4054 73.2803 86.2193 73.5545 85.9118 73.7779C85.3765 74.1713 84.796 74.381 84.1321 74.4194C82.8128 74.4932 81.5108 74.3736 80.2316 74.1236C80.1204 74.2027 80.0281 74.2589 79.9506 74.3292C78.1159 76.0196 76.0371 77.3257 73.7541 78.2935C72.7266 78.7278 71.6796 79.0435 70.5587 79.0645C69.992 79.0764 69.4216 79.1211 68.8557 79.1621C66.4933 79.3319 64.1606 79.1602 61.8969 78.4396C59.1109 77.5531 56.4246 76.4325 54.0323 74.6925C53.4257 74.2513 52.852 73.7723 52.2459 73.3271C51.6928 72.9209 51.2135 72.4399 50.8428 71.8671C50.4546 71.2674 50.0803 70.6527 49.7663 70.0114C48.737 67.9159 47.8327 65.7637 47.1125 63.5405C46.7372 62.3815 46.3434 61.2039 46.3662 59.9645C46.4021 58.091 46.5805 56.2251 47.0777 54.4028C47.5655 52.6294 48.1319 50.8854 48.95 49.2359C49.0402 49.0507 49.0918 48.8446 49.1713 48.6083C48.9469 48.5626 48.7769 48.5064 48.6056 48.4998C47.291 48.4578 45.9772 48.4449 44.6648 48.3823C43.0673 48.3047 41.4717 48.2107 39.8796 48.0838C39.2095 48.0302 38.5495 47.849 37.8831 47.7626C35.5919 47.475 33.293 47.2199 31.0031 46.9201C30.1591 46.8098 29.3272 46.6261 28.4891 46.4624C27.7593 46.3191 27.0571 46.0377 26.1764 46.0729C26.1119 46.5434 26.0529 46.9273 26.0056 47.3166C25.6234 50.5015 25.3874 53.6985 24.8393 56.8651C24.5397 58.6054 24.2881 60.3552 24.1098 62.109C23.844 64.7627 23.6515 67.4205 23.4589 70.0782C23.4003 70.865 23.4428 71.663 23.4534 72.4534C23.4763 74.1299 24.031 75.7033 24.3976 77.3099C24.4339 77.4635 24.5758 77.6246 24.7083 77.7224C25.4016 78.2313 26.154 78.6139 27.0151 78.7551C27.7153 78.8702 28.4127 79.0099 29.1092 79.1578C30.3988 79.4256 31.6993 79.5948 33.0197 79.6583C34.7926 79.7429 36.5691 79.8321 38.3388 79.9828C40.072 80.1295 41.8016 80.3463 43.5325 80.5509C44.0262 80.6057 44.5136 80.718 44.9988 80.8133C46.5353 81.1085 48.0577 81.4934 49.6051 81.6901C51.8594 81.9777 54.1265 82.1877 56.3981 82.3194C58.3805 82.4356 60.3711 82.5153 62.3599 82.2791C63.2357 82.1769 64.1411 82.2151 65.0203 82.3044C67.7428 82.5816 70.4613 82.8958 73.1775 83.2305C74.2325 83.36 75.2842 83.5557 76.331 83.7591C77.9714 84.0782 79.5963 84.4621 81.2389 84.7607C82.5645 84.9992 83.9032 85.2308 85.2457 85.3175C87.9423 85.4963 90.6266 85.7859 93.3113 86.1088C94.051 86.1992 94.7926 86.3106 95.5378 86.3518C96.1364 86.385 96.7508 86.3867 97.3392 86.29C98.3199 86.1289 99.2855 85.883 100.26 85.6712C100.608 85.5936 100.815 85.3882 100.861 85.0112C100.937 84.4381 101.045 83.8727 101.116 83.3033C101.606 79.4823 101.946 75.6406 102.517 71.8245C103.068 68.1598 103.336 64.4472 103.721 60.7559L103.727 60.744ZM35.4635 51.9176C35.0447 51.9625 34.6134 51.9354 34.1956 51.8973C33.1738 51.8006 32.1557 51.671 31.1308 51.5655C30.3942 51.4838 29.6644 51.3778 28.9104 51.4894C28.4313 51.5608 27.929 51.4718 27.4152 51.2653C27.1445 50.1968 27.6305 49.3993 28.1694 48.6408C29.1744 48.5198 30.0902 48.501 31.0085 48.607C32.3108 48.7599 33.6177 48.8717 34.9173 49.0492C35.47 49.1271 36.0103 49.3158 36.5534 49.48C36.8668 49.5729 36.9731 49.8339 36.9749 50.1498C36.9926 51.3563 36.6456 51.7871 35.4675 51.9181L35.4635 51.9176ZM47.6086 74.7604C47.4293 75.6377 46.815 76.1884 46.0768 76.6008C45.3386 77.0131 44.5325 77.1147 43.7023 77.0641C43.4905 77.0531 43.2773 77.0169 43.168 77.0048C41.5611 76.9012 40.2721 76.2597 39.08 75.3715C38.2892 74.7811 37.8315 73.9952 37.8491 72.9878C37.8627 72.2375 37.8462 71.4631 38.0046 70.7372C38.2934 69.4276 38.9506 68.3417 40.2288 67.7525C40.4489 67.6523 40.6695 67.5107 40.8397 67.3427C41.1433 67.0441 41.5077 66.935 41.9004 66.9038C45.1081 66.6492 47.1331 68.8552 47.6267 71.0159C47.9102 72.2644 47.8527 73.5207 47.6 74.7636L47.6086 74.7604Z" fill="#4AB2C2"/>
<path fill-rule="evenodd" clip-rule="evenodd" d="M31.7384 30.4372C31.7735 30.1212 31.8008 29.875 31.8286 29.6248C31.9245 28.8338 32.389 28.3038 33.078 28.0023C33.4961 27.8161 33.9564 27.6554 34.4053 27.6346C35.2874 27.5871 36.1788 27.6403 37.0657 27.6598C37.7727 27.676 38.4824 27.7049 39.1926 27.7297C39.4741 27.7402 39.7606 27.7429 40.044 27.7744C41.1412 27.892 42.2413 27.985 43.33 28.1432C44.4546 28.3096 45.5621 28.5571 46.6008 29.0545C46.7604 29.1304 46.9195 29.2103 47.0732 29.3022C47.3033 29.444 47.4145 29.6599 47.4002 29.9366C47.3768 30.2953 47.3372 30.6523 47.3259 31.0124C47.3197 31.2526 47.4472 31.4329 47.6837 31.48C47.9602 31.5356 48.2431 31.5711 48.5269 31.5985C50.8254 31.8203 53.1302 32.0221 55.4273 32.2563C58.895 32.6121 62.3523 33.0249 65.8242 33.3437C68.6187 33.5999 71.4242 33.7576 74.2251 33.9563C75.5383 34.048 76.8493 34.1229 78.1625 34.2147C79.6628 34.3189 81.1147 34.6378 82.5349 35.1319C84.1879 35.7058 85.8957 36.0449 87.6225 36.2864C87.7597 36.3057 87.9009 36.2882 87.999 36.2908C88.2375 35.8396 88.4549 35.4317 88.6722 35.0239C88.8174 34.7492 89.0474 34.5962 89.3506 34.5592C90.6538 34.4089 91.9496 34.1415 93.2739 34.3176C94.0127 34.4162 94.7552 34.5194 95.5013 34.5523C96.3329 34.5906 97.1016 34.8629 97.8844 35.0826C98.9054 35.3704 99.4592 36.2875 99.4019 37.3943C99.3945 37.5721 99.387 37.7499 99.3805 37.9568C99.5157 38.03 99.6299 38.1091 99.7603 38.1527C100.797 38.5211 101.845 38.8617 102.876 39.2461C104.17 39.7262 104.97 40.6789 105.377 41.9951C105.646 42.8598 105.781 43.747 105.812 44.6518C105.879 46.6696 105.876 48.6838 105.62 50.6948C105.549 51.2601 105.579 51.8408 105.561 52.412C105.557 52.4822 105.577 52.5633 105.553 52.6271C105.084 53.8668 105.204 55.1843 105.066 56.4649C104.879 58.1846 104.765 59.9123 104.587 61.6328C104.233 65.0037 103.86 68.3682 103.482 71.7364C103.414 72.3436 103.27 72.9382 103.171 73.5419C103.095 74.0028 103.011 74.467 102.959 74.9306C102.665 77.5106 102.387 80.0882 102.092 82.6681C101.997 83.5257 101.853 84.3819 101.746 85.2381C101.687 85.6927 101.52 86.0562 101.115 86.3062C100.939 86.4154 100.727 86.5539 100.658 86.7331C100.272 87.7329 99.3375 88.219 98.6636 88.9375C98.5105 89.0991 98.2167 89.1621 97.9756 89.1934C97.3445 89.2688 96.7084 89.3145 96.0737 89.3479C94.66 89.4236 93.2411 89.3243 91.8347 89.5918C90.324 89.8769 88.8128 89.8712 87.2761 89.6882C81.0968 88.9567 74.9115 88.2785 68.7335 87.5721C68.1385 87.5061 67.5509 87.337 66.9614 87.2217C66.6125 87.1539 66.264 87.082 65.9119 87.0429C62.307 86.6304 58.7054 86.2265 55.1001 85.8181C54.8168 85.7866 54.5317 85.7342 54.251 85.7529C52.2803 85.8997 50.3618 85.4293 48.4154 85.2839C47.171 84.8301 45.8221 84.8756 44.5623 84.4866C44.3919 84.4344 44.2161 84.3942 44.0416 84.3789C42.1267 84.2079 40.2359 83.8943 38.3518 83.519C38.2115 83.491 38.0676 83.4958 37.9327 83.4559C36.106 82.9333 34.2193 82.8402 32.3481 82.645C30.9265 82.4955 29.5443 82.2134 28.183 81.7798C27.5379 81.5753 26.8999 81.3799 26.3274 81.0007C25.9836 80.7756 25.7218 80.514 25.5806 80.1245C25.3548 79.5013 25.0317 78.9795 24.3974 78.6765C23.9736 78.4716 23.6858 78.0742 23.5749 77.5966C23.2927 76.4106 22.9984 75.2233 22.7707 74.0267C22.5192 72.7111 22.4878 71.3702 22.6106 70.0422C22.8959 66.9919 22.9783 63.9232 23.4255 60.8909C23.7088 58.966 24.0325 57.0456 24.3396 55.1274C24.4313 54.5603 24.5314 53.9899 24.5988 53.42C24.9966 49.9834 25.3903 46.5464 25.776 43.1085C25.8311 42.612 25.865 42.1215 25.8032 41.6079C25.7423 41.1235 25.8572 40.6046 25.9528 40.1126C26.0764 39.4784 26.2725 38.8563 26.4083 38.2234C26.6002 37.3434 26.7876 36.467 27.1508 35.6309C27.2771 35.3417 27.278 35.0012 27.354 34.6857C27.611 33.5886 27.9749 32.5615 28.7893 31.7215C29.3631 31.1289 30.0153 30.7527 30.8062 30.6037C31.0865 30.5517 31.3623 30.5034 31.755 30.4349L31.7384 30.4372ZM26.1772 46.0647C26.1127 46.5352 26.0537 46.9191 26.0064 47.3084C25.6242 50.4934 25.3882 53.6904 24.8401 56.8569C24.5404 58.5972 24.2889 60.347 24.1106 62.1009C23.8448 64.7546 23.6522 67.4123 23.4597 70.07C23.4011 70.8568 23.4436 71.6549 23.4542 72.4452C23.4771 74.1217 24.0318 75.6952 24.3984 77.3018C24.4346 77.4553 24.5765 77.6164 24.7091 77.7142C25.4024 78.2231 26.1548 78.6057 27.0159 78.747C27.7161 78.862 28.4135 79.0017 29.11 79.1497C30.3996 79.4174 31.7001 79.5866 33.0205 79.6501C34.7934 79.7347 36.5699 79.8239 38.3396 79.9746C40.0728 80.1213 41.8023 80.3382 43.5332 80.5427C44.027 80.5975 44.5144 80.7098 44.9996 80.8052C46.5361 81.1003 48.0585 81.4852 49.6059 81.6819C51.8602 81.9695 54.1272 82.1796 56.3989 82.3112C58.3813 82.4274 60.3719 82.5071 62.3607 82.2709C63.2365 82.1688 64.1419 82.2069 65.0211 82.2962C67.7436 82.5734 70.4621 82.8876 73.1782 83.2223C74.2332 83.3518 75.285 83.5475 76.3318 83.7509C77.9721 84.07 79.5971 84.4539 81.2397 84.7525C82.5653 84.991 83.904 85.2226 85.2464 85.3093C87.943 85.4881 90.6273 85.7777 93.3121 86.1006C94.0518 86.191 94.7933 86.3024 95.5385 86.3436C96.1372 86.3768 96.7515 86.3785 97.34 86.2818C98.3207 86.1207 99.2863 85.8748 100.26 85.6631C100.609 85.5855 100.816 85.38 100.862 85.003C100.938 84.4299 101.046 83.8645 101.117 83.2951C101.607 79.4741 101.947 75.6324 102.518 71.8163C103.068 68.1516 103.337 64.439 103.722 60.7477C103.865 59.3846 103.992 58.0238 104.114 56.6584C104.137 56.42 104.098 56.1748 104.084 55.9364C103.888 55.8898 103.754 55.8417 103.617 55.8264C100.995 55.5686 98.4171 55.0541 95.8352 54.5433C94.6845 54.3159 93.5325 54.1008 92.3814 53.8775C91.09 53.6262 89.8035 53.3671 88.5121 53.1158C87.678 52.9526 86.8394 52.7931 85.9999 52.6418C85.807 52.6079 85.6064 52.6064 85.3752 52.5849C85.527 53.3951 85.7325 54.1282 85.7931 54.8742C85.8829 55.9849 85.8813 57.1062 85.8929 58.2206C85.914 60.2084 85.6468 62.1725 85.4404 64.1433C85.2841 65.6254 84.9736 67.0572 84.3241 68.4056C84.2388 68.5831 84.2161 68.7882 84.1519 69.0345C84.7094 69.142 85.2009 69.2174 85.6802 69.3287C86.4347 69.508 86.6893 69.8353 86.6459 70.6321C86.6031 71.3875 86.4995 72.1361 86.4359 72.8933C86.4008 73.284 86.2147 73.5582 85.9071 73.7816C85.3718 74.175 84.7913 74.3847 84.1274 74.4231C82.8081 74.4969 81.5062 74.3773 80.2269 74.1273C80.1157 74.2063 80.0234 74.2626 79.946 74.3329C78.1113 76.0233 76.0325 77.3294 73.7494 78.2972C72.722 78.7314 71.6749 79.0472 70.5541 79.0682C69.9874 79.0801 69.417 79.1248 68.8511 79.1658C66.4887 79.3356 64.1559 79.1639 61.8923 78.4433C59.1062 77.5568 56.4199 76.4362 54.0277 74.6962C53.4211 74.255 52.8474 73.776 52.2413 73.3307C51.6881 72.9246 51.2089 72.4436 50.8382 71.8708C50.4499 71.2711 50.0757 70.6564 49.7617 70.0151C48.7323 67.9196 47.8281 65.7674 47.1079 63.5442C46.7325 62.3852 46.3388 61.2076 46.3616 59.9682C46.3975 58.0947 46.5759 56.2288 47.0731 54.4065C47.5608 52.6331 48.1272 50.8891 48.9454 49.2396C49.0356 49.0544 49.0871 48.8483 49.1666 48.612C48.9422 48.5663 48.7723 48.5101 48.601 48.5035C47.2863 48.4615 45.9725 48.4486 44.6602 48.386C43.0627 48.3084 41.467 48.2144 39.875 48.0875C39.2049 48.0339 38.5449 47.8527 37.8784 47.7663C35.5872 47.4787 33.2883 47.2236 30.9985 46.9238C30.1544 46.8135 29.3226 46.6298 28.4844 46.4661C27.7546 46.3228 27.0525 46.0414 26.1718 46.0766L26.1772 46.0647ZM51.6618 32.8851C51.6029 33.269 51.5515 33.6205 51.4886 33.9666C51.3553 34.7244 51.0768 35.4245 50.5777 36.0087C50.3984 36.2214 50.1696 36.437 49.9171 36.5336C49.2228 36.8095 48.5297 37.1106 47.7664 37.1214C46.7364 37.1359 45.7064 37.1503 44.6796 37.136C43.4729 37.1184 42.2644 37.0798 41.0604 37.0376C39.8195 36.9954 38.5756 36.8698 37.3356 36.8942C34.5964 36.9515 31.8635 36.9514 29.1448 36.5292C29.004 36.5053 28.8628 36.4855 28.7198 36.4821C28.5152 36.4801 28.3118 36.5033 28.1099 36.5141C27.2938 38.5875 26.9698 40.6948 26.8795 42.9111C28.528 43.2312 30.117 43.6069 31.7555 43.6101C32.5381 43.6098 33.3212 43.5679 34.0993 43.5712C36.2375 43.5759 38.3497 43.8892 40.4641 44.1821C41.9085 44.3839 43.3525 44.5525 44.8189 44.4452C45.1703 44.4178 45.5278 44.445 45.8845 44.443C47.7371 44.4368 49.577 44.5455 51.4176 44.7581C51.4824 44.7653 51.5526 44.7232 51.7083 44.6865C52.385 43.7938 53.3139 43.0662 54.2428 42.3386C54.6647 42.0074 55.0794 41.6671 55.4761 41.3041C55.9409 40.8822 56.4738 40.6215 57.0847 40.5065C57.3232 40.4624 57.5526 40.3882 57.7259 40.341C58.3944 38.8949 59.2525 37.661 60.0301 36.3766C60.4764 35.6411 61.1159 35.3424 61.8783 35.3024C62.8346 35.2507 63.7999 35.2291 64.7528 35.3182C66.8786 35.5085 68.9967 35.7685 71.113 36.0075C71.3963 36.039 71.6783 36.0827 71.9535 36.1506C72.8828 36.3784 73.8122 36.6061 74.7393 36.8544C75.2168 36.9822 75.692 37.1304 76.1618 37.2906C76.9278 37.5501 77.5654 38.0071 77.9882 38.702C78.3593 39.3081 78.7025 39.9443 78.9647 40.6089C79.2525 41.3386 79.4579 42.1091 79.6476 42.8736C79.801 43.4846 80.1389 44.0579 80.0244 44.5727C81.1174 45.8363 82.1197 46.9942 83.202 48.2441C83.6958 48.2989 84.298 48.3367 84.8893 48.4355C86.1479 48.65 87.4006 48.9178 88.6637 49.1286C91.0452 49.5258 93.4429 49.85 95.8199 50.2883C98.3011 50.7464 100.764 51.298 103.235 51.805C103.648 51.8882 104.063 51.9882 104.542 51.8502C104.59 51.5981 104.645 51.3592 104.676 51.1175C104.931 49.0026 105.015 46.8811 104.928 44.753C104.893 43.8852 104.778 43.0335 104.51 42.2062C104.176 41.1889 103.553 40.4552 102.546 40.0776C101.779 39.7889 101.021 39.4889 100.249 39.2162C99.9847 39.1204 99.6992 39.0721 99.4168 39.0325C98.2233 38.8585 97.0231 38.7087 95.826 38.5301C93.5772 38.1933 91.3283 37.8565 89.0817 37.4992C88.1356 37.3485 87.1936 37.1609 86.2525 36.965C85.2115 36.7457 84.149 36.5737 83.1464 36.2299C80.8689 35.4496 78.5419 35.0418 76.1465 34.9546C75.1184 34.9152 74.0871 34.8672 73.0581 34.7987C69.6177 34.5664 66.1818 34.2931 62.7546 33.9044C59.3274 33.5157 55.8938 33.2219 52.4597 32.8947C52.2209 32.8682 51.9762 32.8951 51.665 32.8938L51.6618 32.8851ZM84.6438 62.2024C84.9396 59.9798 84.9661 57.7481 84.8778 55.5161C84.8039 53.672 84.1441 52.0121 83.2885 50.4177C81.7134 47.4808 79.4726 45.1511 76.8378 43.1973C74.8388 41.7169 72.5223 40.8824 70.2255 40.0169C70.0291 39.9411 69.811 39.9128 69.6019 39.8771C68.1616 39.6383 66.7203 39.4452 65.255 39.4321C64.2889 39.4245 63.3433 39.5646 62.4213 39.861C61.9497 40.0122 61.4785 40.1967 60.9909 40.2713C59.5657 40.487 58.2816 41.1295 56.9362 41.5866C56.6086 41.6956 56.3119 41.9327 56.0336 42.151C55.3564 42.6781 54.7152 43.2508 54.0344 43.7733C53.3176 44.3251 52.7005 44.9752 52.1881 45.7158C50.6504 47.9418 49.3523 50.2982 48.5585 52.91C48.2355 53.9748 47.9313 55.0542 47.7197 56.1481C47.5322 57.1366 47.4849 58.1531 47.3698 59.1538C47.2933 59.8431 47.3751 60.5085 47.5087 61.1879C47.8272 62.785 48.4089 64.2991 48.992 65.801C49.5792 67.3033 50.286 68.7608 50.9848 70.2173C51.3741 71.0289 51.9034 71.7606 52.6105 72.3292C53.2764 72.8641 53.9553 73.3922 54.6454 73.8925C56.8328 75.4852 59.288 76.5095 61.824 77.36C64.008 78.0966 66.253 78.3582 68.5538 78.1525C69.1539 78.0987 69.7616 78.0872 70.3656 78.0712C71.2247 78.0461 72.0678 77.907 72.8594 77.5671C73.643 77.2262 74.4444 76.9081 75.1912 76.4926C76.9426 75.5156 78.6096 74.413 79.952 72.8756C80.4728 72.2813 80.9747 71.6724 81.4914 71.0777C83.0964 69.2413 84.0349 67.0984 84.3688 64.6806C84.4805 63.8582 84.5518 63.0312 84.6429 62.2106L84.6438 62.2024ZM26.137 79.4677C26.3573 79.8452 26.4132 80.0798 26.5629 80.1712C26.9498 80.4135 27.3614 80.6544 27.793 80.7896C29.3585 81.2665 30.9326 81.7029 32.5836 81.7781C33.0441 81.8002 33.5005 81.8965 33.9611 81.9185C35.8149 82.0121 37.6183 82.449 39.4273 82.7993C40.7232 83.047 42.016 83.2486 43.3229 83.3978C43.7479 83.445 44.1914 83.4361 44.5861 83.5713C45.8732 84.009 47.2703 83.8982 48.542 84.4008C50.4156 84.5381 52.264 85.0132 54.1636 84.8419C54.4079 84.8192 54.6606 84.868 54.9075 84.8954C58.6882 85.3108 62.4693 85.7222 66.2491 86.1458C66.5648 86.1809 66.8764 86.2528 67.1889 86.3166C67.71 86.4201 68.2217 86.5724 68.7478 86.6308C74.9322 87.3172 81.1157 87.9744 87.2968 88.6895C88.9715 88.8836 90.6156 88.8003 92.2711 88.5396C92.8969 88.4387 93.5402 88.3274 94.1667 88.3678C95.3018 88.4398 96.4265 88.2739 97.555 88.2579C97.7232 88.2558 97.9257 88.2035 98.0522 88.0971C98.4394 87.7829 98.8015 87.4368 99.1632 87.0948C99.1996 87.0614 99.1809 86.9721 99.1964 86.8326C98.8814 86.9015 98.5769 86.9508 98.2772 87.0297C97.2671 87.308 96.2478 87.3735 95.213 87.2462C94.7885 87.1949 94.3685 87.14 93.9435 87.0928C91.5758 86.83 89.2168 86.4519 86.8413 86.3337C83.5528 86.1722 80.3662 85.4613 77.1556 84.8558C75.759 84.5928 74.3637 84.3175 72.9625 84.0955C71.5932 83.8812 70.2154 83.7076 68.8384 83.563C66.8947 83.3556 64.9575 83.0534 62.995 83.1264C62.1431 83.1606 61.2951 83.3074 60.4446 83.2919C58.1715 83.2473 55.893 83.2145 53.6295 83.0464C51.008 82.8552 48.3917 82.544 45.8261 81.9228C45.1 81.7467 44.3756 81.5542 43.6413 81.4519C40.0447 80.9655 36.4302 80.7139 32.8088 80.5238C31.7497 80.4686 30.6893 80.3135 29.6384 80.147C28.5511 79.9765 27.4801 79.733 26.1329 79.4672L26.137 79.4677ZM28.4556 35.6137C28.6175 35.6691 28.7141 35.7213 28.8153 35.7326C31.0399 36.0293 33.2783 36.0908 35.5205 36.0448C37.5122 36.0041 39.4967 35.917 41.479 36.1827C41.8625 36.2336 42.2579 36.2152 42.6506 36.2214C43.8204 36.239 44.9916 36.2444 46.1646 36.2708C47.2026 36.2946 48.2183 36.2246 49.2034 35.8396C49.5117 35.7201 49.7894 35.5807 49.9764 35.2982C50.4713 34.5307 50.763 33.7116 50.6235 32.7159C50.2449 32.6572 49.8996 32.594 49.552 32.5513C47.8206 32.3508 46.0924 32.159 44.3597 31.9708C43.7242 31.9003 43.0879 31.838 42.4474 31.8126C41.1337 31.7623 39.8169 31.666 38.5075 31.7242C37.186 31.7811 35.8943 31.4218 34.579 31.5707C34.4751 31.5841 34.3401 31.5816 34.2687 31.5238C33.8608 31.1753 33.3852 31.326 32.9408 31.3432C32.2004 31.369 31.4479 31.3935 30.7204 31.5246C29.993 31.6557 29.4635 32.0704 29.1844 32.8494C28.8657 33.7278 28.6 34.608 28.4601 35.6101L28.4556 35.6137ZM58.9008 39.9065C59.1126 39.9549 59.1818 39.9958 59.2367 39.9811C59.85 39.8083 60.4704 39.6445 61.0748 39.4416C62.4967 38.9598 63.9374 38.5672 65.445 38.6058C68.1211 38.6744 70.7564 38.9627 73.1834 40.2414C73.5281 40.4209 73.8986 40.5533 74.2591 40.7014C75.6094 41.2707 76.8484 42.0313 78.0063 42.9324C78.2251 43.102 78.4488 43.2639 78.6721 43.4299C78.7294 43.3574 78.7735 43.329 78.7726 43.2998C78.7675 43.1248 78.7713 42.9425 78.7333 42.768C78.4897 41.6776 78.035 40.6801 77.5267 39.685C77.0755 38.8042 76.4514 38.2988 75.5621 38.0423C74.7798 37.8184 73.9989 37.5822 73.2143 37.3788C72.4612 37.1872 71.7023 36.9742 70.9346 36.8766C68.7891 36.6052 66.635 36.3745 64.484 36.1524C63.9579 36.094 63.4119 36.0666 62.8919 36.1377C61.922 36.2751 61.016 36.6854 60.4019 37.4563C59.8306 38.1738 59.4283 39.0304 58.9053 39.9028L58.9008 39.9065ZM50.9788 45.6481C50.3352 45.5767 49.8815 45.4931 49.4241 45.4797C47.6143 45.4325 45.8017 45.41 43.9914 45.3669C43.3173 45.3502 42.6408 45.354 41.973 45.2799C39.9241 45.0608 37.8802 44.7966 35.8314 44.5775C35.0907 44.4953 34.3383 44.4451 33.5966 44.4832C31.7749 44.5801 29.9755 44.4759 28.1985 44.0585C27.819 43.9707 27.4283 43.9108 27.0438 43.8681C26.8454 43.8461 26.6412 43.8774 26.3655 43.8883C26.3823 44.4011 26.1411 44.8395 26.3842 45.3068C26.9962 45.4038 27.6065 45.4425 28.182 45.6102C29.2138 45.9116 30.2697 46.0329 31.3297 46.1547C32.3896 46.2765 33.4505 46.3901 34.5046 46.5279C36.3016 46.7647 38.0894 47.0836 39.8901 47.2502C41.9417 47.4446 44.0015 47.5279 46.0596 47.6275C47.2617 47.6862 48.4703 47.6874 49.6927 47.7109C50.1308 47.0866 50.5472 46.4724 50.9828 45.6485L50.9788 45.6481ZM84.9484 51.5573C85.7267 51.7434 86.4447 51.9933 87.1813 52.0751C89.9456 52.3819 92.6262 53.1114 95.3611 53.5727C95.92 53.668 96.4821 53.7719 97.0388 53.8877C99.198 54.3309 101.369 54.7088 103.564 54.9318C103.767 54.9542 103.972 54.9147 104.199 54.9025C104.335 54.2281 104.453 53.6057 104.363 52.9062C103.888 52.8286 103.436 52.7659 102.986 52.6828C102.533 52.5992 102.083 52.4828 101.63 52.391C100.548 52.1754 99.4688 51.9643 98.3856 51.7568C95.8383 51.2664 93.2982 50.7478 90.7423 50.298C88.5403 49.9082 86.3003 49.7136 84.1431 49.0671C84.024 49.0331 83.8868 49.0511 83.7807 49.0477C83.7459 49.1393 83.7121 49.1854 83.7224 49.2032C84.1172 49.9656 84.5119 50.728 84.9444 51.5568L84.9484 51.5573ZM98.3798 37.8915C98.6152 36.8044 98.3907 36.2063 97.5647 35.9693C96.858 35.7662 96.1594 35.4893 95.4056 35.4513C94.7697 35.4223 94.1302 35.3513 93.5074 35.2407C92.2983 35.0234 91.1074 35.2318 89.9123 35.3318C89.6271 35.3541 89.362 35.4535 89.1961 35.73C89.0451 35.9832 88.9193 36.2309 89.0794 36.5228C90.1292 36.847 95.9062 37.7706 97.9848 37.9432C98.1184 37.958 98.2588 37.9113 98.3834 37.896L98.3798 37.8915ZM83.7433 69.7991C83.359 70.3089 82.9624 70.8547 82.5394 71.3809C82.0924 71.9377 81.6194 72.4709 81.1644 73.0268C81.1076 73.0953 81.1223 73.2215 81.1073 73.3195C82.1271 73.5822 83.7002 73.6945 84.4853 73.5241C84.758 73.4672 85.0176 73.3423 85.2692 73.2166C85.4992 73.1009 85.6641 72.9073 85.6982 72.637C85.7855 71.9613 85.8768 71.2861 85.9317 70.6068C85.9632 70.249 85.8205 70.0587 85.4706 69.9991C84.9153 69.9084 84.3545 69.8669 83.7433 69.7991ZM44.3799 29.3522C43.796 29.0381 43.7956 29.0423 43.1348 29.1267C43.0836 29.6984 42.933 30.2798 43.0397 30.869C43.5016 31.0144 43.9831 31.0568 44.4842 30.9961C44.3806 30.4529 44.7088 29.8954 44.3803 29.3481L44.3799 29.3522ZM42.2997 29.0091C41.8988 28.8193 41.5035 28.7629 41.0513 28.8872C40.9753 29.535 40.8368 30.1552 40.938 30.831C41.1768 30.8575 41.3814 30.8968 41.586 30.8987C41.7862 30.9043 41.9864 30.8726 42.2009 30.859C42.3628 30.2124 42.4931 29.6287 42.3037 29.0096L42.2997 29.0091ZM38.0252 30.5326C38.3193 29.6182 38.3275 29.5444 38.1995 28.7036C37.8542 28.6404 37.4954 28.5133 37.0617 28.6563C36.876 29.2213 36.8046 29.7907 36.891 30.4151C37.168 30.4666 37.4041 30.5177 37.6429 30.5442C37.7724 30.5586 37.9101 30.5365 38.0257 30.5285L38.0252 30.5326ZM34.9511 28.5134C34.7804 29.2144 34.7364 29.8076 34.8191 30.2931C35.1955 30.2975 35.5715 30.306 36.0092 30.313C36.1198 29.6857 36.3014 29.1201 36.1583 28.4522C35.7463 28.4729 35.3671 28.4931 34.9506 28.5175L34.9511 28.5134ZM39.2053 28.6117C39.0439 29.2542 38.986 29.8127 39.001 30.3792C39.0027 30.4376 39.0701 30.4949 39.1428 30.6151C39.4045 30.6193 39.7032 30.6233 40.0387 30.6273C40.1578 30.0715 40.2484 29.5873 40.2095 29.0887C40.1909 28.8499 40.0526 28.6933 39.8237 28.6513C39.6551 28.6201 39.4824 28.6259 39.2053 28.6117ZM45.2631 29.4793C45.1502 30.1271 45.0577 30.6278 45.0466 31.2081C45.5107 31.2346 45.904 31.4195 46.3779 31.2104C46.4297 30.8174 46.5805 30.4188 46.4166 29.9396C46.087 29.8075 45.7342 29.6645 45.2631 29.4793ZM32.5631 30.2421C32.9892 30.4389 33.4333 30.4121 33.8954 30.1615C33.934 29.9249 33.9941 29.6782 34.0134 29.4311C34.0344 29.1676 34.208 28.8961 34.0194 28.6384C32.8694 28.8846 32.655 29.1184 32.5631 30.2421Z" fill="#008297" stroke="#008297" stroke-width="0.5"/>
<path fill-rule="evenodd" clip-rule="evenodd" d="M43.1685 77.0008C41.5616 76.8972 40.2725 76.2557 39.0805 75.3674C38.2897 74.7771 37.832 73.9911 37.8496 72.9837C37.8632 72.2334 37.8467 71.459 38.0051 70.7331C38.2939 69.4235 38.9511 68.3376 40.2293 67.7485C40.4494 67.6483 40.6699 67.5066 40.8402 67.3386C41.1437 67.04 41.5082 66.9309 41.9009 66.8997C45.1086 66.6452 47.1336 68.8512 47.6272 71.0118C47.9107 72.2603 47.8532 73.5166 47.6005 74.7596C47.4212 75.6368 46.8069 76.1876 46.0688 76.5999C45.3306 77.0123 44.5244 77.1139 43.6942 77.0633C43.4824 77.0522 43.2692 77.0161 43.16 77.004L43.1685 77.0008ZM43.1116 76.1845C43.4655 76.2072 43.8226 76.2759 44.1743 76.2443C44.6296 76.2034 45.1033 76.1439 45.5191 75.9782C46.3683 75.6363 46.8927 75.0091 46.9965 74.0363C47.0849 73.2403 47.0986 72.4526 47.0016 71.6651C46.7796 69.8627 45.7504 68.652 44.1898 67.8723C43.7044 67.6316 43.1724 67.5517 42.6387 67.7459C41.8701 68.0261 41.0885 68.2758 40.3495 68.6216C40.0165 68.7799 39.7309 69.1012 39.4925 69.4029C38.682 70.4303 38.6362 71.6546 38.6584 72.8949C38.6708 73.6688 39.001 74.2745 39.6144 74.7289C40.6631 75.5057 41.7917 76.0795 43.1121 76.1804L43.1116 76.1845Z" fill="#008297" stroke="#008297" stroke-width="0.5"/>
<path fill-rule="evenodd" clip-rule="evenodd" d="M27.4112 51.2651C27.1405 50.1966 27.6265 49.3991 28.1654 48.6406C29.1704 48.5196 30.0862 48.5008 31.0044 48.6068C32.3068 48.7597 33.6137 48.8715 34.9133 49.0489C35.4659 49.1269 36.0063 49.3156 36.5494 49.4797C36.8628 49.5727 36.969 49.8337 36.9708 50.1496C36.9885 51.3561 36.6416 51.7869 35.4635 51.9178C35.0447 51.9627 34.6134 51.9356 34.1956 51.8976C33.1738 51.8008 32.1557 51.6712 31.1308 51.5658C30.3942 51.484 29.6644 51.3781 28.9104 51.4896C28.4313 51.5611 27.929 51.4721 27.4152 51.2655L27.4112 51.2651ZM36.1112 50.2535C35.71 49.9182 35.3013 49.8355 34.8722 49.7879C33.3909 49.6235 31.915 49.4472 30.4314 49.3033C29.9772 49.2612 29.5134 49.3053 29.0559 49.3293C28.7924 49.3416 28.5722 49.4791 28.4666 49.7291C28.3646 49.9836 28.1075 50.196 28.2662 50.5749C28.402 50.6066 28.5755 50.7048 28.7303 50.6763C29.5153 50.5433 30.2838 50.6701 31.0609 50.7563C32.0484 50.8659 33.0337 50.9961 34.0195 51.0847C34.5106 51.1267 35.0098 51.1323 35.5019 51.0914C35.9896 51.0541 36.0423 50.9478 36.1071 50.2531L36.1112 50.2535Z" fill="#008297" stroke="#008297" stroke-width="0.5"/>
<path fill-rule="evenodd" clip-rule="evenodd" d="M84.4891 38.6051C85.1213 38.4094 85.7231 38.3765 86.3244 38.4225C88.4111 38.5959 90.5042 38.7119 92.5608 39.1935C93.4911 39.4131 94.4635 39.4379 95.411 39.5763C95.9353 39.6511 96.4533 39.7834 96.9749 39.8828C97.3562 39.9542 97.742 40.0219 98.1278 40.0897C98.9354 40.2333 99.6965 40.5005 100.429 40.8767C101.08 41.2148 101.336 41.7541 101.391 42.4372C101.518 44.0629 101.274 45.6682 101.075 47.2744C101.048 47.5165 100.896 47.7446 100.844 47.9881C100.674 48.8248 100.066 49.0606 99.3483 49.1014C98.8535 49.1295 98.3498 49.1276 97.8623 49.0528C96.6338 48.8624 95.4216 48.5991 94.1931 48.4088C92.5373 48.1544 90.9259 47.7222 89.3245 47.2371C89.0233 47.1455 88.6981 47.1219 88.3788 47.0823C87.2825 46.9565 86.1892 46.8393 85.0924 46.7176C84.8455 46.6902 84.6 46.6504 84.3517 46.6354C83.839 46.6034 83.5831 46.2884 83.5212 45.8121C83.4406 45.2092 83.3222 44.6146 83.3955 43.9914C83.5425 42.7408 83.6292 41.4795 83.7641 40.2276C83.795 39.9486 83.9034 39.674 84.0179 39.4167C84.133 39.1554 84.3029 38.9167 84.4855 38.6005L84.4891 38.6051ZM92.0995 40.0644C91.1447 39.6968 90.3042 39.5911 89.4742 39.7232C89.2489 40.6826 88.768 45.3851 88.8249 46.164C89.633 46.3035 90.3894 46.7239 91.2322 46.7718C91.4888 45.9363 91.9093 42.6643 92.0995 40.0644ZM97.6074 48.0276C97.8448 46.0727 98.0749 44.2582 98.2762 42.4446C98.3267 41.9892 98.2797 41.5271 98.1967 41.0194C97.3701 40.9734 96.6406 40.5684 95.7919 40.5739C95.5667 41.7909 95.485 42.9697 95.3719 44.1368C95.2592 45.2998 95.0161 46.4565 95.0743 47.6676C95.9001 47.942 96.6935 47.9926 97.6074 48.0276ZM92.76 40.2042C92.567 42.5337 92.2294 44.7267 92.1032 46.9349C92.7971 47.3276 93.463 47.4555 94.1571 47.4038C94.4274 46.4078 95.0145 41.3765 94.9649 40.4572C94.304 40.2842 93.6128 40.2365 92.76 40.2042ZM88.6905 39.549C87.9922 39.3801 87.378 39.2663 86.7064 39.3371C86.5448 40.0544 86.3577 40.7439 86.2348 41.4447C86.131 42.0479 86.055 42.6583 86.0407 43.2673C86.0194 44.05 86.0669 44.8403 86.0987 45.6247C86.1013 45.7122 86.2064 45.7986 86.284 45.9111C86.8255 45.9795 87.3627 46.1596 87.9774 45.9744L88.6909 39.5449L88.6905 39.549ZM98.9712 41.3504C98.9892 43.6618 98.5126 45.8519 98.4214 48.0764C98.9321 48.2743 99.3715 48.3023 99.7986 48.0714C100.125 47.605 100.26 47.0925 100.304 46.5409C100.336 46.1083 100.372 45.6761 100.447 45.2525C100.612 44.357 100.548 43.461 100.5 42.5668C100.484 42.3034 100.377 41.9717 100.195 41.8061C99.8894 41.5313 99.5146 41.2903 98.9712 41.3504ZM85.1311 45.7416C85.4361 44.9863 85.2005 44.2665 85.2505 43.5576C85.3014 42.8405 85.4544 42.1265 85.4725 41.4099C85.4951 40.6897 86.0055 40.0776 85.9058 39.3147L85.3634 39.2545C84.8993 40.0891 84.6199 40.9331 84.5252 41.7866C84.4537 42.4308 84.4025 43.0772 84.3067 43.7187C84.2095 44.3725 84.2833 44.9996 84.4435 45.6611L85.1315 45.7375L85.1311 45.7416Z" fill="#008297" stroke="#008297" stroke-width="0.5"/>
<path fill-rule="evenodd" clip-rule="evenodd" d="M82.1249 61.4201C82.0286 62.805 81.7373 64.3594 81.1977 65.8613C81.0384 66.3005 80.8745 66.7433 80.6414 67.1453C79.8624 68.4794 79.0528 69.7934 78.2468 71.112C77.6712 72.0533 76.8418 72.6965 75.9414 73.3151C74.0438 74.6123 71.9489 75.1773 69.7125 75.2821C68.8601 75.3204 68.0033 75.325 67.1573 75.2685C64.9532 75.1194 62.7776 74.824 60.6773 74.0717C59.8024 73.7586 58.9452 73.435 58.1768 72.9011C57.9144 72.7183 57.6276 72.5702 57.3395 72.4344C56.0095 71.7925 54.8642 70.8886 53.7821 69.8963C51.6182 67.9075 50.5616 65.3936 50.3955 62.4593C50.3608 61.849 50.2807 61.242 50.2586 60.629C50.2361 59.9827 50.2302 59.3341 50.2613 58.6854C50.2882 58.0737 50.4006 57.4672 50.4234 56.855C50.4798 55.4242 50.8851 54.0984 51.5295 52.8325C52.3941 51.1341 53.1817 49.3898 54.4602 47.9491C56.4134 45.7444 58.631 43.9262 61.5103 43.0868C62.4291 42.8192 63.3161 42.4316 64.2211 42.1042C65.378 41.6844 66.5611 41.5083 67.7875 41.6444C68.4594 41.719 69.1421 41.6951 69.8045 41.8184C70.6755 41.9816 71.5293 42.2258 72.3781 42.4779C72.6357 42.5563 72.9022 42.7396 73.0755 42.9499C73.4082 43.3482 73.851 43.5676 74.2576 43.8536C75.4506 44.6963 76.6999 45.4746 77.7943 46.431C79.0265 47.5106 80.1047 48.76 80.8196 50.2931C81.2663 51.2523 81.4767 52.2726 81.6705 53.2951C81.9398 54.7081 82.1421 56.1345 82.3155 57.5618C82.4663 58.7872 82.2901 60.0055 82.1281 61.4288L82.1249 61.4201ZM81.3607 61.1442C81.5671 59.5431 81.676 57.8605 81.3715 56.1736C81.1358 54.864 80.8916 53.5575 80.6514 52.2516C80.501 51.4291 80.1795 50.6707 79.7851 49.9416C79.1463 48.7575 78.2715 47.7425 77.2764 46.8885C75.8734 45.6861 74.4506 44.4773 72.7818 43.64C72.4366 43.4646 72.0869 43.2929 71.725 43.1572C70.5135 42.7029 69.2502 42.6042 67.968 42.491C66.2357 42.3361 64.6649 42.7932 63.0993 43.4252C62.7046 43.5849 62.3055 43.7483 61.8992 43.8652C59.0785 44.657 56.9234 46.4282 55.0314 48.5982C53.8624 49.9388 53.146 51.5581 52.3414 53.122C51.7047 54.3555 51.308 55.6407 51.2593 57.0392C51.2405 57.6518 51.1362 58.2592 51.1052 58.8704C51.0784 59.4074 51.0835 59.9521 51.1098 60.4909C51.1448 61.2092 51.2045 61.9261 51.2602 62.6425C51.4583 65.14 52.3747 67.2936 54.1529 69.0652C55.7982 70.7057 57.8356 71.7293 59.8181 72.8424C59.9722 72.9301 60.1476 72.9745 60.313 73.0344C62.229 73.7122 64.183 74.2323 66.224 74.3384C66.4727 74.3493 66.7204 74.4059 66.9656 74.4123C67.8889 74.4359 68.822 74.5561 69.7312 74.4493C72.3515 74.1337 72.5999 74.4063 75.4565 72.6632C76.3312 72.1289 77.0809 71.5018 77.6169 70.6226C78.403 69.335 79.2004 68.057 79.956 66.7494C80.2202 66.2886 80.3932 65.7637 80.5684 65.2556C81.0119 63.9549 81.2197 62.599 81.3562 61.1479L81.3607 61.1442Z" fill="#008297" stroke="#008297" stroke-width="0.5"/>
<path fill-rule="evenodd" clip-rule="evenodd" d="M40.1961 71.0014C40.2238 70.7511 40.2161 70.4886 40.287 70.2556C40.3575 70.0266 40.4707 69.7817 40.6333 69.6087C40.8986 69.3224 41.2161 69.0835 41.5151 68.826C41.8366 68.5501 42.2208 68.4848 42.6174 68.5662C43.0661 68.6575 43.5117 68.7776 43.9536 68.8931C44.3439 68.9945 44.6841 69.2151 44.9103 69.5392C45.3166 70.1243 45.7854 70.6997 46.0363 71.3547C46.8883 73.6091 45.1224 75.3072 43.3932 75.1983C42.209 75.1251 41.1814 74.712 40.542 73.6068C40.2499 73.1008 40.0806 72.5587 40.1097 71.9638C40.1291 71.642 40.1812 71.3196 40.2167 70.9996L40.2006 70.9978L40.1961 71.0014ZM43.2729 69.4156C42.0324 69.1118 40.8729 70.034 40.9446 71.2714C40.9534 71.4136 40.9127 71.5586 40.9089 71.7036C40.8547 73.1887 41.6715 74.135 43.1406 74.3728C44.4487 74.5845 45.4313 73.7423 45.4943 72.3994C45.5105 72.0315 45.4714 71.6825 45.2776 71.3619C45.0604 70.993 44.8526 70.6128 44.6269 70.2471C44.3033 69.7294 43.8553 69.4097 43.2684 69.4193L43.2729 69.4156Z" fill="#008297" stroke="#008297" stroke-width="0.5"/>
<path fill-rule="evenodd" clip-rule="evenodd" d="M76.8309 60.2429C76.7717 60.7763 76.712 61.3138 76.6528 61.8472C76.4737 63.5719 75.8316 65.1122 74.8244 66.5082C74.6987 66.6811 74.542 66.8382 74.4392 67.0262C73.8026 68.1476 72.7394 68.7191 71.6632 69.2975C70.6392 69.8484 69.4935 69.9455 68.4087 70.2696C66.9805 70.6967 65.5943 70.3394 64.1939 70.1839C64.0887 70.1723 63.9862 70.136 63.8891 70.0878C62.707 69.5163 61.5046 68.98 60.3491 68.3533C58.5598 67.3821 57.5416 65.7406 56.8667 63.8838C56.057 61.6548 55.8475 59.3346 56.1992 56.9771C56.2469 56.6584 56.3234 56.3387 56.4501 56.0454C56.7601 55.3197 57.1016 54.6058 57.4313 53.8864C57.4751 53.7875 57.5306 53.6939 57.5932 53.6095C58.5705 52.3348 59.5222 51.0324 60.7421 49.9715C60.9551 49.7875 61.2054 49.6367 61.4605 49.5154C62.7149 48.9195 63.9786 48.3495 65.3897 48.2236C65.9898 48.1698 66.5837 48.0612 67.182 47.9864C68.3205 47.8428 69.4497 48.0055 70.5766 48.1513C71.4369 48.2634 72.2208 48.6578 72.8988 49.1567C74.2926 50.1836 75.4018 51.4864 76.0292 53.1427C76.619 54.6951 77.0157 56.2885 76.9266 57.9774C76.8878 58.7332 76.8656 59.4867 76.8345 60.2475L76.8309 60.2429ZM75.9413 60.5056C76.0518 59.3257 76.1442 58.1605 75.9947 56.9602C75.8168 55.5365 75.5096 54.2065 74.6647 53.0328C74.5188 52.8338 74.3707 52.618 74.2981 52.3857C73.8785 51.0722 72.9423 50.2415 71.8219 49.5564C70.7097 48.8722 69.4451 48.7485 68.2194 48.791C66.1674 48.8582 64.1251 49.0968 62.2321 50.058C61.2203 50.5729 60.3607 51.2667 59.7599 52.2135C59.511 52.6095 59.2416 52.97 58.955 53.337C57.9467 54.6331 57.2138 56.0679 57.0501 57.7278C56.849 59.7241 57.0946 61.6828 57.7532 63.5751C58.0977 64.5687 58.5827 65.4782 59.4116 66.1683C60.0981 66.7388 60.7616 67.3316 61.453 67.8943C61.7275 68.1158 62.0267 68.3733 62.354 68.4512C63.5964 68.7386 64.7285 69.3544 66.0055 69.5875C67.3064 69.8274 68.4731 69.5415 69.6368 69.0975C70.5314 68.7523 71.3691 68.2555 72.257 67.8971C72.9901 67.6047 73.5534 67.1438 73.9128 66.4527C74.4273 65.4714 74.9037 64.4651 75.3912 63.4683C75.6343 62.9761 75.7336 62.4513 75.7815 61.9084C75.8208 61.4434 75.8849 60.977 75.9364 60.5133L75.9413 60.5056Z" fill="#008297" stroke="#008297" stroke-width="0.5"/>
<path fill-rule="evenodd" clip-rule="evenodd" d="M74.8457 60.1886C74.7901 60.6891 74.7305 61.1893 74.679 61.6903C74.5901 62.5651 74.3088 63.3646 73.8602 64.1207C73.5839 64.5801 73.3539 65.0655 73.1279 65.5513C72.8058 66.2383 72.3014 66.6849 71.5949 66.9595C70.6013 67.3477 69.6336 67.7969 68.6552 68.2324C68.0562 68.4982 67.444 68.5507 66.7874 68.5235C65.2056 68.4518 63.8676 67.7343 62.5067 67.0391C61.7039 66.6302 61.0291 66.0652 60.3994 65.4262C60.0495 65.0717 59.6722 64.7433 59.2984 64.4193C58.8792 64.0613 58.5789 63.6292 58.4717 63.0815C58.2823 62.1301 58.0929 61.1786 57.9121 60.224C57.7464 59.3541 57.8739 58.5002 58.1144 57.6629C58.2739 57.1116 58.4613 56.5675 58.6406 56.0225C58.8086 55.5053 59.0494 55.0336 59.377 54.5923C60.1962 53.487 61.1237 52.4768 62.3232 51.8207C63.4134 51.2273 64.5471 50.6844 65.7678 50.392C66.0454 50.3273 66.336 50.2931 66.5907 50.176C67.5016 49.7579 68.3821 49.9096 69.2726 50.2286C69.4736 50.3007 69.6809 50.3528 69.885 50.3962C71.0217 50.6387 72.0181 51.1854 72.9031 51.9233C73.5631 52.4742 74.0304 53.1366 74.2235 54.0552C74.3933 54.8508 74.6625 55.6367 74.8103 56.4464C74.9791 57.3623 75.1514 58.2828 74.9244 59.2212C74.8488 59.5326 74.8448 59.8645 74.8092 60.1845L74.8497 60.189L74.8457 60.1886ZM61.347 64.8627C61.4588 65.0855 61.6373 65.2244 61.8825 65.2793C61.6965 65.1465 61.5064 65.0133 61.3199 64.8846C61.1462 64.641 60.977 64.3938 60.8033 64.1502C60.8176 64.5381 60.9129 64.8602 61.347 64.8627ZM72.3865 61.008C72.3141 60.7009 72.6527 60.751 72.7537 60.5794C72.8709 60.3723 73.0654 60.207 72.8914 59.8554C72.7726 60.2243 72.6854 60.5303 72.5748 60.8254C72.5409 60.9089 72.4325 60.9633 72.364 61.0263C72.4108 61.0481 72.4535 61.0695 72.4998 61.0954C72.457 61.1114 72.4098 61.1311 72.367 61.1471C72.372 61.102 72.3856 61.0536 72.3906 61.0085L72.3865 61.008ZM65.6106 55.1678C65.7068 55.1495 65.7806 55.1493 65.8373 55.1182C66.9406 54.4432 68.1181 54.1336 69.4005 54.3922C70.6308 54.6409 71.5209 55.2963 71.9397 56.5432C72.0289 56.8106 72.1814 57.0601 72.3354 57.2973C72.3776 57.3602 72.5376 57.3946 72.6146 57.3657C72.6916 57.3369 72.7835 57.21 72.7804 57.1266C72.7593 56.468 72.6576 55.8337 72.1721 55.3353C71.7966 54.9531 71.4121 54.5781 71.0411 54.1922C70.2008 53.3097 69.1517 53.1268 68.0069 53.2532C67.6209 53.2975 67.2314 53.3 66.8513 53.3658C66.4 53.4445 65.9232 53.4954 65.5163 53.6912C64.9191 53.9779 64.9013 54.4702 65.3864 54.9727C65.456 55.0468 65.5436 55.1064 65.607 55.1633L65.6106 55.1678ZM62.2564 61.8733C62.0871 62.0705 61.9759 62.1496 61.9307 62.2608C61.6595 62.9327 61.8435 63.5263 62.2719 64.0598C62.5166 64.3653 62.8018 64.6379 63.065 64.9246C62.9235 65.7936 63.6908 65.8206 64.1573 66.0842C64.8552 66.4773 65.6591 66.4336 66.4312 66.5276C67.7371 66.685 68.6301 65.9119 69.5477 65.1747C69.5792 65.1491 69.5758 65.0324 69.5439 64.9874C69.5125 64.9382 69.4276 64.8914 69.37 64.8933C69.267 64.8985 69.1658 64.9246 69.0667 64.9676C67.4817 65.6266 65.9386 65.6132 64.3577 64.8687C63.3298 64.3849 62.7682 63.6123 62.457 62.5768C62.4006 62.3836 62.3442 62.1904 62.2519 61.877L62.2564 61.8733ZM61.6435 59.7908C61.8849 59.6099 62.0281 59.4638 62.2059 59.3756C62.7352 59.1103 62.8135 59.0318 62.6828 58.5853C62.6295 58.4008 62.4786 58.247 62.3283 58.0143C62.5883 57.2955 62.8655 56.5329 63.1608 55.7184C63.03 55.6789 62.9028 55.6067 62.7831 55.6142C62.4777 55.6343 62.2364 55.8151 62.1204 56.0847C61.8826 56.6398 61.6322 57.1977 61.4898 57.78C61.3436 58.3951 61.2591 59.0462 61.635 59.794L61.6435 59.7908ZM65.6547 59.0522C65.7506 59.3328 65.8396 59.675 65.98 59.9979C66.1468 60.3778 66.4309 60.5132 66.8375 60.4669C67.3602 60.4087 67.6885 60.146 67.8268 59.638C67.8896 59.4041 67.9089 59.157 67.9551 58.888C67.5653 58.4875 67.0624 58.5148 66.5843 58.5033C66.2209 58.492 65.8843 58.6083 65.6547 59.0522ZM65.5102 57.2169C64.3249 57.5962 64.1554 57.9429 64.5153 59.1667C65.2257 58.7097 65.1598 57.8633 65.5102 57.2169ZM59.4983 60.3294C59.5668 61.8905 59.7138 62.264 60.4731 62.8426C60.3606 61.9371 60.1084 61.1448 59.4983 60.3294ZM64.9672 64.2136C64.9756 64.2851 64.9841 64.3567 64.9925 64.4282C65.2556 64.4574 65.5209 64.5035 65.7863 64.5122C65.9455 64.5174 66.0394 64.2246 65.9056 64.1018C65.7901 63.9976 65.605 63.8939 65.4749 63.921C65.295 63.9551 65.1382 64.1121 64.9708 64.2182L64.9672 64.2136ZM64.1586 56.2154C63.9259 56.22 63.7791 56.2633 63.7181 56.3451C63.394 56.7799 63.2735 57.1639 63.3567 57.4971C63.6303 57.0623 63.8846 56.6543 64.1586 56.2154ZM70.4739 55.5747C70.299 56.0925 70.417 56.4559 70.8282 56.6649C70.8948 56.286 70.803 55.9684 70.4739 55.5747ZM68.6909 51.0031C69.2001 51.1648 69.6644 51.2025 70.0837 51.1161C69.5689 50.9925 69.135 50.9153 68.6909 51.0031ZM63.565 53.8484C64.0687 53.8503 64.2647 53.6353 64.4281 53.2339C64.0106 53.2665 63.7554 53.3877 63.565 53.8484ZM61.7553 55.3505C62.1209 55.0838 62.3878 54.9306 62.4555 54.4688C62.09 54.6608 61.8999 54.8599 61.7553 55.3505ZM71.6079 57.7981C71.5059 58.0526 71.4579 58.3007 71.8218 58.6027C71.7153 58.1963 71.6638 57.9954 71.6079 57.7981ZM66.9403 64.5613C67.2416 64.6155 67.3634 64.6623 67.4678 64.6448C67.5474 64.6287 67.6083 64.5233 67.6731 64.4558C67.5958 64.414 67.5155 64.3261 67.4489 64.3353C67.3324 64.3515 67.2257 64.4269 66.9403 64.5613ZM66.0866 56.3795C66.0773 56.2414 66.0725 56.1744 66.0671 56.1115C65.9736 56.1427 65.8696 56.1561 65.7864 56.205C65.7472 56.2256 65.7417 56.3122 65.7232 56.3683C65.8415 56.3731 65.9597 56.3779 66.0866 56.3795ZM72.7465 58.2443L72.6575 58.2344L72.5992 58.7596L72.6882 58.7695L72.7465 58.2443ZM67.1849 56.0445C67.1318 56.1175 67.0741 56.1942 67.0209 56.2672C67.0708 56.2977 67.1494 56.3646 67.1715 56.3504C67.2466 56.3006 67.3048 56.2198 67.3656 56.1518C67.3117 56.1209 67.2618 56.0904 67.1849 56.0445ZM68.3538 58.7287C68.3926 58.6375 68.4489 58.5731 68.4378 58.5262C68.427 58.4752 68.3561 58.4133 68.3034 58.4075C68.267 58.4034 68.1742 58.5011 68.1814 58.5102C68.2263 58.5858 68.2887 58.6509 68.3579 58.7292L68.3538 58.7287ZM68.4543 56.6049C68.4133 56.6419 68.3679 56.6826 68.3269 56.7195C68.4442 56.8073 68.5614 56.8951 68.7659 57.0466C68.7157 56.8707 68.7145 56.8083 68.6812 56.7755C68.6148 56.71 68.5303 56.659 68.4548 56.6008L68.4543 56.6049ZM68.9119 55.177C68.8679 55.1306 68.823 55.055 68.7704 55.0492C68.7178 55.0433 68.6538 55.1027 68.5931 55.1333C68.6371 55.1798 68.6815 55.2595 68.7301 55.2648C68.7867 55.2711 68.8466 55.2113 68.9079 55.1766L68.9119 55.177ZM63.1723 61.8171C63.1354 61.7798 63.095 61.7379 63.0582 61.7006C63.0275 61.7554 62.9766 61.8079 62.9743 61.8658C62.9702 61.9027 63.0439 61.94 63.0848 61.9777C63.1154 61.923 63.1416 61.8719 63.1723 61.8171ZM64.1791 63.5986L64.2682 63.5711L64.1878 63.5207L64.1791 63.5986ZM70.4152 64.9262C70.4409 64.9166 70.4746 64.9079 70.485 64.8883C70.4958 64.8646 70.4914 64.8308 70.4946 64.8021C70.4599 64.819 70.4217 64.8314 70.3906 64.8529C70.3906 64.8529 70.4099 64.9007 70.4193 64.9267L70.4152 64.9262Z" fill="#008297" stroke="#008297" stroke-width="0.5"/>
<path d="M32.3913 12.5715C32.3913 12.5715 32.3975 12.6668 32.4006 12.7144C32.3723 13.3739 31.8104 13.8769 31.1544 13.848C25.1033 13.5254 19.5893 20.5218 19.5348 20.5971C19.1285 21.1139 18.3854 21.2102 17.8711 20.8013C17.3568 20.3925 17.2605 19.6454 17.6668 19.1286C17.919 18.8013 23.9808 11.0875 31.2729 11.4726C31.8816 11.5047 32.3532 11.9881 32.392 12.5834L32.3913 12.5715Z" fill="#4AB2C2"/>
<path d="M32.3935 6.5924C32.3989 6.67575 32.4044 6.7591 32.3861 6.844C32.286 7.49625 31.6847 7.94205 31.0358 7.8409C19.2152 6.04137 12.1032 19.1688 12.0407 19.3044C11.7338 19.8864 11.0104 20.101 10.4312 19.7921C9.85207 19.4831 9.62625 18.7564 9.94502 18.1736C10.2622 17.567 17.9019 3.41266 31.3928 5.47388C31.9572 5.55663 32.3688 6.032 32.4046 6.57972L32.3935 6.5924Z" fill="#4AB2C2"/>
</g>
<defs>
<clipPath id="clip0_135_86">
<rect width="102.918" height="81.3984" fill="white" transform="translate(9) rotate(6.33301)"/>
</clipPath>
</defs>
</svg>
