<svg width="112" height="93" viewBox="0 0 112 93" fill="none" xmlns="http://www.w3.org/2000/svg">
<g clip-path="url(#clip0_18_444)">
<path d="M103.727 60.7441C103.87 59.381 103.996 58.0202 104.119 56.6548C104.141 56.4164 104.103 56.1712 104.089 55.9329C103.893 55.8862 103.759 55.8381 103.621 55.8229C100.999 55.5651 98.4217 55.0506 95.8398 54.5397C94.6892 54.3123 93.5371 54.0972 92.386 53.874C91.0946 53.6226 89.8082 53.3636 88.5168 53.1122C87.6827 52.9491 86.844 52.7895 86.0045 52.6382C85.8116 52.6043 85.611 52.6028 85.3799 52.5813C85.5317 53.3915 85.7371 54.1246 85.7977 54.8707C85.8875 55.9813 85.886 57.1026 85.8975 58.2171C85.9186 60.2048 85.6515 62.1689 85.445 64.1397C85.2887 65.6218 84.9782 67.0536 84.3287 68.4021C84.2435 68.5795 84.2207 68.7847 84.1565 69.0309C84.7141 69.1385 85.2056 69.2138 85.6849 69.3251C86.4394 69.5044 86.6939 69.8317 86.6506 70.6286C86.6077 71.3839 86.5041 72.1325 86.4406 72.8897C86.4054 73.2804 86.2193 73.5547 85.9118 73.7781C85.3765 74.1714 84.796 74.3811 84.1321 74.4196C82.8128 74.4933 81.5108 74.3737 80.2316 74.1237C80.1204 74.2028 80.0281 74.259 79.9506 74.3293C78.1159 76.0197 76.0371 77.3259 73.7541 78.2936C72.7266 78.7279 71.6796 79.0437 70.5587 79.0646C69.992 79.0765 69.4216 79.1212 68.8557 79.1622C66.4933 79.332 64.1606 79.1603 61.8969 78.4397C59.1109 77.5532 56.4246 76.4326 54.0323 74.6926C53.4257 74.2515 52.852 73.7724 52.2459 73.3272C51.6928 72.921 51.2135 72.44 50.8428 71.8672C50.4546 71.2676 50.0803 70.6528 49.7663 70.0115C48.737 67.916 47.8327 65.7638 47.1125 63.5406C46.7372 62.3816 46.3434 61.204 46.3662 59.9646C46.4021 58.0911 46.5805 56.2252 47.0777 54.403C47.5655 52.6295 48.1319 50.8856 48.95 49.236C49.0402 49.0508 49.0918 48.8447 49.1713 48.6084C48.9469 48.5628 48.7769 48.5065 48.6056 48.5C47.291 48.4579 45.9772 48.445 44.6648 48.3824C43.0673 48.3048 41.4717 48.2108 39.8796 48.084C39.2095 48.0304 38.5495 47.8491 37.8831 47.7627C35.5919 47.4752 33.293 47.22 31.0031 46.9202C30.1591 46.8099 29.3272 46.6262 28.4891 46.4626C27.7593 46.3193 27.0571 46.0378 26.1764 46.073C26.1119 46.5435 26.0529 46.9274 26.0056 47.3167C25.6234 50.5017 25.3874 53.6987 24.8393 56.8652C24.5397 58.6055 24.2881 60.3553 24.1098 62.1091C23.844 64.7629 23.6515 67.4206 23.4589 70.0783C23.4003 70.8651 23.4428 71.6632 23.4534 72.4535C23.4763 74.13 24.031 75.7034 24.3976 77.31C24.4339 77.4636 24.5758 77.6247 24.7083 77.7225C25.4016 78.2314 26.154 78.614 27.0151 78.7553C27.7153 78.8703 28.4127 79.01 29.1092 79.158C30.3988 79.4257 31.6993 79.5949 33.0197 79.6584C34.7926 79.743 36.5691 79.8322 38.3388 79.9829C40.072 80.1296 41.8016 80.3465 43.5325 80.551C44.0262 80.6058 44.5136 80.7181 44.9988 80.8135C46.5353 81.1086 48.0577 81.4935 49.6051 81.6902C51.8594 81.9778 54.1265 82.1878 56.3981 82.3195C58.3805 82.4357 60.3711 82.5154 62.3599 82.2792C63.2357 82.177 64.1411 82.2152 65.0203 82.3045C67.7428 82.5817 70.4613 82.8959 73.1775 83.2306C74.2325 83.3601 75.2842 83.5558 76.331 83.7592C77.9714 84.0783 79.5963 84.4622 81.2389 84.7608C82.5645 84.9993 83.9032 85.2309 85.2457 85.3176C87.9423 85.4964 90.6266 85.786 93.3113 86.1089C94.051 86.1993 94.7926 86.3107 95.5378 86.3519C96.1364 86.3851 96.7508 86.3868 97.3392 86.2901C98.3199 86.129 99.2855 85.8831 100.26 85.6714C100.608 85.5938 100.815 85.3883 100.861 85.0113C100.937 84.4382 101.045 83.8728 101.116 83.3034C101.606 79.4824 101.946 75.6407 102.517 71.8246C103.068 68.1599 103.336 64.4473 103.721 60.756L103.727 60.7441ZM35.4635 51.9177C35.0447 51.9626 34.6134 51.9355 34.1956 51.8975C33.1738 51.8007 32.1557 51.6711 31.1308 51.5656C30.3942 51.4839 29.6644 51.378 28.9104 51.4895C28.4313 51.5609 27.929 51.472 27.4152 51.2654C27.1445 50.197 27.6305 49.3994 28.1694 48.641C29.1744 48.5199 30.0902 48.5011 31.0085 48.6072C32.3108 48.76 33.6177 48.8718 34.9173 49.0493C35.47 49.1272 36.0103 49.316 36.5534 49.4801C36.8668 49.573 36.9731 49.834 36.9749 50.1499C36.9926 51.3564 36.6456 51.7873 35.4675 51.9182L35.4635 51.9177ZM47.6086 74.7605C47.4293 75.6378 46.815 76.1885 46.0768 76.6009C45.3386 77.0132 44.5325 77.1148 43.7023 77.0642C43.4905 77.0532 43.2773 77.0171 43.168 77.0049C41.5611 76.9014 40.2721 76.2599 39.08 75.3716C38.2892 74.7813 37.8315 73.9953 37.8491 72.9879C37.8627 72.2376 37.8462 71.4632 38.0046 70.7373C38.2934 69.4277 38.9506 68.3418 40.2288 67.7526C40.4489 67.6525 40.6695 67.5108 40.8397 67.3428C41.1433 67.0442 41.5077 66.9351 41.9004 66.9039C45.1081 66.6493 47.1331 68.8554 47.6267 71.016C47.9102 72.2645 47.8527 73.5208 47.6 74.7638L47.6086 74.7605Z" fill="#7DB3B4"/>
<path fill-rule="evenodd" clip-rule="evenodd" d="M31.7384 30.4372C31.7735 30.1213 31.8008 29.8751 31.8286 29.6248C31.9245 28.8338 32.389 28.3039 33.078 28.0024C33.4961 27.8162 33.9564 27.6554 34.4053 27.6346C35.2874 27.5871 36.1788 27.6404 37.0657 27.6599C37.7727 27.6761 38.4824 27.705 39.1926 27.7298C39.4741 27.7403 39.7606 27.743 40.044 27.7745C41.1412 27.8921 42.2413 27.9851 43.33 28.1433C44.4546 28.3097 45.5621 28.5572 46.6008 29.0546C46.7604 29.1304 46.9195 29.2104 47.0732 29.3022C47.3033 29.4441 47.4145 29.6599 47.4002 29.9366C47.3768 30.2954 47.3372 30.6524 47.3259 31.0125C47.3197 31.2527 47.4472 31.433 47.6837 31.48C47.9602 31.5356 48.2431 31.5712 48.5269 31.5985C50.8254 31.8204 53.1302 32.0222 55.4273 32.2564C58.895 32.6122 62.3523 33.0249 65.8242 33.3438C68.6187 33.6 71.4242 33.7576 74.2251 33.9563C75.5383 34.0481 76.8493 34.123 78.1625 34.2147C79.6628 34.3189 81.1147 34.6379 82.5349 35.132C84.1879 35.7059 85.8957 36.0449 87.6225 36.2864C87.7597 36.3058 87.9009 36.2882 87.999 36.2908C88.2375 35.8396 88.4549 35.4318 88.6722 35.0239C88.8174 34.7493 89.0474 34.5962 89.3506 34.5593C90.6538 34.409 91.9496 34.1416 93.2739 34.3176C94.0127 34.4163 94.7552 34.5194 95.5013 34.5524C96.3329 34.5907 97.1016 34.8629 97.8844 35.0827C98.9054 35.3705 99.4592 36.2876 99.4019 37.3944C99.3945 37.5722 99.387 37.7499 99.3805 37.9569C99.5157 38.0301 99.6299 38.1092 99.7603 38.1527C100.797 38.5211 101.845 38.8618 102.876 39.2461C104.17 39.7263 104.97 40.679 105.377 41.9952C105.646 42.8599 105.781 43.7471 105.812 44.6518C105.879 46.6696 105.876 48.6839 105.62 50.6949C105.549 51.2602 105.579 51.8408 105.561 52.412C105.557 52.4822 105.577 52.5633 105.553 52.6272C105.084 53.8668 105.204 55.1844 105.066 56.465C104.879 58.1846 104.765 59.9124 104.587 61.6329C104.233 65.0037 103.86 68.3683 103.482 71.7364C103.414 72.3437 103.27 72.9383 103.171 73.542C103.095 74.0029 103.011 74.4671 102.959 74.9307C102.665 77.5106 102.387 80.0883 102.092 82.6682C101.997 83.5257 101.853 84.382 101.746 85.2382C101.687 85.6927 101.52 86.0563 101.115 86.3063C100.939 86.4155 100.727 86.5539 100.658 86.7332C100.272 87.733 99.3375 88.219 98.6636 88.9376C98.5105 89.0992 98.2167 89.1621 97.9756 89.1935C97.3445 89.2688 96.7084 89.3145 96.0737 89.3479C94.66 89.4236 93.2411 89.3243 91.8347 89.5919C90.324 89.877 88.8128 89.8712 87.2761 89.6882C81.0968 88.9567 74.9115 88.2786 68.7335 87.5721C68.1385 87.5061 67.5509 87.3371 66.9614 87.2218C66.6125 87.154 66.264 87.0821 65.9119 87.043C62.307 86.6305 58.7054 86.2266 55.1001 85.8181C54.8168 85.7867 54.5317 85.7343 54.251 85.753C52.2803 85.8998 50.3618 85.4293 48.4154 85.2839C47.171 84.8301 45.8221 84.8757 44.5623 84.4866C44.3919 84.4345 44.2161 84.3942 44.0416 84.379C42.1267 84.208 40.2359 83.8943 38.3518 83.5191C38.2115 83.491 38.0676 83.4958 37.9327 83.4559C36.106 82.9334 34.2193 82.8403 32.3481 82.6451C30.9265 82.4956 29.5443 82.2134 28.183 81.7799C27.5379 81.5754 26.8999 81.38 26.3274 81.0008C25.9836 80.7757 25.7218 80.514 25.5806 80.1246C25.3548 79.5014 25.0317 78.9795 24.3974 78.6765C23.9736 78.4717 23.6858 78.0742 23.5749 77.5967C23.2927 76.4107 22.9984 75.2233 22.7707 74.0267C22.5192 72.7112 22.4878 71.3702 22.6106 70.0423C22.8959 66.992 22.9783 63.9233 23.4255 60.8909C23.7088 58.966 24.0325 57.0456 24.3396 55.1275C24.4313 54.5603 24.5314 53.9899 24.5988 53.4201C24.9966 49.9835 25.3903 46.5465 25.776 43.1086C25.8311 42.6121 25.865 42.1216 25.8032 41.608C25.7423 41.1235 25.8572 40.6046 25.9528 40.1127C26.0764 39.4784 26.2725 38.8564 26.4083 38.2235C26.6002 37.3434 26.7876 36.4671 27.1508 35.631C27.2771 35.3418 27.278 35.0013 27.354 34.6857C27.611 33.5886 27.9749 32.5615 28.7893 31.7215C29.3631 31.1289 30.0153 30.7527 30.8062 30.6038C31.0865 30.5518 31.3623 30.5035 31.755 30.4349L31.7384 30.4372ZM26.1772 46.0648C26.1127 46.5353 26.0537 46.9192 26.0064 47.3085C25.6242 50.4934 25.3882 53.6904 24.8401 56.857C24.5404 58.5973 24.2889 60.3471 24.1106 62.1009C23.8448 64.7546 23.6522 67.4123 23.4597 70.0701C23.4011 70.8569 23.4436 71.6549 23.4542 72.4453C23.4771 74.1217 24.0318 75.6952 24.3984 77.3018C24.4346 77.4554 24.5765 77.6165 24.7091 77.7143C25.4024 78.2232 26.1548 78.6058 27.0159 78.747C27.7161 78.8621 28.4135 79.0018 29.11 79.1497C30.3996 79.4175 31.7001 79.5867 33.0205 79.6502C34.7934 79.7348 36.5699 79.824 38.3396 79.9747C40.0728 80.1214 41.8023 80.3382 43.5332 80.5428C44.027 80.5976 44.5144 80.7098 44.9996 80.8052C46.5361 81.1004 48.0585 81.4853 49.6059 81.682C51.8602 81.9695 54.1272 82.1796 56.3989 82.3113C58.3813 82.4275 60.3719 82.5072 62.3607 82.271C63.2365 82.1688 64.1419 82.207 65.0211 82.2963C67.7436 82.5735 70.4621 82.8877 73.1782 83.2223C74.2332 83.3519 75.285 83.5475 76.3318 83.7509C77.9721 84.0701 79.5971 84.4539 81.2397 84.7525C82.5653 84.991 83.904 85.2227 85.2464 85.3094C87.943 85.4882 90.6273 85.7778 93.3121 86.1007C94.0518 86.1911 94.7933 86.3025 95.5385 86.3436C96.1372 86.3769 96.7515 86.3786 97.34 86.2819C98.3207 86.1208 99.2863 85.8749 100.26 85.6631C100.609 85.5855 100.816 85.3801 100.862 85.0031C100.938 84.43 101.046 83.8646 101.117 83.2952C101.607 79.4742 101.947 75.6325 102.518 71.8164C103.068 68.1517 103.337 64.4391 103.722 60.7477C103.865 59.3846 103.992 58.0238 104.114 56.6585C104.137 56.42 104.098 56.1749 104.084 55.9365C103.888 55.8899 103.754 55.8418 103.617 55.8265C100.995 55.5687 98.4171 55.0542 95.8352 54.5434C94.6845 54.316 93.5325 54.1009 92.3814 53.8776C91.09 53.6263 89.8035 53.3672 88.5121 53.1159C87.678 52.9527 86.8394 52.7932 85.9999 52.6418C85.807 52.608 85.6064 52.6065 85.3752 52.585C85.527 53.3952 85.7325 54.1282 85.7931 54.8743C85.8829 55.985 85.8813 57.1063 85.8929 58.2207C85.914 60.2085 85.6468 62.1726 85.4404 64.1434C85.2841 65.6255 84.9736 67.0572 84.3241 68.4057C84.2388 68.5831 84.2161 68.7883 84.1519 69.0345C84.7094 69.1421 85.2009 69.2174 85.6802 69.3288C86.4347 69.508 86.6893 69.8353 86.6459 70.6322C86.6031 71.3875 86.4995 72.1361 86.4359 72.8934C86.4008 73.284 86.2147 73.5583 85.9071 73.7817C85.3718 74.175 84.7913 74.3847 84.1274 74.4232C82.8081 74.4969 81.5062 74.3773 80.2269 74.1274C80.1157 74.2064 80.0234 74.2626 79.946 74.3329C78.1113 76.0234 76.0325 77.3295 73.7494 78.2973C72.722 78.7315 71.6749 79.0473 70.5541 79.0683C69.9874 79.0801 69.417 79.1248 68.8511 79.1658C66.4887 79.3356 64.1559 79.164 61.8923 78.4434C59.1062 77.5568 56.4199 76.4363 54.0277 74.6962C53.4211 74.2551 52.8474 73.7761 52.2413 73.3308C51.6881 72.9247 51.2089 72.4437 50.8382 71.8709C50.4499 71.2712 50.0757 70.6564 49.7617 70.0152C48.7323 67.9197 47.8281 65.7674 47.1079 63.5442C46.7325 62.3853 46.3388 61.2076 46.3616 59.9682C46.3975 58.0948 46.5759 56.2288 47.0731 54.4066C47.5608 52.6331 48.1272 50.8892 48.9454 49.2396C49.0356 49.0544 49.0871 48.8483 49.1666 48.6121C48.9422 48.5664 48.7723 48.5102 48.601 48.5036C47.2863 48.4615 45.9725 48.4486 44.6602 48.3861C43.0627 48.3085 41.467 48.2144 39.875 48.0876C39.2049 48.034 38.5449 47.8527 37.8784 47.7663C35.5872 47.4788 33.2883 47.2237 30.9985 46.9238C30.1544 46.8135 29.3226 46.6298 28.4844 46.4662C27.7546 46.3229 27.0525 46.0414 26.1718 46.0766L26.1772 46.0648ZM51.6618 32.8852C51.6029 33.2691 51.5515 33.6206 51.4886 33.9666C51.3553 34.7244 51.0768 35.4245 50.5777 36.0088C50.3984 36.2215 50.1696 36.437 49.9171 36.5336C49.2228 36.8096 48.5297 37.1107 47.7664 37.1215C46.7364 37.1359 45.7064 37.1504 44.6796 37.1361C43.4729 37.1185 42.2644 37.0799 41.0604 37.0376C39.8195 36.9955 38.5756 36.8699 37.3356 36.8942C34.5964 36.9516 31.8635 36.9515 29.1448 36.5293C29.004 36.5054 28.8628 36.4856 28.7198 36.4821C28.5152 36.4802 28.3118 36.5033 28.1099 36.5141C27.2938 38.5876 26.9698 40.6949 26.8795 42.9112C28.528 43.2312 30.117 43.607 31.7555 43.6102C32.5381 43.6098 33.3212 43.568 34.0993 43.5713C36.2375 43.576 38.3497 43.8893 40.4641 44.1821C41.9085 44.384 43.3525 44.5525 44.8189 44.4453C45.1703 44.4178 45.5278 44.4451 45.8845 44.4431C47.7371 44.4369 49.577 44.5455 51.4176 44.7581C51.4824 44.7653 51.5526 44.7233 51.7083 44.6866C52.385 43.7939 53.3139 43.0662 54.2428 42.3386C54.6647 42.0075 55.0794 41.6672 55.4761 41.3042C55.9409 40.8822 56.4738 40.6216 57.0847 40.5066C57.3232 40.4625 57.5526 40.3882 57.7259 40.341C58.3944 38.895 59.2525 37.6611 60.0301 36.3767C60.4764 35.6412 61.1159 35.3425 61.8783 35.3025C62.8346 35.2508 63.7999 35.2292 64.7528 35.3183C66.8786 35.5086 68.9967 35.7685 71.113 36.0076C71.3963 36.039 71.6783 36.0828 71.9535 36.1507C72.8828 36.3785 73.8122 36.6062 74.7393 36.8545C75.2168 36.9822 75.692 37.1305 76.1618 37.2906C76.9278 37.5501 77.5654 38.0072 77.9882 38.702C78.3593 39.3081 78.7025 39.9443 78.9647 40.6089C79.2525 41.3387 79.4579 42.1091 79.6476 42.8737C79.801 43.4847 80.1389 44.058 80.0244 44.5728C81.1174 45.8363 82.1197 46.9943 83.202 48.2442C83.6958 48.299 84.298 48.3367 84.8893 48.4356C86.1479 48.65 87.4006 48.9178 88.6637 49.1286C91.0452 49.5258 93.4429 49.8501 95.8199 50.2884C98.3011 50.7465 100.764 51.2981 103.235 51.805C103.648 51.8882 104.063 51.9883 104.542 51.8503C104.59 51.5982 104.645 51.3592 104.676 51.1176C104.931 49.0026 105.015 46.8812 104.928 44.7531C104.893 43.8853 104.778 43.0336 104.51 42.2063C104.176 41.189 103.553 40.4552 102.546 40.0776C101.779 39.789 101.021 39.4889 100.249 39.2163C99.9847 39.1205 99.6992 39.0722 99.4168 39.0326C98.2233 38.8586 97.0231 38.7087 95.826 38.5302C93.5772 38.1934 91.3283 37.8566 89.0817 37.4992C88.1356 37.3485 87.1936 37.1609 86.2525 36.9651C85.2115 36.7457 84.149 36.5738 83.1464 36.2299C80.8689 35.4497 78.5419 35.0419 76.1465 34.9546C75.1184 34.9153 74.0871 34.8673 73.0581 34.7988C69.6177 34.5665 66.1818 34.2931 62.7546 33.9045C59.3274 33.5158 55.8938 33.2219 52.4597 32.8948C52.2209 32.8683 51.9762 32.8951 51.665 32.8938L51.6618 32.8852ZM84.6438 62.2025C84.9396 59.9799 84.9661 57.7482 84.8778 55.5162C84.8039 53.6721 84.1441 52.0122 83.2885 50.4178C81.7134 47.4808 79.4726 45.1512 76.8378 43.1973C74.8388 41.7169 72.5223 40.8825 70.2255 40.017C70.0291 39.9412 69.811 39.9128 69.6019 39.8772C68.1616 39.6384 66.7203 39.4452 65.255 39.4321C64.2889 39.4246 63.3433 39.5647 62.4213 39.8611C61.9497 40.0123 61.4785 40.1968 60.9909 40.2714C59.5657 40.4871 58.2816 41.1296 56.9362 41.5867C56.6086 41.6957 56.3119 41.9327 56.0336 42.1511C55.3564 42.6782 54.7152 43.2508 54.0344 43.7734C53.3176 44.3252 52.7005 44.9753 52.1881 45.7159C50.6504 47.9419 49.3523 50.2983 48.5585 52.91C48.2355 53.9749 47.9313 55.0543 47.7197 56.1481C47.5322 57.1366 47.4849 58.1532 47.3698 59.1539C47.2933 59.8432 47.3751 60.5085 47.5087 61.1879C47.8272 62.785 48.4089 64.2992 48.992 65.8011C49.5792 67.3034 50.286 68.7608 50.9848 70.2174C51.3741 71.029 51.9034 71.7606 52.6105 72.3292C53.2764 72.8642 53.9553 73.3923 54.6454 73.8925C56.8328 75.4852 59.288 76.5095 61.824 77.36C64.008 78.0967 66.253 78.3583 68.5538 78.1526C69.1539 78.0988 69.7616 78.0873 70.3656 78.0712C71.2247 78.0461 72.0678 77.9071 72.8594 77.5671C73.643 77.2263 74.4444 76.9082 75.1912 76.4926C76.9426 75.5157 78.6096 74.4131 79.952 72.8757C80.4728 72.2814 80.9747 71.6725 81.4914 71.0777C83.0964 69.2414 84.0349 67.0984 84.3688 64.6807C84.4805 63.8582 84.5518 63.0313 84.6429 62.2107L84.6438 62.2025ZM26.137 79.4677C26.3573 79.8452 26.4132 80.0799 26.5629 80.1713C26.9498 80.4136 27.3614 80.6545 27.793 80.7896C29.3585 81.2666 30.9326 81.7029 32.5836 81.7782C33.0441 81.8002 33.5005 81.8966 33.9611 81.9186C35.8149 82.0122 37.6183 82.4491 39.4273 82.7994C40.7232 83.0471 42.016 83.2487 43.3229 83.3979C43.7479 83.4451 44.1914 83.4361 44.5861 83.5713C45.8732 84.0091 47.2703 83.8983 48.542 84.4008C50.4156 84.5381 52.264 85.0133 54.1636 84.842C54.4079 84.8192 54.6606 84.868 54.9075 84.8954C58.6882 85.3109 62.4693 85.7222 66.2491 86.1459C66.5648 86.1809 66.8764 86.2529 67.1889 86.3166C67.71 86.4202 68.2217 86.5725 68.7478 86.6309C74.9322 87.3172 81.1157 87.9744 87.2968 88.6895C88.9715 88.8837 90.6156 88.8003 92.2711 88.5396C92.8969 88.4388 93.5402 88.3274 94.1667 88.3679C95.3018 88.4399 96.4265 88.2739 97.555 88.258C97.7232 88.2559 97.9257 88.2036 98.0522 88.0971C98.4394 87.7829 98.8015 87.4368 99.1632 87.0948C99.1996 87.0615 99.1809 86.9722 99.1964 86.8327C98.8814 86.9016 98.5769 86.9508 98.2772 87.0297C97.2671 87.3081 96.2478 87.3735 95.213 87.2462C94.7885 87.195 94.3685 87.14 93.9435 87.0929C91.5758 86.8301 89.2168 86.452 86.8413 86.3337C83.5528 86.1723 80.3662 85.4614 77.1556 84.8559C75.759 84.5929 74.3637 84.3175 72.9625 84.0956C71.5932 83.8813 70.2154 83.7076 68.8384 83.5631C66.8947 83.3557 64.9575 83.0535 62.995 83.1264C62.1431 83.1606 61.2951 83.3074 60.4446 83.2919C58.1715 83.2473 55.893 83.2146 53.6295 83.0465C51.008 82.8552 48.3917 82.5441 45.8261 81.9229C45.1 81.7468 44.3756 81.5542 43.6413 81.452C40.0447 80.9656 36.4302 80.7139 32.8088 80.5239C31.7497 80.4686 30.6893 80.3136 29.6384 80.1471C28.5511 79.9766 27.4801 79.7331 26.1329 79.4673L26.137 79.4677ZM28.4556 35.6138C28.6175 35.6691 28.7141 35.7214 28.8153 35.7326C31.0399 36.0294 33.2783 36.0909 35.5205 36.0448C37.5122 36.0042 39.4967 35.9171 41.479 36.1828C41.8625 36.2336 42.2579 36.2152 42.6506 36.2214C43.8204 36.2391 44.9916 36.2445 46.1646 36.2708C47.2026 36.2947 48.2183 36.2246 49.2034 35.8397C49.5117 35.7202 49.7894 35.5807 49.9764 35.2983C50.4713 34.5308 50.763 33.7117 50.6235 32.7159C50.2449 32.6573 49.8996 32.5941 49.552 32.5513C47.8206 32.3509 46.0924 32.1591 44.3597 31.9709C43.7242 31.9004 43.0879 31.8381 42.4474 31.8127C41.1337 31.7624 39.8169 31.6661 38.5075 31.7243C37.186 31.7812 35.8943 31.4218 34.579 31.5707C34.4751 31.5841 34.3401 31.5816 34.2687 31.5238C33.8608 31.1754 33.3852 31.3261 32.9408 31.3432C32.2004 31.3691 31.4479 31.3935 30.7204 31.5246C29.993 31.6557 29.4635 32.0705 29.1844 32.8495C28.8657 33.7279 28.6 34.608 28.4601 35.6101L28.4556 35.6138ZM58.9008 39.9065C59.1126 39.955 59.1818 39.9959 59.2367 39.9812C59.85 39.8083 60.4704 39.6446 61.0748 39.4417C62.4967 38.9598 63.9374 38.5673 65.445 38.6059C68.1211 38.6744 70.7564 38.9627 73.1834 40.2414C73.5281 40.4209 73.8986 40.5534 74.2591 40.7014C75.6094 41.2708 76.8484 42.0313 78.0063 42.9324C78.2251 43.1021 78.4488 43.264 78.6721 43.43C78.7294 43.3574 78.7735 43.3291 78.7726 43.2999C78.7675 43.1249 78.7713 42.9426 78.7333 42.768C78.4897 41.6777 78.035 40.6802 77.5267 39.6851C77.0755 38.8043 76.4514 38.2989 75.5621 38.0423C74.7798 37.8185 73.9989 37.5823 73.2143 37.3789C72.4612 37.1873 71.7023 36.9743 70.9346 36.8766C68.7891 36.6053 66.635 36.3745 64.484 36.1524C63.9579 36.094 63.4119 36.0667 62.8919 36.1377C61.922 36.2751 61.016 36.6855 60.4019 37.4564C59.8306 38.1738 59.4283 39.0305 58.9053 39.9029L58.9008 39.9065ZM50.9788 45.6481C50.3352 45.5767 49.8815 45.4931 49.4241 45.4798C47.6143 45.4326 45.8017 45.41 43.9914 45.3669C43.3173 45.3503 42.6408 45.3541 41.973 45.28C39.9241 45.0609 37.8802 44.7967 35.8314 44.5776C35.0907 44.4954 34.3383 44.4451 33.5966 44.4833C31.7749 44.5801 29.9755 44.476 28.1985 44.0586C27.819 43.9708 27.4283 43.9108 27.0438 43.8681C26.8454 43.8461 26.6412 43.8775 26.3655 43.8884C26.3823 44.4012 26.1411 44.8396 26.3842 45.3069C26.9962 45.4039 27.6065 45.4425 28.182 45.6102C29.2138 45.9117 30.2697 46.033 31.3297 46.1548C32.3896 46.2766 33.4505 46.3902 34.5046 46.5279C36.3016 46.7647 38.0894 47.0836 39.8901 47.2502C41.9417 47.4447 44.0015 47.5279 46.0596 47.6276C47.2617 47.6862 48.4703 47.6875 49.6927 47.711C50.1308 47.0867 50.5472 46.4725 50.9828 45.6486L50.9788 45.6481ZM84.9484 51.5574C85.7267 51.7434 86.4447 51.9934 87.1813 52.0751C89.9456 52.3819 92.6262 53.1114 95.3611 53.5728C95.92 53.6681 96.4821 53.772 97.0388 53.8877C99.198 54.3309 101.369 54.7089 103.564 54.9318C103.767 54.9543 103.972 54.9147 104.199 54.9025C104.335 54.2282 104.453 53.6058 104.363 52.9063C103.888 52.8286 103.436 52.766 102.986 52.6829C102.533 52.5993 102.083 52.4829 101.63 52.3911C100.548 52.1754 99.4688 51.9643 98.3856 51.7569C95.8383 51.2665 93.2982 50.7478 90.7423 50.298C88.5403 49.9083 86.3003 49.7137 84.1431 49.0672C84.024 49.0332 83.8868 49.0512 83.7807 49.0477C83.7459 49.1394 83.7121 49.1855 83.7224 49.2033C84.1172 49.9656 84.5119 50.728 84.9444 51.5569L84.9484 51.5574ZM98.3798 37.8915C98.6152 36.8045 98.3907 36.2064 97.5647 35.9693C96.858 35.7663 96.1594 35.4894 95.4056 35.4514C94.7697 35.4224 94.1302 35.3514 93.5074 35.2407C92.2983 35.0235 91.1074 35.2319 89.9123 35.3319C89.6271 35.3542 89.362 35.4535 89.1961 35.73C89.0451 35.9833 88.9193 36.231 89.0794 36.5229C90.1292 36.8471 95.9062 37.7707 97.9848 37.9432C98.1184 37.958 98.2588 37.9113 98.3834 37.8961L98.3798 37.8915ZM83.7433 69.7991C83.359 70.3089 82.9624 70.8547 82.5394 71.381C82.0924 71.9378 81.6194 72.4709 81.1644 73.0269C81.1076 73.0953 81.1223 73.2216 81.1073 73.3196C82.1271 73.5823 83.7002 73.6946 84.4853 73.5242C84.758 73.4672 85.0176 73.3424 85.2692 73.2166C85.4992 73.1009 85.6641 72.9074 85.6982 72.637C85.7855 71.9614 85.8768 71.2862 85.9317 70.6069C85.9632 70.249 85.8205 70.0587 85.4706 69.9992C84.9153 69.9084 84.3545 69.867 83.7433 69.7991ZM44.3799 29.3522C43.796 29.0382 43.7956 29.0423 43.1348 29.1268C43.0836 29.6985 42.933 30.2799 43.0397 30.8691C43.5016 31.0145 43.9831 31.0569 44.4842 30.9962C44.3806 30.453 44.7088 29.8955 44.3803 29.3481L44.3799 29.3522ZM42.2997 29.0092C41.8988 28.8193 41.5035 28.763 41.0513 28.8873C40.9753 29.5351 40.8368 30.1552 40.938 30.831C41.1768 30.8575 41.3814 30.8969 41.586 30.8988C41.7862 30.9044 41.9864 30.8726 42.2009 30.8591C42.3628 30.2124 42.4931 29.6288 42.3037 29.0097L42.2997 29.0092ZM38.0252 30.5327C38.3193 29.6183 38.3275 29.5444 38.1995 28.7037C37.8542 28.6404 37.4954 28.5134 37.0617 28.6563C36.876 29.2214 36.8046 29.7908 36.891 30.4151C37.168 30.4666 37.4041 30.5177 37.6429 30.5443C37.7724 30.5586 37.9101 30.5365 38.0257 30.5286L38.0252 30.5327ZM34.9511 28.5134C34.7804 29.2145 34.7364 29.8077 34.8191 30.2932C35.1955 30.2976 35.5715 30.3061 36.0092 30.3131C36.1198 29.6857 36.3014 29.1202 36.1583 28.4522C35.7463 28.4729 35.3671 28.4932 34.9506 28.5176L34.9511 28.5134ZM39.2053 28.6118C39.0439 29.2543 38.986 29.8128 39.001 30.3793C39.0027 30.4376 39.0701 30.495 39.1428 30.6152C39.4045 30.6193 39.7032 30.6234 40.0387 30.6274C40.1578 30.0716 40.2484 29.5873 40.2095 29.0887C40.1909 28.8499 40.0526 28.6934 39.8237 28.6513C39.6551 28.6202 39.4824 28.6259 39.2053 28.6118ZM45.2631 29.4793C45.1502 30.1272 45.0577 30.6278 45.0466 31.2081C45.5107 31.2347 45.904 31.4196 46.3779 31.2105C46.4297 30.8175 46.5805 30.4189 46.4166 29.9396C46.087 29.8075 45.7342 29.6645 45.2631 29.4793ZM32.5631 30.2422C32.9892 30.439 33.4333 30.4121 33.8954 30.1616C33.934 29.9249 33.9941 29.6783 34.0134 29.4312C34.0344 29.1677 34.208 28.8962 34.0194 28.6385C32.8694 28.8847 32.655 29.1184 32.5631 30.2422Z" fill="#2D7172" stroke="#2D7172" stroke-width="0.5"/>
<path fill-rule="evenodd" clip-rule="evenodd" d="M43.1685 77.0009C41.5616 76.8973 40.2725 76.2558 39.0805 75.3675C38.2897 74.7772 37.832 73.9912 37.8496 72.9838C37.8632 72.2335 37.8467 71.4591 38.0051 70.7332C38.2939 69.4237 38.9511 68.3378 40.2293 67.7486C40.4494 67.6484 40.6699 67.5067 40.8402 67.3387C41.1437 67.0401 41.5082 66.931 41.9009 66.8999C45.1086 66.6453 47.1336 68.8513 47.6272 71.0119C47.9107 72.2604 47.8532 73.5167 47.6005 74.7597C47.4212 75.637 46.8069 76.1877 46.0688 76.6C45.3306 77.0124 44.5244 77.114 43.6942 77.0634C43.4824 77.0523 43.2692 77.0162 43.16 77.0041L43.1685 77.0009ZM43.1116 76.1846C43.4655 76.2073 43.8226 76.276 44.1743 76.2444C44.6296 76.2035 45.1033 76.144 45.5191 75.9783C46.3683 75.6364 46.8927 75.0093 46.9965 74.0364C47.0849 73.2404 47.0986 72.4527 47.0016 71.6652C46.7796 69.8629 45.7504 68.6521 44.1898 67.8725C43.7044 67.6317 43.1724 67.5519 42.6387 67.746C41.8701 68.0262 41.0885 68.2759 40.3495 68.6217C40.0165 68.78 39.7309 69.1013 39.4925 69.403C38.682 70.4304 38.6362 71.6548 38.6584 72.895C38.6708 73.6689 39.001 74.2746 39.6144 74.729C40.6631 75.5058 41.7917 76.0797 43.1121 76.1805L43.1116 76.1846Z" fill="#2D7172" stroke="#2D7172" stroke-width="0.5"/>
<path fill-rule="evenodd" clip-rule="evenodd" d="M27.4112 51.265C27.1405 50.1965 27.6265 49.399 28.1654 48.6405C29.1704 48.5194 30.0862 48.5006 31.0044 48.6067C32.3068 48.7595 33.6137 48.8714 34.9133 49.0488C35.4659 49.1268 36.0063 49.3155 36.5494 49.4796C36.8628 49.5726 36.969 49.8336 36.9708 50.1494C36.9885 51.3559 36.6416 51.7868 35.4635 51.9177C35.0447 51.9626 34.6134 51.9355 34.1956 51.8975C33.1738 51.8007 32.1557 51.6711 31.1308 51.5656C30.3942 51.4839 29.6644 51.378 28.9104 51.4895C28.4313 51.5609 27.929 51.472 27.4152 51.2654L27.4112 51.265ZM36.1112 50.2534C35.71 49.9181 35.3013 49.8354 34.8722 49.7878C33.3909 49.6234 31.915 49.4471 30.4314 49.3032C29.9772 49.2611 29.5134 49.3052 29.0559 49.3292C28.7924 49.3414 28.5722 49.479 28.4666 49.729C28.3646 49.9835 28.1075 50.1958 28.2662 50.5748C28.402 50.6065 28.5755 50.7047 28.7303 50.6762C29.5153 50.5431 30.2838 50.67 31.0609 50.7562C32.0484 50.8658 33.0337 50.9959 34.0195 51.0846C34.5106 51.1266 35.0098 51.1322 35.5019 51.0913C35.9896 51.054 36.0423 50.9477 36.1071 50.253L36.1112 50.2534Z" fill="#2D7172" stroke="#2D7172" stroke-width="0.5"/>
<path fill-rule="evenodd" clip-rule="evenodd" d="M84.4891 38.6053C85.1213 38.4096 85.7231 38.3768 86.3244 38.4227C88.4111 38.5962 90.5042 38.7122 92.5608 39.1938C93.4911 39.4133 94.4635 39.4382 95.411 39.5766C95.9353 39.6514 96.4533 39.7836 96.9749 39.883C97.3562 39.9544 97.742 40.0222 98.1278 40.0899C98.9354 40.2335 99.6965 40.5008 100.429 40.877C101.08 41.2151 101.336 41.7543 101.391 42.4375C101.518 44.0632 101.274 45.6685 101.075 47.2746C101.048 47.5167 100.896 47.7449 100.844 47.9884C100.674 48.8251 100.066 49.0608 99.3483 49.1016C98.8535 49.1298 98.3498 49.1279 97.8623 49.053C96.6338 48.8627 95.4216 48.5994 94.1931 48.409C92.5373 48.1547 90.9259 47.7224 89.3245 47.2373C89.0233 47.1458 88.6981 47.1221 88.3788 47.0825C87.2825 46.9567 86.1892 46.8395 85.0924 46.7178C84.8455 46.6904 84.6 46.6507 84.3517 46.6356C83.839 46.6036 83.5831 46.2886 83.5212 45.8124C83.4406 45.2095 83.3222 44.6148 83.3955 43.9916C83.5425 42.7411 83.6292 41.4797 83.7641 40.2278C83.795 39.9488 83.9034 39.6742 84.0179 39.417C84.133 39.1556 84.3029 38.9169 84.4855 38.6008L84.4891 38.6053ZM92.0995 40.0647C91.1447 39.697 90.3042 39.5913 89.4742 39.7235C89.2489 40.6829 88.768 45.3854 88.8249 46.1643C89.633 46.3038 90.3894 46.7242 91.2322 46.772C91.4888 45.9366 91.9093 42.6645 92.0995 40.0647ZM97.6074 48.0278C97.8448 46.0729 98.0749 44.2584 98.2762 42.4449C98.3267 41.9894 98.2797 41.5273 98.1967 41.0197C97.3701 40.9736 96.6406 40.5687 95.7919 40.5742C95.5667 41.7911 95.485 42.97 95.3719 44.137C95.2592 45.3 95.0161 46.4568 95.0743 47.6678C95.9001 47.9422 96.6935 47.9929 97.6074 48.0278ZM92.76 40.2044C92.567 42.534 92.2294 44.727 92.1032 46.9351C92.7971 47.3278 93.463 47.4557 94.1571 47.404C94.4274 46.4081 95.0145 41.3768 94.9649 40.4575C94.304 40.2844 93.6128 40.2368 92.76 40.2044ZM88.6905 39.5493C87.9922 39.3804 87.378 39.2665 86.7064 39.3374C86.5448 40.0546 86.3577 40.7441 86.2348 41.4449C86.131 42.0481 86.055 42.6586 86.0407 43.2676C86.0194 44.0502 86.0669 44.8405 86.0987 45.6249C86.1013 45.7124 86.2064 45.7989 86.284 45.9113C86.8255 45.9797 87.3627 46.1598 87.9774 45.9747L88.6909 39.5452L88.6905 39.5493ZM98.9712 41.3507C98.9892 43.6621 98.5126 45.8521 98.4214 48.0767C98.9321 48.2746 99.3715 48.3026 99.7986 48.0717C100.125 47.6053 100.26 47.0927 100.304 46.5411C100.336 46.1085 100.372 45.6763 100.447 45.2528C100.612 44.3573 100.548 43.4613 100.5 42.567C100.484 42.3036 100.377 41.9719 100.195 41.8063C99.8894 41.5315 99.5146 41.2905 98.9712 41.3507ZM85.1311 45.7418C85.4361 44.9865 85.2005 44.2667 85.2505 43.5578C85.3014 42.8408 85.4544 42.1267 85.4725 41.4101C85.4951 40.6899 86.0055 40.0778 85.9058 39.315L85.3634 39.2548C84.8993 40.0894 84.6199 40.9334 84.5252 41.7868C84.4537 42.431 84.4025 43.0774 84.3067 43.7189C84.2095 44.3727 84.2833 44.9998 84.4435 45.6614L85.1315 45.7377L85.1311 45.7418Z" fill="#2D7172" stroke="#2D7172" stroke-width="0.5"/>
<path fill-rule="evenodd" clip-rule="evenodd" d="M82.1249 61.4203C82.0286 62.8052 81.7373 64.3596 81.1977 65.8614C81.0384 66.3007 80.8745 66.7435 80.6414 67.1455C79.8624 68.4795 79.0528 69.7936 78.2468 71.1122C77.6712 72.0535 76.8418 72.6966 75.9414 73.3153C74.0438 74.6124 71.9489 75.1774 69.7125 75.2823C68.8601 75.3206 68.0033 75.3252 67.1573 75.2687C64.9532 75.1196 62.7776 74.8241 60.6773 74.0718C59.8024 73.7588 58.9452 73.4352 58.1768 72.9013C57.9144 72.7185 57.6276 72.5704 57.3395 72.4346C56.0095 71.7927 54.8642 70.8888 53.7821 69.8965C51.6182 67.9077 50.5616 65.3938 50.3955 62.4595C50.3608 61.8492 50.2807 61.2422 50.2586 60.6292C50.2361 59.9829 50.2302 59.3343 50.2613 58.6856C50.2882 58.0738 50.4006 57.4674 50.4234 56.8552C50.4798 55.4243 50.8851 54.0986 51.5295 52.8327C52.3941 51.1343 53.1817 49.39 54.4602 47.9493C56.4134 45.7446 58.631 43.9263 61.5103 43.087C62.4291 42.8193 63.3161 42.4318 64.2211 42.1044C65.378 41.6845 66.5611 41.5085 67.7875 41.6446C68.4594 41.7192 69.1421 41.6953 69.8045 41.8186C70.6755 41.9817 71.5293 42.226 72.3781 42.4781C72.6357 42.5565 72.9022 42.7398 73.0755 42.9501C73.4082 43.3484 73.851 43.5678 74.2576 43.8538C75.4506 44.6965 76.6999 45.4748 77.7943 46.4311C79.0265 47.5108 80.1047 48.7602 80.8196 50.2933C81.2663 51.2525 81.4767 52.2727 81.6705 53.2953C81.9398 54.7083 82.1421 56.1347 82.3155 57.562C82.4663 58.7874 82.2901 60.0056 82.1281 61.429L82.1249 61.4203ZM81.3607 61.1444C81.5671 59.5433 81.676 57.8607 81.3715 56.1738C81.1358 54.8641 80.8916 53.5577 80.6514 52.2518C80.501 51.4293 80.1795 50.6709 79.7851 49.9417C79.1463 48.7577 78.2715 47.7426 77.2764 46.8887C75.8734 45.6863 74.4506 44.4775 72.7818 43.6402C72.4366 43.4648 72.0869 43.2931 71.725 43.1574C70.5135 42.7031 69.2502 42.6044 67.968 42.4912C66.2357 42.3363 64.6649 42.7933 63.0993 43.4254C62.7046 43.5851 62.3055 43.7485 61.8992 43.8654C59.0785 44.6572 56.9234 46.4284 55.0314 48.5984C53.8624 49.939 53.146 51.5583 52.3414 53.1222C51.7047 54.3557 51.308 55.6409 51.2593 57.0394C51.2405 57.652 51.1362 58.2593 51.1052 58.8706C51.0784 59.4076 51.0835 59.9523 51.1098 60.491C51.1448 61.2093 51.2045 61.9262 51.2602 62.6427C51.4583 65.1402 52.3747 67.2938 54.1529 69.0654C55.7982 70.7059 57.8356 71.7295 59.8181 72.8426C59.9722 72.9303 60.1476 72.9747 60.313 73.0346C62.229 73.7124 64.183 74.2325 66.224 74.3385C66.4727 74.3495 66.7204 74.4061 66.9656 74.4125C67.8889 74.4361 68.822 74.5563 69.7312 74.4495C72.3515 74.1339 72.5999 74.4065 75.4565 72.6634C76.3312 72.1291 77.0809 71.502 77.6169 70.6228C78.403 69.3352 79.2004 68.0572 79.956 66.7496C80.2202 66.2888 80.3932 65.7638 80.5684 65.2558C81.0119 63.9551 81.2197 62.5992 81.3562 61.1481L81.3607 61.1444Z" fill="#2D7172" stroke="#2D7172" stroke-width="0.5"/>
<path fill-rule="evenodd" clip-rule="evenodd" d="M40.1961 71.0013C40.2238 70.751 40.2161 70.4885 40.287 70.2555C40.3575 70.0265 40.4707 69.7816 40.6333 69.6085C40.8986 69.3223 41.2161 69.0834 41.5151 68.8258C41.8366 68.55 42.2208 68.4846 42.6174 68.566C43.0661 68.6574 43.5117 68.7774 43.9536 68.893C44.3439 68.9944 44.6841 69.2149 44.9103 69.5391C45.3166 70.1242 45.7854 70.6995 46.0363 71.3546C46.8883 73.609 45.1224 75.3071 43.3932 75.1982C42.209 75.125 41.1814 74.7118 40.542 73.6066C40.2499 73.1007 40.0806 72.5586 40.1097 71.9637C40.1291 71.6418 40.1812 71.3195 40.2167 70.9995L40.2006 70.9977L40.1961 71.0013ZM43.2729 69.4155C42.0324 69.1117 40.8729 70.0339 40.9446 71.2713C40.9534 71.4135 40.9127 71.5585 40.9089 71.7035C40.8547 73.1886 41.6715 74.1349 43.1406 74.3727C44.4487 74.5843 45.4313 73.7422 45.4943 72.3993C45.5105 72.0314 45.4714 71.6823 45.2776 71.3618C45.0604 70.9929 44.8526 70.6126 44.6269 70.247C44.3033 69.7293 43.8553 69.4096 43.2684 69.4192L43.2729 69.4155Z" fill="#2D7172" stroke="#2D7172" stroke-width="0.5"/>
<path fill-rule="evenodd" clip-rule="evenodd" d="M76.8309 60.243C76.7717 60.7764 76.712 61.3139 76.6528 61.8473C76.4737 63.5719 75.8316 65.1123 74.8244 66.5082C74.6987 66.6812 74.542 66.8383 74.4392 67.0262C73.8026 68.1477 72.7394 68.7192 71.6632 69.2975C70.6392 69.8485 69.4935 69.9456 68.4087 70.2696C66.9805 70.6968 65.5943 70.3394 64.1939 70.184C64.0887 70.1723 63.9862 70.136 63.8891 70.0879C62.707 69.5164 61.5046 68.98 60.3491 68.3534C58.5598 67.3822 57.5416 65.7407 56.8667 63.8839C56.057 61.6549 55.8475 59.3347 56.1992 56.9771C56.2469 56.6584 56.3234 56.3388 56.4501 56.0455C56.7601 55.3198 57.1016 54.6059 57.4313 53.8865C57.4751 53.7875 57.5306 53.694 57.5932 53.6096C58.5705 52.3349 59.5222 51.0324 60.7421 49.9716C60.9551 49.7875 61.2054 49.6367 61.4605 49.5155C62.7149 48.9195 63.9786 48.3495 65.3897 48.2237C65.9898 48.1698 66.5837 48.0613 67.182 47.9865C68.3205 47.8428 69.4497 48.0055 70.5766 48.1514C71.4369 48.2635 72.2208 48.6578 72.8988 49.1568C74.2926 50.1837 75.4018 51.4864 76.0292 53.1427C76.619 54.6952 77.0157 56.2885 76.9266 57.9775C76.8878 58.7333 76.8656 59.4867 76.8345 60.2476L76.8309 60.243ZM75.9413 60.5056C76.0518 59.3258 76.1442 58.1606 75.9947 56.9602C75.8168 55.5366 75.5096 54.2065 74.6647 53.0328C74.5188 52.8339 74.3707 52.6181 74.2981 52.3857C73.8785 51.0723 72.9423 50.2415 71.8219 49.5564C70.7097 48.8723 69.4451 48.7485 68.2194 48.7911C66.1674 48.8583 64.1251 49.0968 62.2321 50.058C61.2203 50.5729 60.3607 51.2667 59.7599 52.2135C59.511 52.6096 59.2416 52.9701 58.955 53.337C57.9467 54.6332 57.2138 56.0679 57.0501 57.7278C56.849 59.7242 57.0946 61.6828 57.7532 63.5752C58.0977 64.5688 58.5827 65.4782 59.4116 66.1684C60.0981 66.7388 60.7616 67.3317 61.453 67.8944C61.7275 68.1159 62.0267 68.3734 62.354 68.4513C63.5964 68.7387 64.7285 69.3544 66.0055 69.5876C67.3064 69.8275 68.4731 69.5416 69.6368 69.0975C70.5314 68.7524 71.3691 68.2556 72.257 67.8972C72.9901 67.6047 73.5534 67.1439 73.9128 66.4528C74.4273 65.4715 74.9037 64.4652 75.3912 63.4684C75.6343 62.9762 75.7336 62.4514 75.7815 61.9084C75.8208 61.4434 75.8849 60.977 75.9364 60.5134L75.9413 60.5056Z" fill="#2D7172" stroke="#2D7172" stroke-width="0.5"/>
<path fill-rule="evenodd" clip-rule="evenodd" d="M74.8457 60.1888C74.7901 60.6894 74.7305 61.1895 74.679 61.6905C74.5901 62.5654 74.3088 63.3649 73.8602 64.1209C73.5839 64.5804 73.3539 65.0657 73.1279 65.5515C72.8058 66.2385 72.3014 66.6851 71.5949 66.9598C70.6013 67.3479 69.6336 67.7971 68.6552 68.2326C68.0562 68.4984 67.444 68.551 66.7874 68.5238C65.2056 68.4521 63.8676 67.7345 62.5067 67.0393C61.7039 66.6304 61.0291 66.0654 60.3994 65.4265C60.0495 65.072 59.6722 64.7435 59.2984 64.4196C58.8792 64.0615 58.5789 63.6295 58.4717 63.0817C58.2823 62.1303 58.0929 61.1789 57.9121 60.2243C57.7464 59.3544 57.8739 58.5004 58.1144 57.6632C58.2739 57.1118 58.4613 56.5677 58.6406 56.0227C58.8086 55.5056 59.0494 55.0339 59.377 54.5926C60.1962 53.4872 61.1237 52.477 62.3232 51.821C63.4134 51.2275 64.5471 50.6846 65.7678 50.3923C66.0454 50.3276 66.336 50.2933 66.5907 50.1762C67.5016 49.7581 68.3821 49.9099 69.2726 50.2288C69.4736 50.301 69.6809 50.3531 69.885 50.3965C71.0217 50.6389 72.0181 51.1856 72.9031 51.9235C73.5631 52.4744 74.0304 53.1369 74.2235 54.0555C74.3933 54.8511 74.6625 55.6369 74.8103 56.4466C74.9791 57.3625 75.1514 58.283 74.9244 59.2214C74.8488 59.5329 74.8448 59.8647 74.8092 60.1848L74.8497 60.1893L74.8457 60.1888ZM61.347 64.8629C61.4588 65.0858 61.6373 65.2247 61.8825 65.2796C61.6965 65.1468 61.5064 65.0135 61.3199 64.8848C61.1462 64.6413 60.977 64.394 60.8033 64.1505C60.8176 64.5383 60.9129 64.8604 61.347 64.8629ZM72.3865 61.0083C72.3141 60.7012 72.6527 60.7512 72.7537 60.5797C72.8709 60.3725 73.0654 60.2072 72.8914 59.8556C72.7726 60.2246 72.6854 60.5306 72.5748 60.8256C72.5409 60.9091 72.4325 60.9635 72.364 61.0265C72.4108 61.0483 72.4535 61.0697 72.4998 61.0956C72.457 61.1116 72.4098 61.1313 72.367 61.1473C72.372 61.1022 72.3856 61.0539 72.3906 61.0087L72.3865 61.0083ZM65.6106 55.1681C65.7068 55.1497 65.7806 55.1496 65.8373 55.1185C66.9406 54.4434 68.1181 54.1338 69.4005 54.3925C70.6308 54.6412 71.5209 55.2965 71.9397 56.5434C72.0289 56.8108 72.1814 57.0604 72.3354 57.2976C72.3776 57.3604 72.5376 57.3948 72.6146 57.366C72.6916 57.3371 72.7835 57.2102 72.7804 57.1268C72.7593 56.4682 72.6576 55.8339 72.1721 55.3356C71.7966 54.9533 71.4121 54.5783 71.0411 54.1924C70.2008 53.31 69.1517 53.1271 68.0069 53.2534C67.6209 53.2978 67.2314 53.3002 66.8513 53.3661C66.4 53.4447 65.9232 53.4957 65.5163 53.6914C64.9191 53.9782 64.9013 54.4705 65.3864 54.9729C65.456 55.0471 65.5436 55.1067 65.607 55.1635L65.6106 55.1681ZM62.2564 61.8736C62.0871 62.0708 61.9759 62.1498 61.9307 62.2611C61.6595 62.9329 61.8435 63.5266 62.2719 64.0601C62.5166 64.3655 62.8018 64.6381 63.065 64.9248C62.9235 65.7938 63.6908 65.8208 64.1573 66.0845C64.8552 66.4776 65.6591 66.4339 66.4312 66.5279C67.7371 66.6853 68.6301 65.9121 69.5477 65.1749C69.5792 65.1494 69.5758 65.0327 69.5439 64.9876C69.5125 64.9384 69.4276 64.8916 69.37 64.8935C69.267 64.8987 69.1658 64.9249 69.0667 64.9679C67.4817 65.6269 65.9386 65.6134 64.3577 64.8689C63.3298 64.3852 62.7682 63.6126 62.457 62.577C62.4006 62.3838 62.3442 62.1907 62.2519 61.8772L62.2564 61.8736ZM61.6435 59.7911C61.8849 59.6102 62.0281 59.4641 62.2059 59.3758C62.7352 59.1106 62.8135 59.032 62.6828 58.5855C62.6295 58.401 62.4786 58.2472 62.3283 58.0145C62.5883 57.2958 62.8655 56.5332 63.1608 55.7186C63.03 55.6792 62.9028 55.6069 62.7831 55.6144C62.4777 55.6345 62.2364 55.8154 62.1204 56.085C61.8826 56.6401 61.6322 57.198 61.4898 57.7803C61.3436 58.3954 61.2591 59.0464 61.635 59.7943L61.6435 59.7911ZM65.6547 59.0525C65.7506 59.3331 65.8396 59.6753 65.98 59.9982C66.1468 60.3781 66.4309 60.5134 66.8375 60.4672C67.3602 60.4089 67.6885 60.1463 67.8268 59.6383C67.8896 59.4043 67.9089 59.1573 67.9551 58.8882C67.5653 58.4878 67.0624 58.515 66.5843 58.5035C66.2209 58.4922 65.8843 58.6086 65.6547 59.0525ZM65.5102 57.2171C64.3249 57.5965 64.1554 57.9432 64.5153 59.1669C65.2257 58.7099 65.1598 57.8636 65.5102 57.2171ZM59.4983 60.3297C59.5668 61.8907 59.7138 62.2643 60.4731 62.8428C60.3606 61.9373 60.1084 61.145 59.4983 60.3297ZM64.9672 64.2138C64.9756 64.2854 64.9841 64.3569 64.9925 64.4285C65.2556 64.4577 65.5209 64.5037 65.7863 64.5124C65.9455 64.5176 66.0394 64.2248 65.9056 64.102C65.7901 63.9978 65.605 63.8942 65.4749 63.9213C65.295 63.9553 65.1382 64.1124 64.9708 64.2184L64.9672 64.2138ZM64.1586 56.2156C63.9259 56.2203 63.7791 56.2635 63.7181 56.3454C63.394 56.7801 63.2735 57.1641 63.3567 57.4973C63.6303 57.0625 63.8846 56.6546 64.1586 56.2156ZM70.4739 55.5749C70.299 56.0927 70.417 56.4561 70.8282 56.6651C70.8948 56.2862 70.803 55.9687 70.4739 55.5749ZM68.6909 51.0033C69.2001 51.165 69.6644 51.2027 70.0837 51.1163C69.5689 50.9927 69.135 50.9155 68.6909 51.0033ZM63.565 53.8487C64.0687 53.8506 64.2647 53.6356 64.4281 53.2342C64.0106 53.2668 63.7554 53.388 63.565 53.8487ZM61.7553 55.3508C62.1209 55.084 62.3878 54.9309 62.4555 54.469C62.09 54.6611 61.8999 54.8601 61.7553 55.3508ZM71.6079 57.7983C71.5059 58.0529 71.4579 58.3009 71.8218 58.603C71.7153 58.1966 71.6638 57.9956 71.6079 57.7983ZM66.9403 64.5616C67.2416 64.6158 67.3634 64.6625 67.4678 64.6451C67.5474 64.629 67.6083 64.5236 67.6731 64.456C67.5958 64.4142 67.5155 64.3264 67.4489 64.3356C67.3324 64.3517 67.2257 64.4271 66.9403 64.5616ZM66.0866 56.3798C66.0773 56.2417 66.0725 56.1747 66.0671 56.1118C65.9736 56.1429 65.8696 56.1563 65.7864 56.2052C65.7472 56.2258 65.7417 56.3124 65.7232 56.3685C65.8415 56.3733 65.9597 56.3782 66.0866 56.3798ZM72.7465 58.2446L72.6575 58.2347L72.5992 58.7599L72.6882 58.7697L72.7465 58.2446ZM67.1849 56.0448C67.1318 56.1178 67.0741 56.1945 67.0209 56.2675C67.0708 56.2979 67.1494 56.3648 67.1715 56.3506C67.2466 56.3008 67.3048 56.2201 67.3656 56.1521C67.3117 56.1211 67.2618 56.0907 67.1849 56.0448ZM68.3538 58.729C68.3926 58.6377 68.4489 58.5734 68.4378 58.5265C68.427 58.4754 68.3561 58.4135 68.3034 58.4077C68.267 58.4037 68.1742 58.5014 68.1814 58.5105C68.2263 58.5861 68.2887 58.6511 68.3579 58.7294L68.3538 58.729ZM68.4543 56.6052C68.4133 56.6422 68.3679 56.6828 68.3269 56.7198C68.4442 56.8076 68.5614 56.8954 68.7659 57.0468C68.7157 56.8709 68.7145 56.8085 68.6812 56.7757C68.6148 56.7102 68.5303 56.6593 68.4548 56.6011L68.4543 56.6052ZM68.9119 55.1773C68.8679 55.1309 68.823 55.0553 68.7704 55.0494C68.7178 55.0436 68.6538 55.1029 68.5931 55.1336C68.6371 55.18 68.6815 55.2597 68.7301 55.2651C68.7867 55.2714 68.8466 55.2116 68.9079 55.1768L68.9119 55.1773ZM63.1723 61.8174C63.1354 61.7801 63.095 61.7382 63.0582 61.7009C63.0275 61.7556 62.9766 61.8081 62.9743 61.866C62.9702 61.9029 63.0439 61.9402 63.0848 61.978C63.1154 61.9232 63.1416 61.8721 63.1723 61.8174ZM64.1791 63.5989L64.2682 63.5714L64.1878 63.5209L64.1791 63.5989ZM70.4152 64.9265C70.4409 64.9169 70.4746 64.9082 70.485 64.8885C70.4958 64.8648 70.4914 64.8311 70.4946 64.8024C70.4599 64.8193 70.4217 64.8317 70.3906 64.8531C70.3906 64.8531 70.4099 64.901 70.4193 64.9269L70.4152 64.9265Z" fill="#2D7172" stroke="#2D7172" stroke-width="0.5"/>
<path d="M32.3913 12.5717C32.3913 12.5717 32.3975 12.6669 32.4006 12.7146C32.3723 13.3741 31.8104 13.8771 31.1544 13.8482C25.1033 13.5256 19.5893 20.522 19.5348 20.5973C19.1285 21.1141 18.3854 21.2104 17.8711 20.8015C17.3568 20.3927 17.2605 19.6456 17.6668 19.1288C17.919 18.8014 23.9808 11.0877 31.2729 11.4728C31.8816 11.5048 32.3532 11.9882 32.392 12.5836L32.3913 12.5717Z" fill="#7DB3B4"/>
<path d="M32.3935 6.59228C32.3989 6.67563 32.4044 6.75898 32.3861 6.84388C32.286 7.49613 31.6847 7.94193 31.0358 7.84077C19.2152 6.04125 12.1032 19.1686 12.0407 19.3043C11.7338 19.8863 11.0104 20.1009 10.4312 19.7919C9.85207 19.483 9.62625 18.7563 9.94502 18.1735C10.2622 17.5669 17.9019 3.41254 31.3928 5.47376C31.9572 5.55651 32.3688 6.03188 32.4046 6.5796L32.3935 6.59228Z" fill="#7DB3B4"/>
</g>
<defs>
<clipPath id="clip0_18_444">
<rect width="102.918" height="81.3984" fill="white" transform="translate(9) rotate(6.33301)"/>
</clipPath>
</defs>
</svg>
