<svg width="84" height="82" viewBox="0 0 84 82" fill="none" xmlns="http://www.w3.org/2000/svg">
<path d="M1.36643 27.197C8.07497 29.2077 15.9255 31.8924 18.5264 38.79C18.5966 38.8559 18.6282 38.9604 18.6121 39.0624C18.7361 39.412 18.8533 39.7503 18.9524 40.1226C18.9909 40.1227 19.0318 40.1137 19.0704 40.1138C18.0064 34.8097 17.8138 29.3782 18.6664 24.2394C16.0676 25.8604 11.9987 26.4643 10.6468 23.2195C10.1479 22.0229 10.3778 20.6146 11.3914 19.7706C11.9664 19.2886 12.6588 19.0677 13.3782 18.9694C11.1642 17.8032 9.05929 15.5165 10.1093 13.5722C11.7332 10.5766 15.1267 12.8411 16.8963 14.9275C17.6389 12.4812 19.7549 8.52927 22.3556 10.2272C24.4104 11.5655 23.3425 14.4603 21.9746 16.5558C24.0836 15.882 26.6314 15.8013 27.4435 17.9355C27.9128 19.1729 27.175 20.4531 26.1006 21.0792C25.2965 21.5516 24.4252 21.6019 23.5521 21.4685C24.4762 22.1647 25.2705 23.1078 25.6972 24.0548C26.2459 25.2832 26.104 26.9163 24.6646 27.4214C23.3093 27.8995 21.7866 27.0138 20.8699 26.059C20.5937 25.7771 20.363 25.4681 20.1663 25.1387C19.8274 31.9121 20.4333 38.2292 22.1196 44.2786C21.6198 38.2294 25.0626 32.3066 28.7161 27.5367C29.2485 26.8414 30.1683 27.4014 30.0079 28.1906C29.0082 33.1091 30.8407 37.623 28.945 42.5373C28.1785 44.5048 26.2324 48.625 23.9208 49.6047C25.4643 53.4669 27.473 57.2439 30.0422 60.979C33.5048 56.3924 36.3399 51.3871 38.4906 46.074C38.4793 46.0423 38.4703 46.0014 38.4591 45.9696C32.1873 43.4131 32.971 35.4882 31.9763 29.565C31.9063 29.4219 31.8227 29.2947 31.7526 29.1517C31.6691 28.9859 31.717 28.834 31.8216 28.7253C31.7408 28.319 31.6396 27.9173 31.5315 27.5427C31.3468 26.8981 32.2214 26.3373 32.7446 26.749C36.8304 29.9406 40.3158 33.7911 41.0867 38.2687C42.9256 31.2853 43.6537 23.8866 43.1324 16.2403C41.751 18.2746 38.9354 19.4165 36.893 17.6086C35.8129 16.6512 35.3672 15.0145 36.1186 13.7185C36.549 12.9685 37.2419 12.5163 38.0161 12.2389C35.6541 11.3536 33.2108 9.2227 35.1369 7.09432C36.5285 5.55463 38.7636 5.33708 40.5291 6.17797C39.8873 3.94201 40.3219 1.18657 42.893 0.822272C44.3953 0.603155 45.6543 1.73108 46.1256 3.0751C46.4818 4.11035 46.3366 5.1831 45.9511 6.17593C46.1964 6.00631 46.4304 5.84347 46.6577 5.66927C47.3144 5.16931 47.9959 4.72384 48.7994 4.52138C50.1205 4.17937 51.6192 4.58639 52.1449 5.94414C52.6006 7.12026 52.0667 8.54835 51.1575 9.36084C50.8075 9.6777 50.3828 9.90819 49.9332 10.0842C50.5883 10.317 51.2047 10.6268 51.7349 10.9728C52.7203 11.6169 54.2808 12.8498 53.8559 14.2282C53.4172 15.6611 51.5386 15.766 50.3277 15.5184C49.8515 15.4175 49.3958 15.2736 48.9516 15.0844C49.1663 15.4569 49.3606 15.8339 49.5117 16.229C50.0331 17.4892 50.5327 19.3709 48.778 19.864C47.3661 20.2603 45.8914 19.2612 44.9181 18.2246C45.2036 22.6377 44.9991 27.0429 44.3773 31.3814C46.6851 25.7511 52.2581 24.1183 58.3691 23.335C58.9478 23.2591 59.5064 24.0657 58.9225 24.4683C54.1832 27.7295 50.4163 35.6253 43.7798 34.9351C43.3718 36.9351 42.8934 38.9078 42.3039 40.8621C52.9368 40.9302 61.838 38.1497 69.3088 30.5998C66.23 30.7203 61.8227 29.3769 62.0132 26.2126C62.1051 24.5862 63.7471 23.7367 65.2151 23.6536C66.606 23.5704 67.9296 24.1358 69.1418 24.8372C67.8636 22.103 67.3767 17.4559 71.1521 17.2892C72.8991 17.209 74.1708 18.7453 74.5667 20.3115C74.6679 20.7133 74.7712 21.2217 74.8132 21.7435C76.2856 19.5779 78.9182 18.0522 81.0532 20.0667C83.1791 22.079 81.4385 24.4664 79.2779 25.9568C81.7572 26.1096 84.4935 27.0024 83.6724 29.0719C82.9835 30.8082 81.2011 31.5258 79.5387 31.309C80.9733 33.0408 81.9421 35.1277 80.1132 36.3738C78.8909 37.2038 77.4822 36.096 76.5719 35.3068C76.1213 34.9134 75.7297 34.477 75.3609 34.027C75.1654 36.3315 74.006 38.5568 71.625 38.0526C68.5751 37.4086 69.1299 33.6031 70.3715 31.167C67.9761 34.2381 64.7944 36.8697 61.2149 38.8221C62.9705 38.9756 64.7433 39.5579 66.3932 40.36C69.958 42.0985 75.5411 45.2434 76.5326 49.4584C76.6427 49.9395 76.1946 50.5307 75.6662 50.4456C68.2051 49.2001 57.8649 49.119 53.6655 41.7507C49.7956 42.6748 45.7912 42.7933 42.016 41.8506C39.8987 48.5226 36.7318 54.843 32.6657 60.5218C37.519 58.0707 44.4612 59.002 49.0948 60.634C49.6887 60.8417 49.6617 61.7899 49.0082 61.8951C42.4836 62.9406 34.7743 70.633 28.221 66.0568C22.138 72.8474 14.6035 78.3554 5.94112 81.9099C5.50062 82.0882 5.1957 81.4614 5.61584 81.2491C15.2043 76.3943 23.2403 69.778 29.3983 61.8873C24.5532 56.2372 21.0365 48.9542 19.3241 41.3257C19.2742 41.3324 19.2333 41.3414 19.1834 41.3481C19.0957 42.0399 18.0314 42.2055 17.7902 41.479C14.219 41.6778 10.7045 40.8105 7.68262 38.7169C5.93384 37.504 4.406 35.8742 3.27781 34.075C2.15639 32.2872 1.85051 29.9816 0.656288 28.2912C0.287626 27.7641 0.711137 27.0414 1.37542 27.2379L1.36643 27.197ZM23.3017 26.1322C25.4853 26.6156 24.5218 24.202 23.8136 23.3384C23.1144 22.4771 22.2103 21.9693 21.3519 21.3186C21.0597 21.1002 21.1444 20.7261 21.392 20.5859C21.4151 20.4181 21.5379 20.2754 21.742 20.3076C22.3339 20.4087 22.9325 20.5212 23.5337 20.5474C24.1414 20.6621 24.6997 20.5522 25.2131 20.2379C26.4297 19.9274 26.4748 19.0224 25.3233 17.5067C23.8639 16.7527 21.6137 17.6803 20.4096 18.5149C19.8143 18.9242 19.1286 18.1627 19.6719 17.6535C20.5607 16.8069 21.2614 15.9032 21.7153 14.754C21.932 14.2009 22.0875 13.6228 22.1772 13.0376C22.3896 12.387 22.0568 12.0619 21.1674 12.0691C20.4385 11.3642 19.8689 11.4424 19.4655 12.315C19.1242 12.7884 18.8327 13.2937 18.5934 13.8217C18.2333 14.5991 18.0364 15.4177 17.8214 16.2316C17.8169 16.2498 17.8146 16.2588 17.8032 16.2656C17.85 16.6537 17.2777 16.9723 17.013 16.6065C16.9994 16.5838 16.9768 16.5588 16.9632 16.5361C16.8273 16.4632 16.7141 16.3382 16.6849 16.1861C16.16 15.552 15.56 14.9859 14.8532 14.5374C13.8563 13.9001 10.5233 13.04 11.6368 15.3564C12.5877 17.323 14.8194 17.6159 16.4323 18.6788C16.8197 18.9405 16.7297 19.6799 16.2146 19.7332C16.1509 19.7943 16.0624 19.8395 15.9399 19.8279C15.0937 19.817 14.2135 19.8265 13.3849 20.0516C11.7778 20.4951 11.0094 22.3174 12.4383 23.5364C14.6394 25.4037 16.9827 23.3805 19.0446 22.4344C19.1041 22.1986 19.1454 21.9582 19.2049 21.7224C19.3765 21.0422 20.474 21.2804 20.4067 21.9677C20.3764 22.3555 20.3484 22.7343 20.3181 23.1222C20.821 24.5321 21.8459 25.8229 23.3153 26.1549L23.3017 26.1322ZM38.0473 44.3898C37.436 41.6888 36.668 39.0352 35.605 36.4807C35.1039 35.2931 34.5096 34.1689 33.9017 33.0605C34.244 37.4397 34.6176 42.039 38.0541 44.4011L38.0473 44.3898ZM38.6701 35.3053C37.4388 32.9206 35.5576 31.0473 33.524 29.3573C33.571 29.6682 33.6134 29.9973 33.6467 30.324C36.4804 34.4635 38.0705 39.9002 38.7272 44.7156C39.6461 41.4553 40.3917 38.6529 38.6701 35.3053ZM47.2889 18.1571C49.2289 19.0709 48.4129 16.6077 47.952 15.7197C47.3217 14.5092 46.4159 13.7019 45.4015 12.8286C45.1071 12.5807 45.2126 12.0478 45.5123 11.9305C45.6305 11.806 45.8438 11.7633 46.0182 11.9134C46.9375 12.7434 47.9705 13.4285 49.1447 13.8597C50.0288 14.1792 52.9241 15.0157 52.3225 13.0793C52.0634 12.2326 50.2776 11.3576 49.5363 11.0838C48.4959 10.6959 47.5089 10.746 46.4338 10.6484C45.9257 10.5974 45.9113 9.92814 46.3789 9.79529C46.733 9.69169 47.1006 9.64937 47.4795 9.63883C48.2647 9.50893 49.0409 9.37674 49.7609 8.96992C50.7171 8.42977 51.7461 6.75999 50.5842 5.89771C48.6226 4.45749 46.6254 8.01495 44.7261 8.24002C44.3809 8.42304 43.8394 8.12243 44.0286 7.67819C44.489 6.65602 45.0403 5.61817 45.0609 4.46576C45.084 3.18858 43.8833 1.33256 42.4247 2.37301C40.4162 3.79568 42.2213 6.23829 42.558 7.9246C42.6545 8.42163 42.0232 8.70613 41.6905 8.34244C41.471 8.10376 41.2787 7.83339 41.107 7.51995C39.8179 6.6642 38.0214 6.55828 36.6925 7.39029C33.335 9.4952 39.3005 11.0098 40.4676 11.5839C40.6398 11.666 40.7326 11.7955 40.7845 11.934C40.9202 12.1226 40.8673 12.4469 40.6153 12.528C40.5199 12.6004 40.4018 12.6478 40.2543 12.6588C40.1658 12.6654 40.0615 12.6584 39.9662 12.6537C39.1129 12.8243 38.232 13.1037 37.6295 13.7331C36.6973 14.7134 36.9755 16.1727 38.1288 16.8399C39.171 17.4501 40.5126 17.065 41.3695 16.3069C42.2264 15.5487 42.494 14.5261 42.9204 13.5243C42.9048 13.395 42.905 13.2793 42.8894 13.1499C42.8739 12.982 42.9082 12.846 42.9674 12.7259C42.9743 12.6987 42.9698 12.6782 42.9676 12.6487C42.984 12.3924 43.2475 12.2659 43.4584 12.3095C43.8443 12.1946 44.2795 12.343 44.3624 12.8559C44.5056 13.7795 44.6193 14.7054 44.7149 15.6266C45.3206 16.7055 46.1784 17.6261 47.307 18.1617L47.2889 18.1571ZM54.8558 26.1724C51.6206 28.366 48.6027 30.7689 45.786 33.5215C49.5616 32.2069 52.0117 28.9953 54.8558 26.1724ZM54.7807 25.2081C50.4161 26.181 46.8843 28.0973 45.1866 32.7239C48.0965 29.8694 51.2961 27.3195 54.7807 25.2081ZM71.129 29.1586C71.2967 29.2202 71.4121 29.3747 71.4753 29.545C71.707 29.3912 71.9627 29.7162 71.8351 29.9541C71.1655 31.1936 70.5095 32.4173 70.4157 33.8599C70.3383 35.0462 70.6992 37.0956 72.3558 36.8382C74.6932 36.4825 74.1482 33.5571 73.9619 31.5421C73.8897 31.3696 73.8084 31.1947 73.7475 31.0154C73.6754 30.8042 73.7779 30.6275 73.9232 30.5484C73.9211 30.4803 73.9303 30.4055 73.9373 30.3397C73.9674 30.029 74.4171 29.8144 74.6229 30.1075C74.978 30.6119 75.2169 31.3475 75.3286 32.1667C75.5729 32.4984 75.8285 32.8234 76.1001 33.1234C76.7067 33.7781 77.7094 34.8895 78.6072 35.1161C80.9223 35.6904 78.9033 32.4511 78.469 31.8785C77.7812 30.9718 76.9661 30.226 76.0329 29.5661C75.419 29.1314 76.0744 28.1778 76.6996 28.6056C76.8335 28.5719 76.9968 28.613 77.094 28.763C77.1709 28.8788 77.2501 28.9856 77.3406 29.0856C77.558 29.2563 77.7867 29.4586 78.0222 29.6724C78.7155 30.0981 79.5705 30.227 80.4036 29.9837C81.1209 29.7788 82.8449 28.7957 81.9573 27.993C81.3528 27.4449 79.8966 27.3284 79.1345 27.2519C78.166 27.1523 77.2127 27.3748 76.2579 27.2594C75.7339 27.1947 75.5653 26.4866 76.0627 26.2358C76.3715 26.0822 76.8845 25.9608 77.4971 25.9031C79.46 24.5847 82.1333 22.0949 79.761 20.7151C76.8925 19.0461 75.6579 23.4808 74.4501 24.9801C74.1976 25.2926 73.6762 25.1418 73.6952 24.7221C73.6952 24.7221 73.6998 24.704 73.7021 24.6949C73.3366 24.8053 72.9951 24.285 73.3382 24.034C74.2471 23.3757 73.6191 21.0468 73.2625 20.2044C72.644 18.7557 70.8515 17.8308 69.8111 19.5073C68.6297 21.3991 70.199 23.7823 70.7736 25.5961C70.8097 25.721 70.7913 25.8321 70.7366 25.934C70.7632 26.2109 70.4382 26.5051 70.1096 26.3161C69.1104 25.765 68.0907 25.2183 66.9728 24.946C65.6305 24.6073 62.3451 24.8204 63.7034 27.2371C64.9532 29.4721 68.5634 29.0419 70.7276 29.1056C70.8593 29.0423 71.0067 29.0698 71.1313 29.1495L71.129 29.1586ZM74.4634 48.5215C74.3142 48.2331 74.1333 47.9559 73.932 47.6833C67.8939 46.189 61.8495 44.4134 55.8778 42.6561C60.4712 47.1623 68.1927 47.5667 74.4724 48.5238L74.4634 48.5215ZM72.6737 46.2854C70.9258 44.6483 68.5806 43.3138 66.9311 42.3575C63.2854 40.2513 59.6005 39.4857 55.8512 41.2699C61.4836 42.6136 67.2265 44.2456 72.6737 46.2854ZM46.4644 61.1184C46.283 61.0726 46.0926 61.0246 45.9112 60.9788C45.8725 61.0173 45.8248 61.0535 45.7522 61.0737C40.5911 62.1449 35.8661 64.0109 31.0073 65.8722C36.1751 66.954 41.3224 62.8021 46.4621 61.1274L46.4644 61.1184ZM29.7105 65.4678C34.2506 63.0342 39.5485 61.6503 44.596 60.6856C39.081 59.6031 33.0111 60.2616 29.3644 65.0043C29.2779 65.1176 29.1666 65.1763 29.0622 65.2078C29.2775 65.3104 29.4906 65.3834 29.7105 65.4678ZM25.5715 45.7765C26.2632 44.7934 26.8644 43.7488 27.3454 42.645C28.1775 40.723 28.6516 38.6528 28.7173 36.5567C28.7762 34.4493 28.4379 32.4636 28.4264 30.4445C28.2466 30.6982 28.0736 30.9632 27.9029 31.2192C27.5982 35.8307 27.3027 41.3995 25.5715 45.7765ZM24.228 47.0486C26.021 42.4267 26.3223 37.332 27.1381 32.4154C24.4131 36.8697 22.5577 42.0064 24.228 47.0486ZM3.66706 29.2051C7.46268 32.2849 11.8911 36.4891 16.6811 38.1894C14.2484 33.225 8.99711 30.8295 3.66706 29.2051ZM6.01869 34.9497C9.00361 38.4135 13.0905 39.9944 17.4506 40.1103C17.3515 39.7766 17.2296 39.4565 17.1078 39.1363C12.1285 37.9574 7.55442 33.948 3.67521 30.7024C4.32771 32.1693 4.93698 33.6929 6.02098 34.9407L6.01869 34.9497Z" fill="#7DB3B4"/>
</svg>
