<svg width="84" height="82" viewBox="0 0 84 82" fill="none" xmlns="http://www.w3.org/2000/svg">
<path d="M1.36643 27.1974C8.07497 29.2081 15.9255 31.8927 18.5264 38.7904C18.5966 38.8563 18.6282 38.9607 18.6121 39.0628C18.7361 39.4124 18.8533 39.7507 18.9524 40.1229C18.9909 40.123 19.0318 40.114 19.0704 40.1141C18.0064 34.8101 17.8138 29.3786 18.6664 24.2398C16.0676 25.8608 11.9987 26.4646 10.6468 23.2199C10.1479 22.0233 10.3778 20.615 11.3914 19.7709C11.9664 19.2889 12.6588 19.0681 13.3782 18.9698C11.1642 17.8036 9.05929 15.5168 10.1093 13.5726C11.7332 10.577 15.1267 12.8415 16.8963 14.9278C17.6389 12.4816 19.7549 8.52964 22.3556 10.2276C24.4104 11.5659 23.3425 14.4607 21.9746 16.5562C24.0836 15.8824 26.6314 15.8016 27.4435 17.9359C27.9128 19.1733 27.175 20.4534 26.1006 21.0796C25.2965 21.552 24.4252 21.6023 23.5521 21.4689C24.4762 22.165 25.2705 23.1082 25.6972 24.0551C26.2459 25.2836 26.104 26.9167 24.6646 27.4218C23.3093 27.8999 21.7866 27.0141 20.8699 26.0593C20.5937 25.7774 20.363 25.4684 20.1663 25.1391C19.8274 31.9124 20.4333 38.2295 22.1196 44.279C21.6198 38.2298 25.0626 32.307 28.7161 27.5371C29.2485 26.8418 30.1683 27.4018 30.0079 28.1909C29.0082 33.1094 30.8407 37.6233 28.945 42.5377C28.1785 44.5052 26.2324 48.6254 23.9208 49.605C25.4643 53.4672 27.473 57.2442 30.0422 60.9793C33.5048 56.3928 36.3399 51.3874 38.4906 46.0744C38.4793 46.0426 38.4703 46.0018 38.4591 45.97C32.1873 43.4135 32.971 35.4886 31.9763 29.5654C31.9063 29.4223 31.8227 29.2951 31.7526 29.152C31.6691 28.9862 31.717 28.8343 31.8216 28.7257C31.7408 28.3194 31.6396 27.9177 31.5315 27.5431C31.3468 26.8984 32.2214 26.3377 32.7446 26.7494C36.8304 29.941 40.3158 33.7915 41.0867 38.2691C42.9256 31.2857 43.6537 23.887 43.1324 16.2407C41.751 18.2749 38.9354 19.4168 36.893 17.6089C35.8129 16.6515 35.3672 15.0149 36.1186 13.7189C36.549 12.9689 37.2419 12.5166 38.0161 12.2392C35.6541 11.354 33.2108 9.22307 35.1369 7.09468C36.5285 5.555 38.7636 5.33744 40.5291 6.17833C39.8873 3.94237 40.3219 1.18693 42.893 0.822638C44.3953 0.603521 45.6543 1.73144 46.1256 3.07547C46.4818 4.11072 46.3366 5.18346 45.9511 6.1763C46.1964 6.00667 46.4304 5.84383 46.6577 5.66963C47.3144 5.16967 47.9959 4.72421 48.7994 4.52175C50.1205 4.17974 51.6192 4.58675 52.1449 5.94451C52.6006 7.12062 52.0667 8.54871 51.1575 9.36121C50.8075 9.67807 50.3828 9.90856 49.9332 10.0845C50.5883 10.3173 51.2047 10.6272 51.7349 10.9732C52.7203 11.6173 54.2808 12.8502 53.8559 14.2286C53.4172 15.6614 51.5386 15.7663 50.3277 15.5187C49.8515 15.4179 49.3958 15.274 48.9516 15.0848C49.1663 15.4573 49.3606 15.8343 49.5117 16.2293C50.0331 17.4895 50.5327 19.3713 48.778 19.8644C47.3661 20.2606 45.8914 19.2615 44.9181 18.225C45.2036 22.638 44.9991 27.0433 44.3773 31.3818C46.6851 25.7515 52.2581 24.1186 58.3691 23.3354C58.9478 23.2595 59.5064 24.0661 58.9225 24.4686C54.1832 27.7298 50.4163 35.6257 43.7798 34.9354C43.3718 36.9355 42.8934 38.9082 42.3039 40.8625C52.9368 40.9305 61.838 38.1501 69.3088 30.6002C66.23 30.7206 61.8227 29.3773 62.0132 26.213C62.1051 24.5866 63.7471 23.7371 65.2151 23.654C66.606 23.5708 67.9296 24.1362 69.1418 24.8375C67.8636 22.1034 67.3767 17.4562 71.1521 17.2896C72.8991 17.2094 74.1708 18.7457 74.5667 20.3119C74.6679 20.7136 74.7712 21.222 74.8132 21.7439C76.2856 19.5783 78.9182 18.0526 81.0532 20.0671C83.1791 22.0794 81.4385 24.4668 79.2779 25.9572C81.7572 26.1099 84.4935 27.0028 83.6724 29.0723C82.9835 30.8086 81.2011 31.5262 79.5387 31.3094C80.9733 33.0412 81.9421 35.1281 80.1132 36.3742C78.8909 37.2042 77.4822 36.0963 76.5719 35.3072C76.1213 34.9137 75.7297 34.4773 75.3609 34.0274C75.1654 36.3319 74.006 38.5572 71.625 38.053C68.5751 37.409 69.1299 33.6034 70.3715 31.1673C67.9761 34.2385 64.7944 36.8701 61.2149 38.8225C62.9705 38.976 64.7433 39.5583 66.3932 40.3603C69.958 42.0989 75.5411 45.2438 76.5326 49.4587C76.6427 49.9399 76.1946 50.5311 75.6662 50.446C68.2051 49.2005 57.8649 49.1194 53.6655 41.7511C49.7956 42.6752 45.7912 42.7937 42.016 41.851C39.8987 48.523 36.7318 54.8434 32.6657 60.5221C37.519 58.071 44.4612 59.0024 49.0948 60.6343C49.6887 60.842 49.6617 61.7903 49.0082 61.8955C42.4836 62.941 34.7743 70.6333 28.221 66.0571C22.138 72.8477 14.6035 78.3557 5.94112 81.9103C5.50062 82.0886 5.1957 81.4618 5.61584 81.2494C15.2043 76.3947 23.2403 69.7784 29.3983 61.8877C24.5532 56.2375 21.0365 48.9546 19.3241 41.3261C19.2742 41.3328 19.2333 41.3418 19.1834 41.3485C19.0957 42.0402 18.0314 42.2058 17.7902 41.4794C14.219 41.6782 10.7045 40.8109 7.68262 38.7173C5.93384 37.5044 4.406 35.8745 3.27781 34.0754C2.15639 32.2876 1.85051 29.982 0.656288 28.2916C0.287626 27.7645 0.711137 27.0417 1.37542 27.2382L1.36643 27.1974ZM23.3017 26.1326C25.4853 26.6159 24.5218 24.2023 23.8136 23.3388C23.1144 22.4775 22.2103 21.9696 21.3519 21.319C21.0597 21.1006 21.1444 20.7264 21.392 20.5863C21.4151 20.4185 21.5379 20.2758 21.742 20.308C22.3339 20.4091 22.9325 20.5215 23.5337 20.5478C24.1414 20.6625 24.6997 20.5525 25.2131 20.2383C26.4297 19.9278 26.4748 19.0227 25.3233 17.5071C23.8639 16.7531 21.6137 17.6807 20.4096 18.5152C19.8143 18.9246 19.1286 18.1631 19.6719 17.6538C20.5607 16.8073 21.2614 15.9036 21.7153 14.7544C21.932 14.2013 22.0875 13.6231 22.1772 13.038C22.3896 12.3874 22.0568 12.0622 21.1674 12.0694C20.4385 11.3646 19.8689 11.4428 19.4655 12.3153C19.1242 12.7888 18.8327 13.294 18.5934 13.8221C18.2333 14.5995 18.0364 15.418 17.8214 16.232C17.8169 16.2501 17.8146 16.2592 17.8032 16.266C17.85 16.654 17.2777 16.9727 17.013 16.6069C16.9994 16.5841 16.9768 16.5591 16.9632 16.5364C16.8273 16.4635 16.7141 16.3385 16.6849 16.1865C16.16 15.5524 15.56 14.9862 14.8532 14.5378C13.8563 13.9005 10.5233 13.0404 11.6368 15.3567C12.5877 17.3234 14.8194 17.6163 16.4323 18.6791C16.8197 18.9409 16.7297 19.6802 16.2146 19.7336C16.1509 19.7947 16.0624 19.8399 15.9399 19.8283C15.0937 19.8174 14.2135 19.8269 13.3849 20.052C11.7778 20.4954 11.0094 22.3178 12.4383 23.5368C14.6394 25.404 16.9827 23.3809 19.0446 22.4347C19.1041 22.1989 19.1454 21.9585 19.2049 21.7227C19.3765 21.0425 20.474 21.2808 20.4067 21.968C20.3764 22.3559 20.3484 22.7347 20.3181 23.1226C20.821 24.5325 21.8459 25.8232 23.3153 26.1553L23.3017 26.1326ZM38.0473 44.3901C37.436 41.6892 36.668 39.0355 35.605 36.4811C35.1039 35.2935 34.5096 34.1693 33.9017 33.0609C34.244 37.4401 34.6176 42.0393 38.0541 44.4015L38.0473 44.3901ZM38.6701 35.3057C37.4388 32.921 35.5576 31.0476 33.524 29.3577C33.571 29.6686 33.6134 29.9976 33.6467 30.3244C36.4804 34.4639 38.0705 39.9006 38.7272 44.716C39.6461 41.4557 40.3917 38.6533 38.6701 35.3057ZM47.2889 18.1574C49.2289 19.0713 48.4129 16.6081 47.952 15.7201C47.3217 14.5096 46.4159 13.7023 45.4015 12.829C45.1071 12.5811 45.2126 12.0482 45.5123 11.9308C45.6305 11.8063 45.8438 11.7637 46.0182 11.9138C46.9375 12.7438 47.9705 13.4288 49.1447 13.8601C50.0288 14.1796 52.9241 15.0161 52.3225 13.0797C52.0634 12.2329 50.2776 11.358 49.5363 11.0842C48.4959 10.6963 47.5089 10.7463 46.4338 10.6488C45.9257 10.5978 45.9113 9.9285 46.3789 9.79565C46.733 9.69205 47.1006 9.64973 47.4795 9.6392C48.2647 9.50929 49.0409 9.3771 49.7609 8.97029C50.7171 8.43013 51.7461 6.76036 50.5842 5.89807C48.6226 4.45785 46.6254 8.01531 44.7261 8.24039C44.3809 8.42341 43.8394 8.1228 44.0286 7.67855C44.489 6.65639 45.0403 5.61854 45.0609 4.46613C45.084 3.18895 43.8833 1.33292 42.4247 2.37337C40.4162 3.79604 42.2213 6.23866 42.558 7.92496C42.6545 8.42199 42.0232 8.70649 41.6905 8.3428C41.471 8.10413 41.2787 7.83375 41.107 7.52032C39.8179 6.66457 38.0214 6.55864 36.6925 7.39066C33.335 9.49557 39.3005 11.0101 40.4676 11.5843C40.6398 11.6664 40.7326 11.7959 40.7845 11.9344C40.9202 12.1229 40.8673 12.4472 40.6153 12.5284C40.5199 12.6008 40.4018 12.6482 40.2543 12.6592C40.1658 12.6658 40.0615 12.6588 39.9662 12.654C39.1129 12.8246 38.232 13.104 37.6295 13.7334C36.6973 14.7138 36.9755 16.1731 38.1288 16.8402C39.171 17.4505 40.5126 17.0654 41.3695 16.3072C42.2264 15.5491 42.494 14.5265 42.9204 13.5247C42.9048 13.3953 42.905 13.2796 42.8894 13.1503C42.8739 12.9824 42.9082 12.8463 42.9674 12.7262C42.9743 12.699 42.9698 12.6786 42.9676 12.6491C42.984 12.3928 43.2475 12.2663 43.4584 12.3098C43.8443 12.195 44.2795 12.3434 44.3624 12.8562C44.5056 13.7799 44.6193 14.7057 44.7149 15.627C45.3206 16.7059 46.1784 17.6265 47.307 18.162L47.2889 18.1574ZM54.8558 26.1727C51.6206 28.3664 48.6027 30.7692 45.786 33.5218C49.5616 32.2073 52.0117 28.9956 54.8558 26.1727ZM54.7807 25.2084C50.4161 26.1814 46.8843 28.0977 45.1866 32.7243C48.0965 29.8698 51.2961 27.3199 54.7807 25.2084ZM71.129 29.159C71.2967 29.2206 71.4121 29.3751 71.4753 29.5454C71.707 29.3916 71.9627 29.7165 71.8351 29.9545C71.1655 31.194 70.5095 32.4176 70.4157 33.8603C70.3383 35.0466 70.6992 37.0959 72.3558 36.8386C74.6932 36.4829 74.1482 33.5574 73.9619 31.5425C73.8897 31.3699 73.8084 31.1951 73.7475 31.0157C73.6754 30.8046 73.7779 30.6279 73.9232 30.5488C73.9211 30.4807 73.9303 30.4059 73.9373 30.3401C73.9674 30.0294 74.4171 29.8148 74.6229 30.1079C74.978 30.6123 75.2169 31.3478 75.3286 32.167C75.5729 32.4988 75.8285 32.8237 76.1001 33.1238C76.7067 33.7784 77.7094 34.8899 78.6072 35.1164C80.9223 35.6908 78.9033 32.4514 78.469 31.8788C77.7812 30.9722 76.9661 30.2263 76.0329 29.5664C75.419 29.1318 76.0744 28.1781 76.6996 28.606C76.8335 28.5722 76.9968 28.6134 77.094 28.7633C77.1709 28.8792 77.2501 28.986 77.3406 29.086C77.558 29.2566 77.7867 29.459 78.0222 29.6728C78.7155 30.0985 79.5705 30.2273 80.4036 29.9841C81.1209 29.7792 82.8449 28.796 81.9573 27.9933C81.3528 27.4453 79.8966 27.3287 79.1345 27.2523C78.166 27.1526 77.2127 27.3752 76.2579 27.2597C75.7339 27.1951 75.5653 26.4869 76.0627 26.2362C76.3715 26.0826 76.8845 25.9612 77.4971 25.9035C79.46 24.5851 82.1333 22.0953 79.761 20.7154C76.8925 19.0464 75.6579 23.4812 74.4501 24.9804C74.1976 25.293 73.6762 25.1421 73.6952 24.7225C73.6952 24.7225 73.6998 24.7043 73.7021 24.6953C73.3366 24.8057 72.9951 24.2854 73.3382 24.0343C74.2471 23.3761 73.6191 21.0472 73.2625 20.2047C72.644 18.756 70.8515 17.8312 69.8111 19.5077C68.6297 21.3995 70.199 23.7826 70.7736 25.5965C70.8097 25.7213 70.7913 25.8324 70.7366 25.9344C70.7632 26.2112 70.4382 26.5055 70.1096 26.3165C69.1104 25.7653 68.0907 25.2187 66.9728 24.9463C65.6305 24.6077 62.3451 24.8208 63.7034 27.2375C64.9532 29.4725 68.5634 29.0423 70.7276 29.1059C70.8593 29.0427 71.0067 29.0702 71.1313 29.1499L71.129 29.159ZM74.4634 48.5219C74.3142 48.2335 74.1333 47.9563 73.932 47.6837C67.8939 46.1894 61.8495 44.4137 55.8778 42.6564C60.4712 47.1626 68.1927 47.567 74.4724 48.5242L74.4634 48.5219ZM72.6737 46.2858C70.9258 44.6486 68.5806 43.3142 66.9311 42.3579C63.2854 40.2516 59.6005 39.486 55.8512 41.2702C61.4836 42.6139 67.2265 44.246 72.6737 46.2858ZM46.4644 61.1187C46.283 61.073 46.0926 61.0249 45.9112 60.9792C45.8725 61.0177 45.8248 61.0538 45.7522 61.0741C40.5911 62.1452 35.8661 64.0113 31.0073 65.8725C36.1751 66.9543 41.3224 62.8024 46.4621 61.1278L46.4644 61.1187ZM29.7105 65.4682C34.2506 63.0346 39.5485 61.6507 44.596 60.686C39.081 59.6034 33.0111 60.262 29.3644 65.0047C29.2779 65.1179 29.1666 65.1767 29.0622 65.2082C29.2775 65.3107 29.4906 65.3838 29.7105 65.4682ZM25.5715 45.7769C26.2632 44.7938 26.8644 43.7492 27.3454 42.6454C28.1775 40.7234 28.6516 38.6532 28.7173 36.5571C28.7762 34.4497 28.4379 32.4639 28.4264 30.4448C28.2466 30.6985 28.0736 30.9636 27.9029 31.2196C27.5982 35.831 27.3027 41.3999 25.5715 45.7769ZM24.228 47.0489C26.021 42.4271 26.3223 37.3324 27.1381 32.4158C24.4131 36.8701 22.5577 42.0068 24.228 47.0489ZM3.66706 29.2055C7.46268 32.2853 11.8911 36.4894 16.6811 38.1898C14.2484 33.2254 8.99711 30.8299 3.66706 29.2055ZM6.01869 34.9501C9.00361 38.4139 13.0905 39.9947 17.4506 40.1107C17.3515 39.777 17.2296 39.4568 17.1078 39.1367C12.1285 37.9577 7.55442 33.9484 3.67521 30.7028C4.32771 32.1697 4.93698 33.6933 6.02098 34.941L6.01869 34.9501Z" fill="#4AB2C2"/>
</svg>
